<?xml version="1.0" standalone="no"?>
<!DOCTYPE svg PUBLIC "-//W3C//DTD SVG 1.1//EN" "http://www.w3.org/Graphics/SVG/1.1/DTD/svg11.dtd" >
<svg>
<metadata>
Created by FontForge 20090914 at Sat Jun 27 12:13:38 2020
 By www-data
Copyright 2015 The Roboto Mono Project Authors (https://github.com/googlefonts/robotomono)
</metadata>
<defs>
<font id="RobotoMono-Regular" horiz-adv-x="1229" >
  <font-face 
    font-family="Roboto Mono"
    font-weight="400"
    font-stretch="normal"
    units-per-em="2048"
    panose-1="0 0 0 9 0 0 0 0 0 0"
    ascent="1638"
    descent="-410"
    x-height="1082"
    cap-height="1456"
    bbox="-1019 -555.003 1607 2146"
    underline-thickness="100"
    underline-position="-100"
    unicode-range="U+000D-U+FFFD"
  />
<missing-glyph 
 />
    <glyph glyph-name=".notdef" 
 />
    <glyph glyph-name="nonmarkingreturn" unicode="&#xd;" 
 />
    <glyph glyph-name="space" unicode=" " 
 />
    <glyph glyph-name="exclam" unicode="!" 
d="M690 471v985h-186v-985h186zM486 97c0 -30.667 9.5 -56.334 28.5 -77.001s47.5 -31 85.5 -31s66.833 10.333 86.5 31s29.5 46.334 29.5 77.001c0 32 -9.83301 58.667 -29.5 80s-48.5 32 -86.5 32s-66.5 -10.667 -85.5 -32s-28.5 -48 -28.5 -80z" />
    <glyph glyph-name="quotedbl" unicode="&#x22;" 
d="M505 1427v109h-150v-125l-1 -354h130zM862 1427l1 109h-150v-125l-1 -354h129z" />
    <glyph glyph-name="numbersign" unicode="#" 
d="M707 410l-80 -410h143l80 410h252v137h-226l69 354h232v139h-205l82 416h-143l-82 -416h-264l82 416h-143l-82 -416h-285v-139h258l-69 -354h-265v-137h239l-80 -410h143l80 410h264zM469 547l69 354h264l-69 -354h-264z" />
    <glyph glyph-name="dollar" unicode="$" 
d="M907 375c0 -36.667 -6.50195 -69.498 -19.502 -98.498s-31.5 -53.5 -55.5 -73.5c-24 -20.667 -53.333 -36.334 -88 -47.001s-73.667 -16 -117 -16c-34 0 -67.667 4.66699 -101 14s-63 25 -89 47c-26.667 22 -48.334 51.5 -65.001 88.5s-25 83.5 -25 139.5h-185
c0 -75.333 11 -140 33 -194s51.333 -98.667 88 -134c36.667 -36 78.834 -63.333 126.501 -82s97.5 -30.667 149.5 -36v-191h149v192c58 6 110.833 19 158.5 39s88.167 46.667 121.5 80c33.333 32.667 59.166 72 77.499 118s27.5 98 27.5 156
c0 59.333 -9.16699 111.333 -27.5 156s-44.833 84 -79.5 118s-77 63.667 -127 89s-106.333 48.333 -169 69c-51.333 17.333 -95.166 35.166 -131.499 53.499s-65.833 38.166 -88.5 59.499c-23.333 21.333 -40.333 45 -51 71s-16 55.667 -16 89
c0 34 4.83301 64.833 14.5 92.5s23.834 51.5 42.501 71.5c20 22 45.833 39 77.5 51s68.834 18 111.501 18c39.333 0 74.333 -7.66699 105 -23s56.667 -36.333 78 -63c20.667 -27.333 36.5 -59.833 47.5 -97.5s16.5 -78.834 16.5 -123.501h184
c-0.666992 76.667 -11 144.5 -31 203.5s-49 108.5 -87 148.5c-29.333 30 -64 54.5 -104 73.5s-84.333 31.833 -133 38.5v220h-149v-220c-54 -6.66699 -103.167 -20.334 -147.5 -41.001s-81.833 -47.667 -112.5 -81c-31.333 -34 -55.5 -73.667 -72.5 -119
s-25.5 -96 -25.5 -152c0 -59.333 9.66699 -111.666 29 -156.999s47 -85.333 83 -120c35.333 -35.333 78 -65.666 128 -90.999s106 -47.666 168 -66.999c49.333 -16 92 -33.5 128 -52.5s65.333 -39.5 88 -61.5s39.167 -45.833 49.5 -71.5s15.5 -53.5 15.5 -83.5z" />
    <glyph glyph-name="percent" unicode="%" 
d="M44 1194v-77c0 -38 5.83301 -74 17.5 -108s28.834 -63.667 51.501 -89c22.667 -26 50.834 -46.5 84.501 -61.5s72.167 -22.5 115.5 -22.5s81.666 7.5 114.999 22.5s61.333 35.5 84 61.5c22 25.333 38.833 55 50.5 89s17.5 70 17.5 108v77
c0 38 -5.83301 74.167 -17.5 108.5s-28.5 64.5 -50.5 90.5c-22.667 26 -50.834 46.5 -84.501 61.5s-72.5 22.5 -116.5 22.5c-43.333 0 -81.666 -7.5 -114.999 -22.5s-61 -35.5 -83 -61.5c-22.667 -26 -39.834 -56.167 -51.501 -90.5s-17.5 -70.5 -17.5 -108.5zM182 1117v77
c0 20.667 2.33301 40.834 7 60.501s12.334 37.167 23.001 52.5c10 14.667 23.167 26.5 39.5 35.5s36.166 13.5 59.499 13.5c24 0 44.167 -4.5 60.5 -13.5s29.833 -20.833 40.5 -35.5c10 -15.333 17.5 -32.833 22.5 -52.5s7.5 -39.834 7.5 -60.501v-77
c0 -20.667 -2.5 -40.5 -7.5 -59.5s-12.5 -35.833 -22.5 -50.5c-10 -15.333 -23.167 -27.5 -39.5 -36.5s-36.166 -13.5 -59.499 -13.5c-24 0 -44.167 4.5 -60.5 13.5s-29.833 21.167 -40.5 36.5c-10.667 14.667 -18.334 31.5 -23.001 50.5s-7 38.833 -7 59.5zM645 338
l-0.00195312 -78c0 -38 5.83301 -74 17.5 -108s28.834 -63.667 51.501 -89c22.667 -26 50.834 -46.5 84.501 -61.5s72.5 -22.5 116.5 -22.5c43.333 0 81.5 7.5 114.5 22.5s60.833 35.5 83.5 61.5c22.667 25.333 39.834 55 51.501 89s17.5 70 17.5 108v78
c0 38 -5.83301 74 -17.5 108s-28.834 64 -51.501 90s-50.667 46.5 -84 61.5s-72 22.5 -116 22.5c-43.333 0 -81.666 -7.5 -114.999 -22.5s-61.333 -35.5 -84 -61.5s-39.834 -56 -51.501 -90s-17.5 -70 -17.5 -108zM782.998 260l-0.00292969 78c0 20.667 2.33301 40.667 7 60
s12.334 36.666 23.001 51.999c10 14.667 23.167 26.5 39.5 35.5s36.5 13.5 60.5 13.5c23.333 0 43.333 -4.5 60 -13.5s30.334 -20.833 41.001 -35.5c10 -15.333 17.333 -32.666 22 -51.999s7 -39.333 7 -60v-78c0 -20.667 -2.33301 -40.667 -7 -60s-12 -36.333 -22 -51
c-10 -15.333 -23.167 -27.5 -39.5 -36.5s-36.166 -13.5 -59.499 -13.5c-24 0 -44.333 4.5 -61 13.5s-30 21.167 -40 36.5c-10.667 14.667 -18.5 31.667 -23.5 51s-7.5 39.333 -7.5 60zM397.995 188l567 1037l-111 62l-567 -1037z" />
    <glyph glyph-name="ampersand" unicode="&#x26;" 
d="M107 373c0 -57.333 10.1719 -110.165 30.5049 -158.498s49.166 -89.833 86.499 -124.5s82.666 -61.667 135.999 -81s113 -29 179 -29c40.667 0 80.167 4.33301 118.5 13s75.166 21.334 110.499 38.001c21.333 10 42.166 21.667 62.499 35s39.833 28 58.5 44l83 -110h221
l-181 237c46.667 58.667 82.167 124.5 106.5 197.5s36.5 152.167 36.5 237.5h-167c-0.666992 -58.667 -7.66699 -113.334 -21 -164.001s-31.666 -97.334 -54.999 -140.001l-307 403l94 80c29.333 22 56.666 44.333 81.999 67s47.333 46.667 66 72
c18 25.333 32.167 52.5 42.5 81.5s15.5 61.167 15.5 96.5c0 41.333 -7.33301 80.666 -22 117.999s-35.334 70.333 -62.001 99c-27.333 28 -60.333 50.333 -99 67s-81.667 25 -129 25c-54.667 0 -104 -7.66699 -148 -23s-81.667 -37.666 -113 -66.999
c-31.333 -30 -55.5 -66.833 -72.5 -110.5s-25.5 -93.834 -25.5 -150.501c0 -26.667 2.83301 -52.667 8.5 -78s13.5 -50.333 23.5 -75c12.667 -30 28.667 -60.5 48 -91.5s41.333 -63.167 66 -96.5l-36 -26c-32.667 -24.667 -62.5 -49.667 -89.5 -75s-50.833 -52 -71.5 -80
c-24 -33.333 -42.667 -69 -56 -107s-20 -79.333 -20 -124zM539.005 130.001c-40.667 0 -76.3311 6.33301 -106.998 19s-56.334 30 -77.001 52s-36.334 47.667 -47.001 77s-16 61 -16 95c0 12.667 1.83301 28.5 5.5 47.5s11.167 40.167 22.5 63.5
c10.667 22.667 26.334 47 47.001 73s47.667 52.667 81 80l28 24l323 -431c-16 -13.333 -32.5 -25.5 -49.5 -36.5s-34.5 -20.5 -52.5 -28.5c-24.667 -11.333 -50.334 -20 -77.001 -26s-53.667 -9 -81 -9zM420.008 1128c0 26.667 3.66602 51.833 10.999 75.5
s18.333 44.5 33 62.5c14 18 31.833 32.333 53.5 43s46.834 16 75.501 16c22 0 41.667 -4.5 59 -13.5s32.333 -20.5 45 -34.5c12 -14.667 21.167 -31.5 27.5 -50.5s9.5 -38.5 9.5 -58.5c0 -15.333 -1.5 -31 -4.5 -47s-8.16699 -31.667 -15.5 -47
c-7.33301 -16 -17.666 -31.667 -30.999 -47s-30.333 -30 -51 -44l-117 -93c-16.667 24 -31.334 47.333 -44.001 70s-23 45 -31 67c-6.66699 16.667 -11.667 33.5 -15 50.5s-5 33.833 -5 50.5z" />
    <glyph glyph-name="quotesingle" unicode="'" 
d="M653 1425v111h-158v-127l-1 -352h138z" />
    <glyph glyph-name="parenleft" unicode="(" 
d="M357 591v-9.99805c0 -95.333 7.5 -185 22.5 -269s35.167 -161.667 60.5 -233c24.667 -72 53.5 -137.5 86.5 -196.5s67.833 -111.5 104.5 -157.5c36 -46.667 72.5 -86.167 109.5 -118.5s72.167 -57.833 105.5 -76.5l39 113c-27.333 22 -54.5 48.5 -81.5 79.5
s-53.167 66.5 -78.5 106.5c-24.667 42 -48.334 89.5 -71.001 142.5s-42.667 110.5 -60 172.5c-16 61.333 -28.667 128.333 -38 201s-14 150.667 -14 234v14c0 86.667 5 167.667 15 243s24 144.333 42 207c18.667 69.333 42 133.166 70 191.499s57.333 109.166 88 152.499
c20.667 28 41.834 53.333 63.501 76s43.167 42 64.5 58l-39 122c-33.333 -18.667 -68.333 -44.334 -105 -77.001s-73 -72 -109 -118c-36.667 -46 -71.5 -98.667 -104.5 -158s-62.167 -124.666 -87.5 -195.999c-25.333 -72 -45.5 -150 -60.5 -234s-22.5 -173.667 -22.5 -269z
" />
    <glyph glyph-name="parenright" unicode=")" 
d="M849 581v9.99707c0 102 -7.83301 193.833 -23.5 275.5s-35.5 157.5 -59.5 227.5c-24.667 72.667 -53.334 138 -86.001 196s-67.667 110.667 -105 158c-36 46 -72.667 85.333 -110 118s-72.666 58.334 -105.999 77.001l-39 -113c22 -18 44.667 -39.833 68 -65.5
s46 -55.5 68 -89.5c28.667 -43.333 56.667 -94.166 84 -152.499s50.666 -124.166 69.999 -197.499c13.333 -51.333 25.5 -113.666 36.5 -186.999s16.5 -155 16.5 -245v-14c0 -79.333 -4.16699 -153.833 -12.5 -223.5s-20.166 -134.5 -35.499 -194.5
c-14.667 -64.667 -33.5 -124.167 -56.5 -178.5s-46.833 -103.166 -71.5 -146.499c-26 -42.667 -53.333 -80.334 -82 -113.001s-57 -59.334 -85 -80.001l39 -113c33.333 18.667 68.5 44.167 105.5 76.5s73.833 71.833 110.5 118.5c36 46 70.5 98.5 103.5 157.5
s62.167 124.5 87.5 196.5c25.333 71.333 45.5 149 60.5 233s22.5 173.667 22.5 269z" />
    <glyph glyph-name="asterisk" unicode="*" 
d="M537 915l-261 -327l146 -106l212 354l214 -363l146 110l-256 324l382 94l-54 178l-363 -150l29 427h-178l25 -421l-365 151l-54 -175z" />
    <glyph glyph-name="plus" unicode="+" 
d="M710 781v425h-185v-425h-406v-184h406v-451h185v451h407v184h-407z" />
    <glyph glyph-name="comma" unicode="," 
d="M643 43l0.000976562 176.003h-201v-179c0 -56.667 -6.66699 -111.334 -20 -164.001s-36 -102.334 -68 -149.001l115 -63c53.333 47.333 95.666 105.666 126.999 174.999s47 137.333 47 204z" />
    <glyph glyph-name="hyphen" unicode="-" 
d="M983 561v152h-765v-152h765z" />
    <glyph glyph-name="period" unicode="." 
d="M496 120c0 -38.667 12.168 -71.5 36.501 -98.5s60.5 -40.5 108.5 -40.5c47.333 0 83.666 13.333 108.999 40s38 59.667 38 99c0 40 -12.5 73.833 -37.5 101.5s-61.5 41.5 -109.5 41.5c-48.667 0 -85 -14 -109 -42s-36 -61.667 -36 -101z" />
    <glyph glyph-name="slash" unicode="/" 
d="M418 -125l607 1581h-165l-608 -1581h166z" />
    <glyph glyph-name="slash" unicode="&#x2215;" 
d="M418 -125l607 1581h-165l-608 -1581h166z" />
    <glyph glyph-name="zero" unicode="0" 
d="M1088 557l-0.000976562 341.001c0 92.667 -10.667 174.834 -32 246.501s-52 132.167 -92 181.5c-40.667 49.333 -90.167 86.833 -148.5 112.5s-124.833 38.5 -199.5 38.5c-74 0 -140.167 -12.833 -198.5 -38.5s-107.5 -63.167 -147.5 -112.5
c-40.667 -49.333 -71.667 -109.833 -93 -181.5s-32 -153.834 -32 -246.501v-341c0 -92.667 10.667 -174.834 32 -246.501s52.333 -131.834 93 -180.501c40.667 -50 90.334 -87.5 149.001 -112.5s125 -37.5 199 -37.5c74.667 0 141 12.667 199 38s107 62.666 147 111.999
c40 48.667 70.667 108.834 92 180.501s32 153.834 32 246.501zM330.999 594.001v50.999v50v244c0 68 6.83301 127.833 20.5 179.5s34.5 93.834 62.5 126.501c23.333 26 51.833 45.833 85.5 59.5s72.5 20.5 116.5 20.5c43.333 0 81.5 -6.33301 114.5 -19
s60.833 -31.667 83.5 -57c23.333 -24.667 41.833 -55.5 55.5 -92.5s23.167 -79.5 28.5 -127.5zM901.999 518c0 -71.333 -7.16602 -133.333 -21.499 -186s-36.833 -95.334 -67.5 -128.001c-22.667 -24 -50.334 -42.333 -83.001 -55s-70 -19 -112 -19
c-40 0 -76 5.83301 -108 17.5s-59.333 28.834 -82 51.501c-24.667 24 -44.667 54.5 -60 91.5s-26 79.833 -32 128.5l566 433v-70.5v-57.5v-206z" />
    <glyph glyph-name="one" unicode="1" 
d="M774 0v1456h-15l-551 -212v-169l381 145v-1220h185z" />
    <glyph glyph-name="two" unicode="2" 
d="M1067 0l-0.00292969 151.003h-731l391 424c36.667 40 71.5 80.167 104.5 120.5s62.167 81.166 87.5 122.499c24.667 41.333 44.334 83.166 59.001 125.499s22 85.166 22 128.499c0 58 -10.167 111.667 -30.5 161s-49.5 92 -87.5 128s-84.5 64.167 -139.5 84.5
s-116.833 30.5 -185.5 30.5c-74.667 0 -141.167 -12 -199.5 -36s-107.5 -56.333 -147.5 -97c-40.667 -40.667 -71.667 -88.167 -93 -142.5s-32 -112.166 -32 -173.499h186c0 45.333 5.83301 86.333 17.5 123s29.5 68 53.5 94c23.333 25.333 52.833 45 88.5 59
s77.834 21 126.501 21c40 0 75.833 -6.83301 107.5 -20.5s58.834 -32.167 81.501 -55.5c22 -23.333 38.833 -50.833 50.5 -82.5s17.5 -65.5 17.5 -101.5c0 -29.333 -3.66699 -57.833 -11 -85.5s-19.666 -56.834 -36.999 -87.501c-17.333 -31.333 -40.333 -65.333 -69 -102
s-64.334 -78.667 -107.001 -126l-477 -530v-133h954z" />
    <glyph glyph-name="three" unicode="3" 
d="M390 817l0.00976562 -150.001h132c46 0 88.167 -5.33301 126.5 -16s71.166 -27 98.499 -49c26.667 -22 47.5 -49.5 62.5 -82.5s22.5 -72.167 22.5 -117.5c0 -46 -6.5 -85.833 -19.5 -119.5s-31.5 -61.834 -55.5 -84.501s-53 -39.5 -87 -50.5s-72 -16.5 -114 -16.5
s-80.167 6 -114.5 18s-63.5 29 -87.5 51s-42.5 48.667 -55.5 80s-19.5 66 -19.5 104h-185c0 -64 12.167 -121 36.5 -171s57.166 -92.333 98.499 -127s90.166 -61 146.499 -79s116.5 -27 180.5 -27c65.333 0 126.166 9.5 182.499 28.5s105.166 46.833 146.499 83.5
c41.333 36 73.666 80.333 96.999 133s35 113 35 181c0 33.333 -3.83301 67 -11.5 101s-20.834 66.333 -39.501 97c-19.333 30.667 -44.833 58.334 -76.5 83.001s-71.167 44.667 -118.5 60c39.333 16.667 73.166 37.5 101.499 62.5s51.5 51.833 69.5 80.5
c18 28 31.333 57 40 87s13 59 13 87c0 67.333 -10.667 126.666 -32 177.999s-51.333 94.333 -90 129s-85 60.834 -139 78.501s-113.667 26.5 -179 26.5c-67.333 0 -128.5 -10.5 -183.5 -31.5s-102.167 -49.5 -141.5 -85.5c-39.333 -36.667 -69.833 -79.5 -91.5 -128.5
s-32.5 -101.167 -32.5 -156.5h186c0 38 6.33301 72.333 19 103s30.667 57 54 79c22.667 22 50.167 38.833 82.5 50.5s68.166 17.5 107.499 17.5c40.667 0 76.834 -5.16699 108.501 -15.5s58.167 -25.833 79.5 -46.5c22 -21.333 38.667 -48.166 50 -80.499
s17 -70.166 17 -113.499c0 -36.667 -6.33301 -70.334 -19 -101.001s-31 -57 -55 -79c-24.667 -22 -54.834 -39.333 -90.501 -52s-76.834 -19 -123.501 -19h-132z" />
    <glyph glyph-name="four" unicode="4" 
d="M924 489v967h-197l-652 -1009v-109h664v-338h185v338h203v151h-203zM280 489l429 665l30 56v-721h-459z" />
    <glyph glyph-name="five" unicode="5" 
d="M240 730l147.999 -37.998c16.667 14.667 32.834 27.667 48.501 39s32.5 21 50.5 29s38.167 14.167 60.5 18.5s48.833 6.5 79.5 6.5c46.667 0 88 -8.33301 124 -25s66.333 -39.334 91 -68.001c24.667 -29.333 43.5 -63.666 56.5 -102.999s19.5 -81.666 19.5 -126.999
c0 -50 -5.83301 -95.333 -17.5 -136s-28.834 -75.334 -51.501 -104.001c-23.333 -29.333 -52 -51.833 -86 -67.5s-73 -23.5 -117 -23.5c-78 0 -141.833 21.333 -191.5 64s-80.167 105.334 -91.5 188.001h-176c6.66699 -67.333 23.167 -126.333 49.5 -177
s60.166 -92.667 101.499 -126c40.667 -33.333 87.334 -58.333 140.001 -75s108.667 -25 168 -25c77.333 0 144.666 12.167 201.999 36.5s105 58.166 143 101.499c37.333 42.667 65.333 93.667 84 153s28 123.666 28 192.999c0 73.333 -10 140 -30 200
s-48.667 111.333 -86 154c-37.333 42 -82.666 74.667 -135.999 98s-113.666 35 -180.999 35c-52.667 0 -99 -6.33301 -139 -19s-74.333 -27.334 -103 -44.001l41 388h591v180h-747z" />
    <glyph glyph-name="six" unicode="6" 
d="M856 1457l-16 0.00195312c-104 0 -197 -14.5 -279 -43.5s-151.667 -72.167 -209 -129.5c-83.333 -83.333 -139.333 -183.666 -168 -300.999s-43 -236.666 -43 -357.999v-87c0 -70.667 10.667 -141.167 32 -211.5s53.666 -131.833 96.999 -184.5
c38.667 -48 86.334 -87 143.001 -117s122.334 -45 197.001 -45c74 0 139.167 13 195.5 39s103.5 61.667 141.5 107c38 44.667 66.5 97 85.5 157s28.5 124 28.5 192c0 59.333 -8 117.666 -24 174.999s-41 108.666 -75 153.999s-77.333 81.833 -130 109.5
s-115.334 41.5 -188.001 41.5c-33.333 0 -65.166 -3.83301 -95.499 -11.5s-58.5 -17.834 -84.5 -30.501c-26.667 -13.333 -51.334 -28.833 -74.001 -46.5s-42.667 -36.834 -60 -57.501c4 64 16.833 126.333 38.5 187s53.5 113 95.5 157c40 42 90.667 75.5 152 100.5
s136 37.5 224 37.5h16v166zM614 801.002c44.667 0 83.6699 -9.33398 117.003 -28.001s61 -43.667 83 -75s38.333 -67.166 49 -107.499s16 -81.833 16 -124.5c0 -48 -5.83301 -92.5 -17.5 -133.5s-28.834 -76.167 -51.501 -105.5
c-23.333 -29.333 -51.666 -52.333 -84.999 -69s-71.666 -25 -114.999 -25c-37.333 0 -73 8.83301 -107 26.5s-64 43.5 -90 77.5s-46.667 75.833 -62 125.5s-23 106.5 -23 170.5v62c11.333 30.667 26.666 58.667 45.999 84s41.666 47 66.999 65s52.666 32 81.999 42
s59.666 15 90.999 15z" />
    <glyph glyph-name="seven" unicode="7" 
d="M1096 1352v104h-984v-162h788l-601 -1294h194z" />
    <glyph glyph-name="eight" unicode="8" 
d="M1070 1076c0 63.333 -10.999 119.834 -32.999 169.501s-52.333 91.5 -91 125.5s-84.334 60 -137.001 78s-109.667 27 -171 27c-62 0 -119.167 -9 -171.5 -27s-97.166 -44 -134.499 -78c-38 -34 -67.667 -75.833 -89 -125.5s-32 -106.167 -32 -169.5
c0 -36 5 -70.333 15 -103s24 -62.667 42 -90c18 -28 40 -53.167 66 -75.5s55 -41.5 87 -57.5c-37.333 -16 -71 -36 -101 -60s-55.667 -51 -77 -81c-21.333 -30.667 -37.666 -64.167 -48.999 -100.5s-17 -74.833 -17 -115.5c0 -66.667 12 -125.667 36 -177
s57 -94.333 99 -129c41.333 -35.333 90.166 -62 146.499 -80s117.166 -27 182.499 -27c64 0 124 9.16699 180 27.5s105 45.166 147 80.499c41.333 34.667 74.166 77.667 98.499 129s36.5 110 36.5 176c0 40.667 -5.83301 79 -17.5 115s-28.167 69.333 -49.5 100
c-22 30.667 -48.167 57.834 -78.5 81.501s-64.166 43.5 -101.499 59.5c21.333 10.667 41.333 22.667 60 36s35.667 27.666 51 42.999c32 32 57 69.167 75 111.5s27.333 87.833 28 136.5zM918.001 397.001c0 -42 -6.83398 -79.5 -20.501 -112.5s-32.5 -60.833 -56.5 -83.5
c-24.667 -22.667 -54 -40 -88 -52s-71.333 -18 -112 -18c-42.667 0 -81.167 6 -115.5 18s-63.5 29.333 -87.5 52s-42.5 50.5 -55.5 83.5s-19.5 70.5 -19.5 112.5c0 40.667 6.5 78 19.5 112s31.5 63.333 55.5 88c24 24 53 42.667 87 56s72 20 114 20
c40.667 0 78.167 -6.66699 112.5 -20s63.833 -32 88.5 -56c24.667 -24.667 43.834 -54 57.501 -88s20.5 -71.333 20.5 -112zM884 1073c0 -37.333 -5.99805 -71.3301 -17.998 -101.997s-28.667 -56.667 -50 -78c-22 -22 -48 -38.833 -78 -50.5s-62.667 -17.5 -98 -17.5
c-36 0 -68.833 5.83301 -98.5 17.5s-55.167 28.5 -76.5 50.5c-22 21.333 -38.833 47.166 -50.5 77.499s-17.5 64.5 -17.5 102.5s5.83301 72.5 17.5 103.5s28.167 57.5 49.5 79.5s46.666 38.833 75.999 50.5s62 17.5 98 17.5s69 -6.16699 99 -18.5s56 -29.5 78 -51.5
c21.333 -22.667 38.166 -49.334 50.499 -80.001s18.5 -64.334 18.5 -101.001z" />
    <glyph glyph-name="nine" unicode="9" 
d="M373 164l-19.002 -0.00195312v-165h19c120 0 221.833 16.5 305.5 49.5s149.167 76.167 196.5 129.5c78.667 88 130 188.833 154 302.5s36 226.834 36 339.501v67c0 79.333 -11 158.833 -33 238.5s-55 146.167 -99 199.5c-37.333 45.333 -83.5 81.833 -138.5 109.5
s-119.833 41.5 -194.5 41.5s-140.167 -13.5 -196.5 -40.5s-103.166 -63.167 -140.499 -108.5c-38 -46 -66.5 -99.5 -85.5 -160.5s-28.5 -125.833 -28.5 -194.5c0 -58.667 8 -117 24 -175s41 -110 75 -156s77.167 -83.167 129.5 -111.5s114.5 -42.5 186.5 -42.5
c37.333 0 71.833 3.83301 103.5 11.5s60.5 18.167 86.5 31.5s49.333 28.833 70 46.5s39 36.5 55 56.5v-2c-3.33301 -61.333 -13 -120.666 -29 -177.999s-47 -111 -93 -161c-38 -40.667 -88.167 -72.167 -150.5 -94.5s-140.166 -33.5 -233.499 -33.5zM593.998 639.998
c-44.667 0 -83.498 9.83398 -116.498 29.501s-60.167 45.5 -81.5 77.5c-22 32 -38.333 68.5 -49 109.5s-16 82.833 -16 125.5c0 48 6 92.833 18 134.5s29.667 77.834 53 108.501c22.667 30 50.667 53.667 84 71s71.666 26 114.999 26c38 0 73.833 -9.33301 107.5 -28
s63.5 -45.334 89.5 -80.001c25.333 -35.333 45.5 -78.333 60.5 -129s22.5 -108.334 22.5 -173.001v-60c-11.333 -31.333 -26.833 -59.833 -46.5 -85.5s-41.834 -47.834 -66.501 -66.501c-25.333 -19.333 -52.833 -34.166 -82.5 -44.499s-60.167 -15.5 -91.5 -15.5z" />
    <glyph glyph-name="colon" unicode=":" 
d="M546 120c0 -38.667 12.168 -71.5 36.501 -98.5s60.5 -40.5 108.5 -40.5c47.333 0 83.666 13.333 108.999 40s38 59.667 38 99c0 40 -12.5 73.833 -37.5 101.5s-61.5 41.5 -109.5 41.5c-48.667 0 -85 -14 -109 -42s-36 -61.667 -36 -101zM546.001 996
c0 -38.667 12.168 -71.5 36.501 -98.5s60.5 -40.5 108.5 -40.5c47.333 0 83.666 13.333 108.999 40s38 59.667 38 99c0 40 -12.5 73.833 -37.5 101.5s-61.5 41.5 -109.5 41.5c-48.667 0 -85 -14 -109 -42s-36 -61.667 -36 -101z" />
    <glyph glyph-name="semicolon" unicode=";" 
d="M537 996c0 -38.667 12.168 -71.5 36.501 -98.5s60.5 -40.5 108.5 -40.5c47.333 0 83.666 13.333 108.999 40s38 59.667 38 99c0 40 -12.5 73.833 -37.5 101.5s-61.5 41.5 -109.5 41.5c-48.667 0 -85 -14 -109 -42s-36 -61.667 -36 -101zM775.001 43l0.000976562 176.003
h-201v-179c0 -56.667 -6.66699 -111.334 -20 -164.001s-36 -102.334 -68 -149.001l115 -63c53.333 47.333 95.666 105.666 126.999 174.999s47 137.333 47 204z" />
    <glyph glyph-name="less" unicode="&#x3c;" 
d="M1018 196v196l-612 236l-53 18l53 17l612 240v196l-848 -378v-146z" />
    <glyph glyph-name="equal" unicode="=" 
d="M1066 780v161h-893v-161h893zM1066 365v160h-893v-160h893z" />
    <glyph glyph-name="greater" unicode="&#x3e;" 
d="M178 197l883 379v146l-883 378v-191l647 -240l60 -19l-60 -17l-647 -244v-192z" />
    <glyph glyph-name="question" unicode="?" 
d="M511 410l185.002 0.00195312c0 26 0.666992 49.167 2 69.5s4.66602 39.5 9.99902 57.5s13.5 35.667 24.5 53s26.5 35.666 46.5 54.999c31.333 28 63.166 58.333 95.499 91s61.5 68 87.5 106c26 37.333 47.333 77.166 64 119.499s25 87.5 25 135.5
c0 60 -9.66699 113.333 -29 160s-47.333 86.334 -84 119.001s-81.5 57.5 -134.5 74.5s-113.167 25.5 -180.5 25.5c-60.667 0 -117.167 -8.16699 -169.5 -24.5s-97.5 -39.833 -135.5 -70.5c-38.667 -31.333 -69.334 -69.333 -92.001 -114s-34.334 -95 -35.001 -151h185
c0 34.667 7 64.5 21 89.5s32.667 45.833 56 62.5c22.667 16 48.834 27.833 78.501 35.5s60.167 11.5 91.5 11.5c40.667 0 76.667 -5.33301 108 -16s57.333 -26.334 78 -47.001c18.667 -18.667 32.834 -41.5 42.501 -68.5s14.5 -57.833 14.5 -92.5
c0 -33.333 -6.33301 -65 -19 -95s-28.667 -58.333 -48 -85c-20 -27.333 -41.833 -53.333 -65.5 -78l-69.5 -72c-33.333 -30.667 -60 -57.167 -80 -79.5s-35.333 -45.5 -46 -69.5c-10.667 -24.667 -17.667 -52.5 -21 -83.5s-5.33301 -70.5 -6 -118.5zM490.002 97.002
c0 -30.667 9.5 -56.334 28.5 -77.001s47.5 -31 85.5 -31s66.833 10.333 86.5 31s29.5 46.334 29.5 77.001c0 32 -9.83301 58.667 -29.5 80s-48.5 32 -86.5 32s-66.5 -10.667 -85.5 -32s-28.5 -48 -28.5 -80z" />
    <glyph glyph-name="at" unicode="@" 
d="M1159 789c2.66699 100.667 -6.67383 192.162 -28.0068 274.495s-53.333 152.833 -96 211.5c-43.333 58.667 -96.666 103.834 -159.999 135.501s-135.666 47.5 -216.999 47.5c-83.333 0 -159.5 -19 -228.5 -57s-128.833 -90.333 -179.5 -157
c-53.333 -70 -95.833 -153 -127.5 -249s-49.5 -197.333 -53.5 -304c-3.33301 -102 4.83398 -195.833 24.501 -281.5s51.834 -159.5 96.501 -221.5c44 -62 101.167 -110.167 171.5 -144.5s154.5 -51.5 252.5 -51.5c21.333 0 44 1.5 68 4.5s47.667 7.83301 71 14.5
c23.333 6 45.666 13.667 66.999 23s40.333 20.333 57 33l-32 117c-14.667 -10 -31 -19 -49 -27s-37 -14.667 -57 -20c-20 -6 -40.333 -10.5 -61 -13.5s-41 -4.5 -61 -4.5c-74.667 0 -139.5 12.833 -194.5 38.5s-100.167 63.167 -135.5 112.5
c-35.333 48.667 -61 108.334 -77 179.001s-22.333 151.334 -19 242.001c2.66699 96.667 16.334 185.5 41.001 266.5s59.334 150.167 104.001 207.5c42 53.333 89.5 94.5 142.5 123.5s111.833 43.5 176.5 43.5c64 0 121 -12.333 171 -37s92.333 -60.334 127 -107.001
c34 -46.667 59.333 -103.667 76 -171s23.667 -143.333 21 -228c-0.666992 -48.667 -4.33398 -94.667 -11.001 -138s-16.334 -81 -29.001 -113c-12.667 -32.667 -28.5 -58.5 -47.5 -77.5s-40.833 -28.5 -65.5 -28.5c-10.667 0 -20.667 1.66699 -30 5s-17 10 -23 20
c-6.66699 9.33301 -11.667 22.5 -15 39.5s-4 39.167 -2 66.5l44 504c-17.333 24 -40.666 44.833 -69.999 62.5s-66.333 26.5 -111 26.5c-47.333 0 -90.666 -11.167 -129.999 -33.5s-73.666 -54.166 -102.999 -95.499c-30 -42 -54.333 -92.833 -73 -152.5
s-31 -126.5 -37 -200.5c-4 -52 -3.16699 -99.667 2.5 -143s16.167 -80.666 31.5 -111.999c14.667 -31.333 34 -55.666 58 -72.999s52.333 -26 85 -26c22.667 0 44.334 3.33301 65.001 10s40 16 58 28c14.667 10.667 28.5 23 41.5 37s24.833 29.333 35.5 46
c4.66699 -16 10.667 -30.5 18 -43.5s16 -24.5 26 -34.5c14 -14 30.667 -24.667 50 -32s41 -11 65 -11c49.333 0 91 14.333 125 43s62 65.667 84 111c21.333 45.333 37.333 95.833 48 151.5s17 110.167 19 163.5zM469.992 673.995
c5.33301 54.667 13.501 104.167 24.501 148.5s25.5 82.166 43.5 113.499c18 30.667 40.167 54.5 66.5 71.5s57.166 25.5 92.499 25.5c10 0 19.833 -1 29.5 -3s19.167 -5.33301 28.5 -10l-38 -435l-1 -10c-7.33301 -16 -15.333 -30.167 -24 -42.5
s-17.667 -23.166 -27 -32.499c-15.333 -14.667 -32.166 -25.334 -50.499 -32.001s-37.5 -10 -57.5 -10c-16 0 -29.833 4.83301 -41.5 14.5s-21.167 23.834 -28.5 42.501c-7.33301 18 -12.333 40.5 -15 67.5s-3.33398 57.5 -2.00098 91.5z" />
    <glyph glyph-name="A" unicode="A" 
d="M869 377l115 -377h184l-462 1456h-155l-470 -1456h185l117 377h486zM433 538l195 632l192 -632h-387z" />
    <glyph glyph-name="B" unicode="B" 
d="M172 0l465.999 0.000976562c62 0.666992 122.167 10.334 180.5 29.001s109.833 45.667 154.5 81c44.667 34.667 80.334 78 107.001 130s39.667 112 39 180c0 43.333 -6.5 83.666 -19.5 120.999s-31.167 71 -54.5 101c-22 27.333 -50 52.333 -84 75
s-69.333 38.334 -106 47.001v3c35.333 15.333 65.5 31.666 90.5 48.999s47.833 38.666 68.5 63.999c20 24.667 35.833 52.667 47.5 84s17.834 66 18.501 104c0.666992 68 -12.333 126.333 -39 175s-62.334 88.667 -107.001 120s-95.667 54.5 -153 69.5
s-116 22.833 -176 23.5h-433v-1456zM357.999 681.001h295.005c39.333 -1.33301 76 -8 110 -20s63.667 -29 89 -51c25.333 -22.667 45.166 -50 59.499 -82s21.166 -68.667 20.499 -110c0 -40.667 -7.83301 -77 -23.5 -109s-36.834 -59 -63.501 -81
s-57.334 -39.167 -92.001 -51.5s-71.334 -18.833 -110.001 -19.5h-285v524zM358.004 835.001v463.003h253c36 -0.666992 71.167 -5.33398 105.5 -14.001s64.833 -22 91.5 -40c26 -18.667 46.833 -42.334 62.5 -71.001s23.5 -63.334 23.5 -104.001c0 -38 -8 -71.333 -24 -100
s-37 -52.667 -63 -72c-26 -20 -55.667 -35.167 -89 -45.5s-67.333 -15.833 -102 -16.5h-258z" />
    <glyph glyph-name="C" unicode="C" 
d="M1117 438l-185 0.000976562c-6 -44 -16.333 -84.833 -31 -122.5s-34.334 -70.167 -59.001 -97.5c-24.667 -28 -54.834 -49.667 -90.501 -65s-77.834 -23 -126.501 -23c-44.667 0 -83.667 7.16699 -117 21.5s-62.333 34.166 -87 59.499
c-24.667 24.667 -45 53.334 -61 86.001s-29 67.667 -39 105c-10 36.667 -17.167 74.167 -21.5 112.5s-6.5 75.5 -6.5 111.5v205c0 36 2.16699 73.167 6.5 111.5s11.5 75.833 21.5 112.5s23.167 71.334 39.5 104.001s36.833 61.334 61.5 86.001
c24 24.667 52.833 44.167 86.5 58.5s72.5 21.5 116.5 21.5c48.667 0 90.834 -8.16699 126.501 -24.5s65.834 -38.833 90.501 -67.5s44.334 -62 59.001 -100s25 -79 31 -123h185c-8 69.333 -24.5 132.666 -49.5 189.999s-58.167 106.666 -99.5 147.999
c-41.333 40.667 -90.666 72.167 -147.999 94.5s-122.333 33.5 -195 33.5c-60.667 0 -115.334 -8.5 -164.001 -25.5s-92 -40.5 -130 -70.5c-38.667 -30 -71.834 -65.5 -99.501 -106.5s-50.5 -85.5 -68.5 -133.5c-18.667 -48 -32.5 -98.333 -41.5 -151
s-13.833 -106 -14.5 -160v-203c0.666992 -54 5.5 -107.333 14.5 -160s22.833 -103 41.5 -151c18 -48 40.833 -92.333 68.5 -133s60.834 -76 99.501 -106c38 -30 81.5 -53.5 130.5 -70.5s103.5 -25.5 163.5 -25.5c70 0 133.5 11.167 190.5 33.5s106.5 53.833 148.5 94.5
c41.333 40 75 88.167 101 144.5s43.333 118.166 52 185.499z" />
    <glyph glyph-name="D" unicode="D" 
d="M155 0l337.001 -0.000976562c70 0.666992 135.167 9 195.5 25s114.5 39 162.5 69c45.333 28.667 86.333 63.334 123 104.001s67 86 91 136c23.333 48 41.166 100.667 53.499 158s18.5 118 18.5 182v107c-0.666992 66.667 -7.5 129.334 -20.5 188.001
s-31.833 112.667 -56.5 162c-27.333 58 -63.833 109.167 -109.5 153.5s-98.167 80.166 -157.5 107.499c-42.667 20 -89.167 35.5 -139.5 46.5s-103.833 16.833 -160.5 17.5h-337v-1456zM343.001 1304l149 0.00292969c46 -0.666992 88.333 -5.83398 127 -15.501
s73.667 -23.167 105 -40.5c44 -23.333 81.167 -53.833 111.5 -91.5s54.5 -79.834 72.5 -126.501c14 -36 24.5 -74.833 31.5 -116.5s10.833 -85.167 11.5 -130.5v-109c-0.666992 -44.667 -4.33398 -87.5 -11.001 -128.5s-16.667 -79.167 -30 -114.5
c-15.333 -43.333 -36.166 -82.5 -62.499 -117.5s-57.5 -64.5 -93.5 -88.5c-34 -23.333 -72.833 -41.333 -116.5 -54s-92.167 -19.334 -145.5 -20.001h-149v1153z" />
    <glyph glyph-name="E" unicode="E" 
d="M975 673v157h-608v468h700v158h-885v-1456h894v157h-709v516h608z" />
    <glyph glyph-name="F" unicode="F" 
d="M984 643v157h-606v498h707v158h-894v-1456h187v643h606z" />
    <glyph glyph-name="G" unicode="G" 
d="M1116 191l-2.99902 534.001h-472v-156h296l-2 -327c-15.333 -22 -34.333 -39.833 -57 -53.5s-47 -24.5 -73 -32.5s-52.833 -13.333 -80.5 -16s-54.167 -3.66699 -79.5 -3c-44 0.666992 -83.333 8.5 -118 23.5s-65 35.167 -91 60.5
c-26.667 25.333 -49.334 54.666 -68.001 87.999s-34 68.666 -46 105.999s-20.833 75.5 -26.5 114.5s-8.83398 76.833 -9.50098 113.5v171c0 36 2.33301 73.333 7 112s12.334 76.667 23.001 114s24.334 72.833 41.001 106.5s37.667 63.167 63 88.5s55 45.5 89 60.5
s73 22.5 117 22.5c46 0 86.333 -7.16699 121 -21.5s64.667 -34.166 90 -59.499c24.667 -25.333 44.667 -55.833 60 -91.5s26.666 -74.5 33.999 -116.5h183c-6 68 -22 129.5 -48 184.5s-60.333 102.167 -103 141.5c-42.667 38.667 -92.667 68.5 -150 89.5
s-120 31.5 -188 31.5c-61.333 0 -116.666 -9 -165.999 -27s-93.333 -42.333 -132 -73c-39.333 -31.333 -73 -68.166 -101 -110.499s-51.333 -88.166 -70 -137.499s-32.5 -100.833 -41.5 -154.5s-13.833 -107.5 -14.5 -161.5v-169
c0.666992 -54.667 6.16699 -108.834 16.5 -162.501s25.833 -104.834 46.5 -153.501c20 -49.333 45 -95 75 -137s65 -78.333 105 -109c40 -31.333 85.167 -55.833 135.5 -73.5s105.5 -26.834 165.5 -27.501c59.333 -0.666992 116 5.83301 170 19.5s104.333 34.5 151 62.5
c27.333 16 53.666 34.833 78.999 56.5s49.333 45.834 72 72.501z" />
    <glyph glyph-name="H" unicode="H" 
d="M1087 0v1456h-175v-626h-597v626h-174v-1456h174v673h597v-673h175z" />
    <glyph glyph-name="I" unicode="I" 
d="M174 1456v-161h341v-1135h-341v-160h880v160h-349v1135h349v161h-880z" />
    <glyph glyph-name="J" unicode="J" 
d="M857 1456l0.000976562 -1013c-1.33301 -41.333 -8.5 -80.5 -21.5 -117.5s-31.5 -69.5 -55.5 -97.5c-24.667 -28 -54.334 -50.167 -89.001 -66.5s-74 -24.5 -118 -24.5c-42.667 0 -81.167 7 -115.5 21s-63.833 34 -88.5 60c-24.667 25.333 -44.167 55.333 -58.5 90
s-22.5 72.334 -24.5 113.001h-188c6 -67.333 21.333 -128.166 46 -182.499s57.667 -100.5 99 -138.5c40.667 -38.667 88.834 -68.334 144.501 -89.001s117.5 -31 185.5 -31c67.333 0 129.5 11.5 186.5 34.5s106.5 55.167 148.5 96.5c42 40.667 75.167 89.334 99.5 146.001
s37.166 118.667 38.499 186v1013h-189z" />
    <glyph glyph-name="K" unicode="K" 
d="M523 676l440 -676h225l-543 819l509 637h-225l-427 -535l-141 -176v711h-189v-1456h189v492z" />
    <glyph glyph-name="L" unicode="L" 
d="M383 157v1299h-185v-1456h897v157h-712z" />
    <glyph glyph-name="M" unicode="M" 
d="M377 1456h-229v-1456h180v581l-15 587l247 -763h106l269 784l-15 -608v-581h180v1456h-230l-256 -728z" />
    <glyph glyph-name="N" unicode="N" 
d="M1086 0v1456h-187l-3 -1086l-565 1086h-188v-1456h187l3 1088l565 -1088h188z" />
    <glyph glyph-name="O" unicode="O" 
d="M1121 644l0.00195312 166.001c-0.666992 52 -5.16699 104.667 -13.5 158s-21.166 104.666 -38.499 153.999c-18 49.333 -40.5 95.5 -67.5 138.5s-59.167 80.5 -96.5 112.5s-80.333 57.167 -129 75.5s-103 27.5 -163 27.5s-114.167 -9.16699 -162.5 -27.5
s-91.166 -43.5 -128.499 -75.5c-37.333 -32.667 -69.5 -70.5 -96.5 -113.5s-49.167 -89.167 -66.5 -138.5c-18 -49.333 -31.167 -100.5 -39.5 -153.5s-12.833 -105.5 -13.5 -157.5v-166c0.666992 -52 5.33398 -104.333 14.001 -157s22 -103.667 40 -153
c17.333 -49.333 39.666 -95.5 66.999 -138.5s59.666 -80.5 96.999 -112.5s80.166 -57.167 128.499 -75.5s102.5 -27.5 162.5 -27.5s114.167 9.16699 162.5 27.5s91.166 43.5 128.499 75.5s69.5 69.333 96.5 112s49.167 88.667 66.5 138s30.166 100.5 38.499 153.5
s12.833 105.5 13.5 157.5zM938.002 812.001v-167.998c-0.666992 -34.667 -2.83398 -71 -6.50098 -109s-10.167 -75.333 -19.5 -112c-10 -37.333 -22.833 -72.833 -38.5 -106.5s-35.167 -63.167 -58.5 -88.5c-24 -26 -52.5 -46.667 -85.5 -62s-71.167 -23 -114.5 -23
s-81.333 7.66699 -114 23s-61 36 -85 62c-24 25.333 -44 55 -60 89s-29 69.667 -39 107c-10 36.667 -17.167 74 -21.5 112s-6.83301 74 -7.5 108v168c0.666992 34 3.16699 69.833 7.5 107.5s11.5 75.167 21.5 112.5c9.33301 36.667 22 71.834 38 105.501s36 63.5 60 89.5
c24 25.333 52.333 45.666 85 60.999s70.334 23 113.001 23c43.333 0 81.333 -7.5 114 -22.5s61 -35.167 85 -60.5c24 -26 44 -55.833 60 -89.5s29 -68.834 39 -105.501c9.33301 -37.333 16 -74.833 20 -112.5s6.33301 -73.834 7 -108.501z" />
    <glyph glyph-name="P" unicode="P" 
d="M376 584h287c65.333 0.666992 127.166 10.667 185.499 30s109.5 47.333 153.5 84s78.833 81.834 104.5 135.501s38.5 115.5 38.5 185.5s-12.833 132 -38.5 186s-60.5 99.333 -104.5 136s-95.167 64.667 -153.5 84s-120.166 29.666 -185.499 30.999h-472v-1456h185v584z
M376 736v568h287c42.667 -0.666992 82.167 -7.66699 118.5 -21s67.833 -32.333 94.5 -57c26 -24.667 46.5 -54.667 61.5 -90s22.5 -75 22.5 -119s-7.5 -83.167 -22.5 -117.5s-35.833 -63.5 -62.5 -87.5s-58 -42.5 -94 -55.5s-75.333 -19.833 -118 -20.5h-287z" />
    <glyph glyph-name="Q" unicode="Q" 
d="M1134 663v127.998c-0.666992 53.333 -5.33398 107.5 -14.001 162.5s-21.667 107.833 -39 158.5c-18 50.667 -40.833 98.167 -68.5 142.5s-60.5 82.833 -98.5 115.5c-38.667 32.667 -82.834 58.5 -132.501 77.5s-105.5 28.5 -167.5 28.5s-117.833 -9.5 -167.5 -28.5
s-93.5 -44.833 -131.5 -77.5c-38.667 -33.333 -71.667 -72.166 -99 -116.499s-50 -91.833 -68 -142.5s-31.333 -103.334 -40 -158.001s-13.334 -108.667 -14.001 -162v-128c0.666992 -53.333 5.33398 -107.166 14.001 -161.499s22 -106.833 40 -157.5s41 -98.167 69 -142.5
s61.333 -82.833 100 -115.5c38 -32.667 81.667 -58.5 131 -77.5s105 -28.5 167 -28.5c24 0 47.167 1.5 69.5 4.5s43.833 7.5 64.5 13.5l288 -244l127 121l-251 209c38.667 32.667 71.834 71.167 99.501 115.5s50.5 91.833 68.5 142.5
c17.333 50.667 30.333 103.334 39 158.001s13.334 109 14.001 163zM950 792.998l-0.000976562 -129.999c-0.666992 -36.667 -2.83398 -74.834 -6.50098 -114.501s-10.167 -78.834 -19.5 -117.501c-10 -38.667 -23 -75.334 -39 -110.001s-36.333 -65 -61 -91
c-24.667 -26.667 -54.167 -47.834 -88.5 -63.501s-74.5 -23.5 -120.5 -23.5c-45.333 0 -85.166 7.83301 -119.499 23.5s-63.833 36.834 -88.5 63.501s-45.167 57.334 -61.5 92.001s-29.5 71.334 -39.5 110.001s-17.167 77.834 -21.5 117.501s-6.5 77.5 -6.5 113.5v130
c0 36 2.16699 73.833 6.5 113.5s11.5 78.834 21.5 117.501c10 38 23.167 74.333 39.5 109s36.833 65.334 61.5 92.001c24.667 26 54 46.833 88 62.5s73.667 23.5 119 23.5c46 0 86.167 -7.66699 120.5 -23s63.833 -36 88.5 -62c24.667 -26.667 45.167 -57.334 61.5 -92.001
s29.5 -71 39.5 -109c9.33301 -38.667 15.833 -77.834 19.5 -117.501s5.83398 -77.834 6.50098 -114.501z" />
    <glyph glyph-name="R" unicode="R" 
d="M656 594l286.001 -593.998h195l1 12l-309 622c40 17.333 76.667 38.333 110 63s62 53 86 85s42.833 67.667 56.5 107s20.5 82.666 20.5 129.999c0 73.333 -12.833 137.166 -38.5 191.499s-60.834 99.5 -105.501 135.5c-45.333 36 -98 63 -158 81s-124 27.667 -192 29
h-427v-1456h184v594h291zM365.001 746.002v557.999h243c44.667 -0.666992 85.834 -7 123.501 -19s70.167 -29.667 97.5 -53c27.333 -24 48.666 -53.5 63.999 -88.5s23 -75.833 23 -122.5c0 -44 -8 -82.833 -24 -116.5s-37.667 -62.167 -65 -85.5
c-28 -23.333 -60.333 -41.166 -97 -53.499s-75.667 -18.833 -117 -19.5h-248z" />
    <glyph glyph-name="S" unicode="S" 
d="M936 368c0 -40 -8.66699 -74.499 -26 -103.499s-39.666 -52.833 -66.999 -71.5c-27.333 -19.333 -58.5 -33.5 -93.5 -42.5s-70.5 -13.5 -106.5 -13.5c-45.333 0 -87.166 6.16699 -125.499 18.5s-72.166 30.833 -101.499 55.5c-29.333 24 -53.333 53.5 -72 88.5
s-31 75.167 -37 120.5h-189c2 -62.667 15.833 -119.5 41.5 -170.5s60.5 -95.5 104.5 -133.5c49.333 -44 107.5 -77.667 174.5 -101s135.167 -35 204.5 -35c58 0 116 8.16699 174 24.5s110 40.833 156 73.5c46 32 83.5 72.333 112.5 121s43.5 105.667 43.5 171
c0 64.667 -13.5 121.667 -40.5 171s-62.5 91 -106.5 125c-44.667 36.667 -94 66.834 -148 90.501s-108 43.834 -162 60.501c-32.667 10 -67.5 21.667 -104.5 35s-71.167 30 -102.5 50c-32 20 -58.333 44.5 -79 73.5s-31.334 64.5 -32.001 106.5
c0 38.667 7.83301 72.667 23.5 102s36.834 54 63.501 74c26 20 55.833 35 89.5 45s68.167 15 103.5 15c44 0 83.5 -6.83301 118.5 -20.5s65.167 -32.834 90.5 -57.501s45.666 -54.167 60.999 -88.5s25.666 -72.5 30.999 -114.5h190c-1.33301 66.667 -15.666 127 -42.999 181
s-63.666 100 -108.999 138s-97.333 67.5 -156 88.5s-119.667 31.5 -183 31.5c-57.333 0 -114.333 -8.83301 -171 -26.5s-107.334 -43.5 -152.001 -77.5s-80.834 -75.667 -108.501 -125s-41.5 -105.333 -41.5 -168s13.833 -117.167 41.5 -163.5s63.5 -86.5 107.5 -120.5
c43.333 -33.333 91.5 -61.833 144.5 -85.5s105.167 -43.834 156.5 -60.501c35.333 -11.333 72.166 -24 110.499 -38s73.5 -31.333 105.5 -52c32 -21.333 58.167 -47.333 78.5 -78s30.5 -68.334 30.5 -113.001z" />
    <glyph glyph-name="T" unicode="T" 
d="M1156 1298v158h-1080v-158h450v-1298h180v1298h450z" />
    <glyph glyph-name="U" unicode="U" 
d="M1088 1456l-179 -0.00292969l-3 -986c-1.33301 -43.333 -8.33301 -85 -21 -125s-31 -75.333 -55 -106c-24.667 -31.333 -55 -56.166 -91 -74.499s-77.667 -27.5 -125 -27.5s-89.166 9.33301 -125.499 28s-66.5 43.334 -90.5 74.001c-24.667 30.667 -43.5 66 -56.5 106
s-19.833 81.667 -20.5 125l-4 986h-176l-2 -986c0.666992 -68 12.667 -131.833 36 -191.5s55.666 -111.5 96.999 -155.5c41.333 -44.667 91 -79.667 149 -105s122.333 -38 193 -38c69.333 0 133 12.833 191 38.5s108 60.834 150 105.501c42 44 75 95.667 99 155
s36 123 36 191z" />
    <glyph glyph-name="V" unicode="V" 
d="M531 0h161l459 1456h-197l-322 -1085l-22 -73l-21 71l-320 1087h-198z" />
    <glyph glyph-name="W" unicode="W" 
d="M250 0h190l178 1035l11 62l10 -61l177 -1036h189l177 1456h-175l-105 -1002l-6 -60l-11 59l-177 1003h-161l-176 -1002l-11 -60l-6 58l-105 1004h-176z" />
    <glyph glyph-name="X" unicode="X" 
d="M625 885l-310 571h-217l423 -722l-434 -734h219l323 582l322 -582h216l-433 734l423 722h-218z" />
    <glyph glyph-name="Y" unicode="Y" 
d="M603 725l-331 731h-211l453 -913l3 -543h172l3 543l453 913h-210z" />
    <glyph glyph-name="Z" unicode="Z" 
d="M325 157l727 1158l-2 141h-923v-158h712l-725 -1154l2 -144h963v157h-754z" />
    <glyph glyph-name="bracketleft" unicode="[" 
d="M822 1512v152h-396v-1976h396v152h-221v1672h221z" />
    <glyph glyph-name="backslash" unicode="\" 
d="M231 1456l608 -1581h167l-608 1581h-167z" />
    <glyph glyph-name="bracketright" unicode="]" 
d="M405 1664v-152h222v-1672h-222v-152h397v1976h-397z" />
    <glyph glyph-name="asciicircum" unicode="^" 
d="M231 677h172l195 486l15 68l15 -68l198 -486h171l-319 779h-127z" />
    <glyph glyph-name="underscore" unicode="_" 
d="M1072 -151v151h-917v-151h917z" />
    <glyph glyph-name="grave" unicode="`" 
d="M813 1215l-175 266h-223l248 -266h150z" />
    <glyph glyph-name="a" unicode="a" 
d="M885 0h193.004v16c-12 30 -21.333 65.167 -28 105.5s-10 78.5 -10 114.5v503c0 60.667 -11 113.667 -33 159s-52 83.333 -90 114c-38.667 30 -84.334 52.5 -137.001 67.5s-109.667 22.5 -171 22.5c-67.333 0 -127.5 -9.33301 -180.5 -28s-97.833 -43 -134.5 -73
c-37.333 -30.667 -65.833 -65 -85.5 -103s-29.834 -76.667 -30.501 -116h186c0 22.667 5.5 44.5 16.5 65.5s26.5 39.167 46.5 54.5s44.5 27.666 73.5 36.999s61.833 14 98.5 14c39.333 0 74.833 -5 106.5 -15s58.5 -24 80.5 -42c22 -18.667 39 -41 51 -67s18 -55.333 18 -88
v-85h-202c-75.333 0 -143.5 -7.33301 -204.5 -22s-113.167 -36.667 -156.5 -66c-43.333 -30 -76.833 -67.333 -100.5 -112s-35.5 -96.667 -35.5 -156c0 -45.333 8.83301 -87.5 26.5 -126.5s42.834 -72.5 75.501 -100.5c32 -28.667 71.167 -51.334 117.5 -68.001
s98.166 -25 155.499 -25c35.333 0 68.666 3.66699 99.999 11s61 17.333 89 30c27.333 12.667 52.5 27.334 75.5 44.001s43.833 34.334 62.5 53.001c2 -22.667 5.16699 -44.5 9.5 -65.5s10.166 -38.5 17.499 -52.5zM558.004 141c-36 0 -67.666 4.66504 -94.999 13.998
s-50 22.333 -68 39c-18 16 -31.5 35.333 -40.5 58s-13.5 47.334 -13.5 74.001c0 28 5.16699 53 15.5 75s25.5 41 45.5 57c28 22.667 65.833 39.5 113.5 50.5s103.5 16.5 167.5 16.5h172v-219c-10.667 -21.333 -25.334 -41.833 -44.001 -61.5s-40.667 -37.167 -66 -52.5
c-26 -15.333 -54.667 -27.666 -86 -36.999s-65 -14 -101 -14z" />
    <glyph glyph-name="b" unicode="b" 
d="M1091 529l0.000976562 21.001c0 56.667 -4.66699 110.5 -14 161.5s-23 97.5 -41 139.5c-17.333 37.333 -37.333 71.166 -60 101.499s-48.334 56.166 -77.001 77.499c-32 22.667 -67.667 40.334 -107 53.001s-82.333 19 -129 19c-37.333 0 -72 -3.66699 -104 -11
s-61.333 -18 -88 -32c-21.333 -11.333 -41.333 -24.833 -60 -40.5s-35.667 -33.167 -51 -52.5v570h-185v-1536h170l9 123c12 -15.333 24.667 -29.333 38 -42s27.333 -24.334 42 -35.001c30.667 -21.333 65.167 -37.666 103.5 -48.999s80.833 -17 127.5 -17
c40.667 0 78.5 5 113.5 15s67.167 24 96.5 42c40.667 26 75.5 58.833 104.5 98.5s52.5 84.5 70.5 134.5c13.333 38 23.5 78.833 30.5 122.5s10.5 89.167 10.5 136.5zM906.001 550.001v-20.9951c0 -32 -2 -63.333 -6 -94s-10.333 -59.334 -19 -86.001
c-10.667 -35.333 -25 -67.333 -43 -96s-40.333 -52.334 -67 -71.001c-20 -14.667 -42.667 -25.834 -68 -33.501s-53.333 -11.5 -84 -11.5c-32 0 -61.333 4.16699 -88 12.5s-50.667 20.166 -72 35.499s-40.166 33.166 -56.499 53.499s-30.5 42.5 -42.5 66.5v473
c11.333 24 25.166 46.167 41.499 66.5s35.166 38.166 56.499 53.499c20.667 14.667 44.334 26.167 71.001 34.5s56 12.5 88 12.5c29.333 0 56 -3.33301 80 -10s45.667 -16 65 -28c28 -16.667 51.667 -39.667 71 -69s35 -61.666 47 -96.999
c8.66699 -28.667 15.167 -59.167 19.5 -91.5s6.5 -65.5 6.5 -99.5z" />
    <glyph glyph-name="c" unicode="c" 
d="M635 130c-58 0 -106.499 11.499 -145.499 34.499s-70.167 53.167 -93.5 90.5c-24 36.667 -41.167 78.167 -51.5 124.5s-15.5 93.166 -15.5 140.499v42c0 46.667 5.16699 93 15.5 139s27.5 87.667 51.5 125c24 36.667 55.5 66.5 94.5 89.5s87.167 34.5 144.5 34.5
c37.333 0 72.166 -6.33301 104.499 -19s60.166 -30 83.499 -52s41.833 -47.5 55.5 -76.5s20.834 -59.833 21.501 -92.5h175c0 54.667 -11 106 -33 154s-52.333 89.667 -91 125c-39.333 34.667 -85.833 62.167 -139.5 82.5s-112.5 30.5 -176.5 30.5
c-82 0 -153.667 -14.667 -215 -44s-112.333 -68.666 -153 -117.999c-41.333 -50 -72.333 -107.667 -93 -173s-31 -133.666 -31 -204.999v-42c0 -72 10.333 -140.5 31 -205.5s51.667 -122.167 93 -171.5c40.667 -50 91.667 -89.667 153 -119s133 -44 215 -44
c57.333 0 112.333 9.83301 165 29.5s99.334 46.167 140.001 79.5c40.667 32.667 73.167 70.834 97.5 114.501s36.833 89.5 37.5 137.5h-175c-0.666992 -30 -8.5 -57.833 -23.5 -83.5s-34.833 -47.834 -59.5 -66.501c-24.667 -19.333 -52.834 -34.333 -84.501 -45
s-64.167 -16 -97.5 -16z" />
    <glyph glyph-name="d" unicode="d" 
d="M139 550l-0.00195312 -20.998c0 -77.333 10.333 -149.5 31 -216.5s49.667 -125.167 87 -174.5s82.5 -88 135.5 -116s112.167 -42 177.5 -42c66.667 0 125 11.333 175 34s93 56 129 100l8 -114h170v1536h-185v-561c-35.333 41.333 -77.166 72.833 -125.499 94.5
s-104.833 32.5 -169.5 32.5c-66 0 -125.667 -13.667 -179 -41s-98.666 -65.333 -135.999 -114c-38 -48.667 -67.167 -106.834 -87.5 -174.501s-30.5 -141.834 -30.5 -222.501zM323.998 529.002l-0.000976562 20.998c0 52.667 5.66699 102.834 17 150.501
s29 89.834 53 126.501c23.333 36 53.5 64.667 90.5 86s81.5 32 133.5 32c60.667 0 111.334 -14.167 152.001 -42.5s73 -64.5 97 -108.5v-502c-24 -47.333 -56.333 -85 -97 -113s-92 -42 -154 -42c-51.333 0 -95.333 10.5 -132 31.5s-66.667 49.5 -90 85.5
c-24 36 -41.667 77.667 -53 125s-17 97.333 -17 150z" />
    <glyph glyph-name="e" unicode="e" 
d="M652 -20c105.333 0 193.833 21.165 265.5 63.498s125.5 90.833 161.5 145.5l-113 88c-34 -44 -76.667 -79.333 -128 -106s-110 -40 -176 -40c-50 0 -95.667 9.33301 -137 28s-76.666 44.334 -105.999 77.001c-28.667 30.667 -51.167 66 -67.5 106
s-26.833 86.333 -31.5 139v7h773v83c0 75.333 -9.5 145.333 -28.5 210s-47.833 121 -86.5 169c-38.667 47.333 -87.167 84.5 -145.5 111.5s-126.5 40.5 -204.5 40.5c-62 0 -122.5 -12.667 -181.5 -38s-111.5 -61.666 -157.5 -108.999c-46.667 -48 -84 -106.5 -112 -175.5
s-42 -147.167 -42 -234.5v-42c0 -75.333 12.667 -145 38 -209s60.666 -119.333 105.999 -166s99.833 -83 163.5 -109s133.5 -39 209.5 -39zM628 949.998c47.333 0 88.168 -8.66797 122.501 -26.001s62.833 -40 85.5 -68s40.334 -61.167 53.001 -99.5s19 -74.166 19 -107.499
v-9h-582c7.33301 50 20.166 94.167 38.499 132.5s40.833 70.833 67.5 97.5c26.667 26 56.667 45.833 90 59.5s68.666 20.5 105.999 20.5z" />
    <glyph glyph-name="f" unicode="f" 
d="M450 0l186.001 -0.00292969v939h417v143h-417v76c0 45.333 5.83301 85 17.5 119s28.834 61.667 51.501 83c21.333 20.667 48.166 36.167 80.499 46.5s69.5 15.5 111.5 15.5c41.333 0 80.166 -3.5 116.499 -10.5s68.166 -15.167 95.499 -24.5l22 153
c-17.333 4.66699 -34.333 8.83398 -51 12.501l-50 10.5c-25.333 4.66699 -51 8.5 -77 11.5s-52.333 4.5 -79 4.5c-64 0 -122 -9 -174 -27s-96.333 -44.667 -133 -80c-37.333 -35.333 -66.166 -79.166 -86.499 -131.499s-30.5 -113.166 -30.5 -182.499v-76h-298v-143h298
v-939z" />
    <glyph glyph-name="g" unicode="g" 
d="M140 550l-0.00195312 -20.9951c0 -77.333 10 -149.5 30 -216.5s48.667 -125.167 86 -174.5c36.667 -49.333 81.667 -88 135 -116s113 -42 179 -42c39.333 0 76 4.16699 110 12.5s65 20.166 93 35.499c18 10 34.833 21.667 50.5 35s30.5 28 44.5 44v-93
c0 -46.667 -6.66699 -88 -20 -124s-32.333 -66 -57 -90c-25.333 -24.667 -55.666 -43.334 -90.999 -56.001s-75 -19 -119 -19c-24.667 0 -49.334 2.5 -74.001 7.5s-49.334 13.167 -74.001 24.5s-49 26.5 -73 45.5s-47.333 42.167 -70 69.5l-96 -111
c24.667 -35.333 54.167 -65 88.5 -89s70.166 -43 107.499 -57c36.667 -14.667 73 -25.167 109 -31.5s68 -9.5 96 -9.5c68 0 130 10 186 30s104.333 49.333 145 88c40 38.667 71.167 85.667 93.5 141s33.5 118.666 33.5 189.999v1059h-168l-9 -118
c-12.667 16 -26.167 30.667 -40.5 44s-29.5 25 -45.5 35c-29.333 19.333 -62.166 34 -98.499 44s-76.166 15 -119.499 15c-67.333 0 -127.666 -13.667 -180.999 -41s-98.666 -65.333 -135.999 -114s-65.833 -106.834 -85.5 -174.501s-29.5 -141.834 -29.5 -222.501z
M324.998 529.005l0.000976562 20.998c0 52.667 5.5 102.834 16.5 150.501s28.5 89.834 52.5 126.501c23.333 36 53.5 64.667 90.5 86s81.5 32 133.5 32c30.667 0 58.667 -3.83301 84 -11.5s48.333 -18.167 69 -31.5c20.667 -14 39 -30.333 55 -49s30 -39.334 42 -62.001
v-496c-12 -23.333 -26 -44.666 -42 -63.999s-34 -36 -54 -50c-20.667 -14 -43.834 -24.833 -69.501 -32.5s-54.5 -11.5 -86.5 -11.5c-51.333 0 -95.333 10.5 -132 31.5s-66.667 49.5 -90 85.5c-24 36 -41.5 77.667 -52.5 125s-16.5 97.333 -16.5 150z" />
    <glyph glyph-name="h" unicode="h" 
d="M359 921v615h-185v-1536h185v786c13.333 21.333 28.5 40.833 45.5 58.5s35.5 33.167 55.5 46.5c25.333 17.333 53 30.666 83 39.999s61.667 14 95 14c40.667 0.666992 76.667 -4.83301 108 -16.5s57.333 -29.167 78 -52.5c19.333 -21.333 34 -48.166 44 -80.499
s15 -69.833 15 -112.5v-683h185v681c0 72.667 -8.83301 135.5 -26.5 188.5s-42.834 96.833 -75.501 131.5s-72.167 60.167 -118.5 76.5s-97.833 24.5 -154.5 24.5c-43.333 -0.666992 -84.166 -7 -122.499 -19s-73.5 -29.667 -105.5 -53c-20 -14 -39 -30.167 -57 -48.5
s-34.333 -38.5 -49 -60.5z" />
    <glyph glyph-name="i" unicode="i" 
d="M203 1082v-161h368v-761h-368v-160h906v160h-353v922h-553zM547 1366c0 -30 9.16699 -55 27.5 -75s46.166 -30 83.499 -30c36.667 0 64.334 10 83.001 30s28 45 28 75c0 16.667 -2.66699 32 -8 46s-13.333 25.667 -24 35c-8.66699 8.66699 -19.667 15.5 -33 20.5
s-28.666 7.5 -45.999 7.5s-32.833 -2.5 -46.5 -7.5s-24.834 -11.833 -33.501 -20.5c-10.667 -10 -18.5 -22 -23.5 -36s-7.5 -29 -7.5 -45z" />
    <glyph glyph-name="j" unicode="j" 
d="M299 1082v-161h361v-928c0 -51.333 -6.5 -94.5 -19.5 -129.5s-30.833 -63.167 -53.5 -84.5s-49.334 -36.5 -80.001 -45.5s-63.334 -13.5 -98.001 -13.5c-9.33301 0 -22.166 0.166992 -38.499 0.5s-33.166 1.16602 -50.499 2.49902
c-18 0.666992 -35.667 1.83398 -53 3.50098s-31.666 3.5 -42.999 5.5l-13 -152l48 -7.5c15.333 -2.33301 30.666 -4.16602 45.999 -5.49902c18.667 -1.33301 37.667 -2.33301 57 -3s39.333 -1 60 -1c66.667 0 126.167 9.5 178.5 28.5s96.833 46.833 133.5 83.5
c36 36 63.5 80.667 82.5 134s28.5 114.666 28.5 183.999v1089h-546zM634 1367c0 -30 9 -55.167 27 -75.5s45.667 -30.5 83 -30.5s65.333 10.167 84 30.5s28 45.5 28 75.5s-9.33301 55.5 -28 76.5s-46.667 31.5 -84 31.5s-65 -10.5 -83 -31.5s-27 -46.5 -27 -76.5z" />
    <glyph glyph-name="k" unicode="k" 
d="M498 505l397 -505h235l-505 631l438 451h-225l-355 -356l-121 -130v940h-186v-1536h186v374z" />
    <glyph glyph-name="l" unicode="l" 
d="M203 1536v-161h368v-1215h-368v-160h906v160h-353v1376h-553z" />
    <glyph glyph-name="m" unicode="m" 
d="M259 1082l-166 -0.00195312v-1082h176v861c4 10.667 9.16699 20.667 15.5 30s13.833 17.666 22.5 24.999c11.333 9.33301 25.166 16.5 41.499 21.5s35.5 7.5 57.5 7.5c20 0 37.5 -2.5 52.5 -7.5s27.5 -12.833 37.5 -23.5c10.667 -11.333 18.5 -25.666 23.5 -42.999
s7.5 -37.333 7.5 -60v-811h176v810v10.5v9.5c2 16.667 6 31.834 12 45.501s14.333 25.834 25 36.501c10.667 10 24 18 40 24s35 9 57 9c20.667 0 38.834 -2.66699 54.501 -8s28.834 -13.333 39.501 -24c10 -11.333 17.667 -25.666 23 -42.999s8 -37.333 8 -60v-810h176v808
c0 52 -6 97.167 -18 135.5s-29.333 69.5 -52 93.5c-20.667 21.333 -46 37.5 -76 48.5s-63.667 16.5 -101 16.5c-27.333 -0.666992 -52.5 -4.33398 -75.5 -11.001s-43.833 -15.667 -62.5 -27c-14.667 -10 -28.334 -21.667 -41.001 -35s-23.667 -27.666 -33 -42.999
c-7.33301 16.667 -16.166 31.667 -26.499 45s-21.833 24.666 -34.5 33.999c-17.333 12 -37.5 21.167 -60.5 27.5s-48.833 9.5 -77.5 9.5c-50.667 -0.666992 -93.834 -11.667 -129.501 -33s-64.5 -51 -86.5 -89z" />
    <glyph glyph-name="n" unicode="n" 
d="M174 0l185.002 0.000976562v776c12.667 23.333 27.5 44.666 44.5 63.999s35.5 36.333 55.5 51c24.667 16.667 51.667 29.834 81 39.501s61 14.5 95 14.5c39.333 0 74.166 -4.66699 104.499 -14s56.166 -24.333 77.499 -45c20.667 -20.667 36.334 -47.667 47.001 -81
s16 -74 16 -122v-683h185v687c0 72 -8.83301 134.167 -26.5 186.5s-42.834 95.5 -75.501 129.5s-72.167 59 -118.5 75s-97.833 24 -154.5 24c-42 -0.666992 -81.833 -6.83398 -119.5 -18.501s-72.5 -28.167 -104.5 -49.5c-21.333 -14 -41.5 -30.5 -60.5 -49.5
s-36.5 -39.833 -52.5 -62.5l-13 160h-166v-1082z" />
    <glyph glyph-name="o" unicode="o" 
d="M122 551l-0.000976562 -22c0 -78 11.333 -150.333 34 -217s55.334 -124.667 98.001 -174c42 -49.333 93.5 -88 154.5 -116s129.833 -42 206.5 -42c76 0 144.333 14 205 42s112.334 66.667 155.001 116c42 49.333 74.333 107.333 97 174s34 139 34 217v22
c0 78 -11.333 150.5 -34 217.5s-55 125.167 -97 174.5c-42.667 49.333 -94.5 88.166 -155.5 116.499s-129.833 42.5 -206.5 42.5c-76 0 -144.333 -14.167 -205 -42.5s-112 -67.166 -154 -116.499c-42.667 -49.333 -75.334 -107.5 -98.001 -174.5s-34 -139.5 -34 -217.5z
M306.999 529l0.000976562 22c0 52.667 6.33301 103.167 19 151.5s32 90.833 58 127.5c25.333 36.667 57 65.834 95 87.501s82.667 32.5 134 32.5s96.166 -10.833 134.499 -32.5s70.5 -50.834 96.5 -87.501c25.333 -36.667 44.5 -79.167 57.5 -127.5
s19.5 -98.833 19.5 -151.5v-22c0 -53.333 -6.33301 -104.166 -19 -152.499s-31.667 -90.833 -57 -127.5c-26 -36.667 -58.167 -65.667 -96.5 -87s-82.833 -32 -133.5 -32c-51.333 0 -96.333 10.667 -135 32s-70.667 50.333 -96 87c-26 36.667 -45.333 79.167 -58 127.5
s-19 99.166 -19 152.499z" />
    <glyph glyph-name="p" unicode="p" 
d="M173 -416l184.999 -0.00195312v520c13.333 -14.667 27.666 -28.167 42.999 -40.5s31.666 -23.5 48.999 -33.5c28.667 -16 60.834 -28.333 96.501 -37s74.167 -13 115.5 -13c68 0 128.5 14 181.5 42s97.5 66.667 133.5 116s63.333 107.5 82 174.5s28 139.167 28 216.5v21
c0 80.667 -9.33301 154.834 -28 222.501s-46 125.834 -82 174.501s-80.667 86.667 -134 114s-114.666 41 -183.999 41c-39.333 0 -76.166 -4.16699 -110.499 -12.5s-65.5 -20.5 -93.5 -36.5c-20 -10.667 -38.667 -23.5 -56 -38.5s-33.333 -31.833 -48 -50.5l-9 118h-169
v-1498zM901.999 549.998l-0.000976562 -21c0 -52.667 -5.83301 -103 -17.5 -151s-29.5 -90.333 -53.5 -127s-54.667 -65.834 -92 -87.501s-81.666 -32.5 -132.999 -32.5c-32 0 -61.167 4 -87.5 12s-50.166 19 -71.499 33c-18.667 12 -35.334 26.667 -50.001 44
s-27.667 36 -39 56v521c12.667 22.667 27.334 43.334 44.001 62.001s35.667 34.334 57 47.001c19.333 12.667 41.166 22.334 65.499 29.001s50.833 10 79.5 10c52 0 96.667 -10.667 134 -32s68.333 -50 93 -86c24 -36.667 41.833 -78.834 53.5 -126.501
s17.5 -97.834 17.5 -150.501z" />
    <glyph glyph-name="q" unicode="q" 
d="M140 550l-0.00390625 -20.998c0 -77.333 9.83301 -149.5 29.5 -216.5s48.167 -125.167 85.5 -174.5s82.833 -88 136.5 -116s114.834 -42 183.501 -42c35.333 0 68.333 3.33301 99 10s59 16.334 85 29.001c20.667 9.33301 39.834 20.666 57.501 33.999
s34.5 28.333 50.5 45v-514h185v1498h-170l-8 -107c-14 16 -29 30.667 -45 44s-33 25 -51 35c-28 16 -58.833 28 -92.5 36s-69.834 12 -108.501 12c-69.333 0 -131.166 -13.667 -185.499 -41s-100.166 -65.333 -137.499 -114s-65.666 -106.834 -84.999 -174.501
s-29 -141.834 -29 -222.501zM324.996 529.002v20.999c0 52.667 5.83301 103 17.5 151s29.834 90.667 54.501 128c24 36.667 54.667 66 92 88s81.666 33 132.999 33c28.667 0 55.167 -3.5 79.5 -10.5s46.833 -16.833 67.5 -29.5c20 -12.667 38.167 -27.5 54.5 -44.5
s30.833 -35.833 43.5 -56.5v-534c-13.333 -22 -28.333 -42.167 -45 -60.5s-35.667 -33.833 -57 -46.5c-20 -11.333 -42 -20.333 -66 -27s-50.333 -10 -79 -10c-51.333 0 -95.5 10.833 -132.5 32.5s-67.5 50.834 -91.5 87.501s-41.833 79 -53.5 127s-17.5 98.333 -17.5 151z
" />
    <glyph glyph-name="r" unicode="r" 
d="M883 1102c-78.667 0 -148.832 -17.168 -210.499 -51.501s-114.5 -81.166 -158.5 -140.499l-1 27l-8 145h-176v-1082h186v694c12 33.333 27.167 63.5 45.5 90.5s39.833 49.833 64.5 68.5c27.333 21.333 59.333 37.5 96 48.5s77.667 16.5 123 16.5
c35.333 0 69.166 -1.83301 101.499 -5.5s66.5 -9.5 102.5 -17.5l25 181c-18.667 8 -46.5 14.333 -83.5 19s-72.5 7 -106.5 7z" />
    <glyph glyph-name="s" unicode="s" 
d="M893 287c0 -17.333 -3.3291 -33.6631 -9.99609 -48.9961s-16.334 -29.333 -29.001 -42c-20.667 -20.667 -49.334 -36.834 -86.001 -48.501s-79.667 -17.5 -129 -17.5c-31.333 0 -63 3.33301 -95 10s-61 18 -87 34c-26.667 16 -48.834 37 -66.501 63
s-27.834 58 -30.501 96h-185c0 -46 10.5 -90.333 31.5 -133s51.5 -80 91.5 -112c39.333 -32.667 87.666 -58.834 144.999 -78.501s122.666 -29.5 195.999 -29.5c64 0 123 7.66699 177 23s100.333 37 139 65s68.834 61.667 90.501 101s32.5 83 32.5 131
c0 44.667 -9.5 84 -28.5 118s-46.5 64 -82.5 90c-36 25.333 -80.333 47.166 -133 65.499s-112.334 34.5 -179.001 48.5c-50.667 10 -92.5 20.333 -125.5 31s-59.167 22.667 -78.5 36c-20 13.333 -34 28.333 -42 45s-12 35.667 -12 57c0 20.667 5 40.667 15 60
s25 36.333 45 51c19.333 14.667 43.833 26.334 73.5 35.001s64.167 13 103.5 13c38 0 72.167 -5.33301 102.5 -16s56.166 -24.667 77.499 -42s38 -37.166 50 -59.499s18 -45.166 18 -68.499h185c0 47.333 -10.167 91.5 -30.5 132.5s-49.166 76.833 -86.499 107.5
s-82.666 54.667 -135.999 72s-113.333 26 -180 26c-62 0 -118.833 -8.33301 -170.5 -25s-96.167 -39.334 -133.5 -68.001s-66.333 -62.167 -87 -100.5s-31 -79.5 -31 -123.5c0 -44.667 10 -83.834 30 -117.501s48.333 -62.834 85 -87.501c36 -25.333 79.5 -47 130.5 -65
s107.5 -33.333 169.5 -46c50.667 -10 93 -21.167 127 -33.5s61.333 -25.833 82 -40.5s35.334 -30.834 44.001 -48.501s13 -37.5 13 -59.5z" />
    <glyph glyph-name="t" unicode="t" 
d="M612 1344l-186.002 -0.000976562v-262h-284v-143h284v-588c0 -66.667 8.83301 -123.5 26.5 -170.5s41.834 -85.167 72.501 -114.5c30.667 -30 66.834 -51.833 108.501 -65.5s86.5 -20.5 134.5 -20.5c28.667 0 57.5 1.33301 86.5 4s56.5 6.66699 82.5 12
c26 4.66699 50 10.5 72 17.5s40.667 15.167 56 24.5l-26 131c-11.333 -2.66699 -25.833 -5.83398 -43.5 -9.50098s-36.5 -7.16699 -56.5 -10.5c-20.667 -3.33301 -41.667 -6.16602 -63 -8.49902s-42 -3.5 -62 -3.5c-27.333 0 -53.166 3.33301 -77.499 10
s-45.833 18.334 -64.5 35.001c-18.667 16 -33.334 37.667 -44.001 65s-16 62 -16 104v588h412v143h-412v262z" />
    <glyph glyph-name="u" unicode="u" 
d="M887 0h167.999v1082h-186v-776c-10 -23.333 -22.5 -44.833 -37.5 -64.5s-32.5 -36.5 -52.5 -50.5c-24 -17.333 -52.333 -30.833 -85 -40.5s-69.667 -14.5 -111 -14.5c-35.333 0 -66.5 4.66699 -93.5 14s-49.833 25.666 -68.5 48.999
c-18.667 22.667 -32.667 53.334 -42 92.001s-14 87.334 -14 146.001v645h-185v-643c0 -80.667 8.83301 -149.834 26.5 -207.501s42.834 -105.167 75.501 -142.5s72 -64.833 118 -82.5s97.333 -26.5 154 -26.5c70.667 0 133 14.833 187 44.5s99 71.167 135 124.5z" />
    <glyph glyph-name="v" unicode="v" 
d="M543 0h141l441 1082h-189l-303 -816l-18 -67l-17 67l-310 816h-190z" />
    <glyph glyph-name="w" unicode="w" 
d="M278 0h146l167 663l27 168l28 -168l169 -663h146l230 1082h-164l-120 -690l-27 -170l-29 170l-172 690h-119l-173 -690l-27 -155l-22 155l-126 690h-164z" />
    <glyph glyph-name="x" unicode="x" 
d="M621 681l-286 401h-214l403 -535l-414 -547h216l299 412l299 -412h214l-414 547l403 535h-217z" />
    <glyph glyph-name="y" unicode="y" 
d="M261 -437c48.667 0 91.667 9 129 27s70 40.333 98 67s51.833 55.667 71.5 87s35.834 61 48.501 89l549 1249h-207l-279 -702l-51 -127l-48 131l-297 698h-207l466 -1031l-74 -144c-6.66699 -13.333 -15.834 -30.333 -27.501 -51s-25.5 -40.667 -41.5 -60
c-16.667 -19.333 -35.5 -36 -56.5 -50s-44.167 -21 -69.5 -21c-9.33301 0 -22.166 0.5 -38.499 1.5s-32.833 2.16699 -49.5 3.5l-30 -151c12 -2.66699 29.667 -6 53 -10s43.666 -6 60.999 -6z" />
    <glyph glyph-name="z" unicode="z" 
d="M396 151l653 800v131h-880v-153h637l-646 -793v-136h925v151h-689z" />
    <glyph glyph-name="braceleft" unicode="{" 
d="M978 -366l21 115.005c-41.333 1.33301 -75.5 12.666 -102.5 33.999s-48.5 48.666 -64.5 81.999c-16.667 32.667 -28.334 69.5 -35.001 110.5s-10 82.167 -10 123.5v169c-0.666992 79.333 -19.334 149.166 -56.001 209.499s-93.667 105.833 -171 136.5
c77.333 31.333 134.5 77.166 171.5 137.499s55.5 130.5 55.5 210.5v170c0 40.667 2 81.667 6 123s13.333 78.666 28 111.999c14 32.667 35.167 59.667 63.5 81s66.5 32.666 114.5 33.999l-21 115c-67.333 -2 -124.666 -16.5 -171.999 -43.5s-85.666 -61.833 -114.999 -104.5
c-31.333 -44.667 -54.166 -95.167 -68.499 -151.5s-21.5 -111.5 -21.5 -165.5v-170c0 -96.667 -22.833 -166.5 -68.5 -209.5s-115.5 -64.5 -209.5 -64.5v-145c94 -0.666992 163.833 -22.667 209.5 -66s68.5 -113 68.5 -209v-169c0 -53.333 7.66699 -107.166 23 -161.499
s38 -103.5 68 -147.5c31.333 -46 70.666 -83 117.999 -111s103.333 -43 168 -45z" />
    <glyph glyph-name="bar" unicode="|" 
d="M689 -398v1854h-149v-1854h149z" />
    <glyph glyph-name="braceright" unicode="}" 
d="M323 -251l21.001 -115.001c65.333 1.33301 121.666 16.333 168.999 45s86.666 65.334 117.999 110.001c30.667 44.667 53.334 94.167 68.001 148.5s22 108.166 22 161.499v169c0 46.667 5.33301 87 16 121s27 62.333 49 85c22.667 23.333 51.834 40.5 87.501 51.5
s77.5 16.833 125.5 17.5v145c-54.667 0 -101.5 7.16699 -140.5 21.5s-69.5 37.166 -91.5 68.499c-15.333 22 -26.833 48.167 -34.5 78.5s-11.5 65.5 -11.5 105.5v170c0 56 -7.5 112.667 -22.5 170s-39.5 109 -73.5 155c-30 40.667 -68.167 73.667 -114.5 99
s-101.833 39 -166.5 41l-20 -115c48 -1.33301 86 -12.666 114 -33.999s49.333 -48.333 64 -81c14 -33.333 23.167 -70.666 27.5 -111.999s6.5 -82.333 6.5 -123v-170c0 -52 7.66699 -100.167 23 -144.5s39 -83.166 71 -116.499c16.667 -18 36.167 -34.333 58.5 -49
s46.833 -27.334 73.5 -38.001c-26 -10.667 -49.833 -23 -71.5 -37s-41.167 -29.667 -58.5 -47c-32.667 -32.667 -56.834 -71.334 -72.501 -116.001s-23.5 -93.334 -23.5 -146.001v-169c0 -41.333 -3.5 -82.5 -10.5 -123.5s-18.5 -77.833 -34.5 -110.5
c-16.667 -33.333 -38.667 -60.666 -66 -81.999s-61.333 -32.666 -102 -33.999z" />
    <glyph glyph-name="asciitilde" unicode="~" 
d="M1180 740l-134 17.999c0 -25.333 -4.33301 -49.666 -13 -72.999s-20.334 -43.666 -35.001 -60.999c-15.333 -18 -33.166 -32.333 -53.499 -43s-42.166 -16 -65.499 -16c-20 -0.666992 -39.333 1.5 -58 6.5s-37 12.5 -55 22.5c-15.333 8 -31 17.833 -47 29.5
s-32.667 24.834 -50 39.501c-26 21.333 -51.5 40.666 -76.5 57.999s-50.5 32 -76.5 44s-52.833 21.167 -80.5 27.5s-56.834 9.5 -87.501 9.5c-44.667 0 -85.334 -8.83301 -122.001 -26.5s-68 -41.5 -94 -71.5c-26.667 -30 -47.334 -65 -62.001 -105s-22 -82 -22 -126
l134 -17c0 25.333 4.33301 49.166 13 71.499s20.334 41.833 35.001 58.5c14.667 16 32.167 28.833 52.5 38.5s42.166 14.5 65.499 14.5c15.333 0 30.166 -1.33301 44.499 -4s28.5 -7 42.5 -13c20 -8 40.167 -18.833 60.5 -32.5s41.5 -29.5 63.5 -47.5
c26.667 -22.667 52.5 -42.667 77.5 -60s50.5 -32 76.5 -44c25.333 -12 51.5 -21 78.5 -27s56.167 -9 87.5 -9c44.667 0 85.334 9.33301 122.001 28s68.334 43.667 95.001 75s47.334 67.333 62.001 108s22 83 22 127z" />
    <glyph glyph-name="nonbreakingspace" unicode="&#xa0;" 
 />
    <glyph glyph-name="exclamdown" unicode="&#xa1;" 
d="M522 611v-983h185v983h-185zM728 990c0 32 -9.83301 58.833 -29.5 80.5s-48.167 32.5 -85.5 32.5c-38 0 -66.667 -10.833 -86 -32.5s-29 -48.5 -29 -80.5c0 -30.667 9.66699 -56.5 29 -77.5s48 -31.5 86 -31.5c37.333 0 65.833 10.5 85.5 31.5s29.5 46.833 29.5 77.5z
" />
    <glyph glyph-name="cent" unicode="&#xa2;" 
d="M639 130c-58 0 -106.5 11.501 -145.5 34.501s-70.167 53.167 -93.5 90.5c-24 36.667 -41.167 78.167 -51.5 124.5s-15.5 93.166 -15.5 140.499v42c0 46.667 5.16699 93 15.5 139s27.5 87.667 51.5 125c24 36.667 55.5 66.5 94.5 89.5s87.167 34.5 144.5 34.5
c37.333 0 72.166 -6.33301 104.499 -19s60.166 -30 83.499 -52s41.833 -47.5 55.5 -76.5s20.834 -59.833 21.501 -92.5h175c0 48.667 -8.83301 94.667 -26.5 138s-42.5 82 -74.5 116s-70 62.5 -114 85.5s-92.667 38.5 -146 46.5v222h-185v-226
c-64 -12 -120.167 -34.5 -168.5 -67.5s-88.5 -73.167 -120.5 -120.5c-32 -48 -56.167 -101.167 -72.5 -159.5s-24.5 -119.166 -24.5 -182.499v-42c0 -63.333 8.16699 -124.333 24.5 -183s40.5 -111.667 72.5 -159s72.167 -87.5 120.5 -120.5s104.5 -55.5 168.5 -67.5v-235
h185v232c48.667 8 94.834 23 138.501 45s81.834 49 114.501 81c32.667 31.333 58.667 66.5 78 105.5s29.333 79.833 30 122.5h-175c-0.666992 -30 -8.5 -57.833 -23.5 -83.5s-34.833 -47.834 -59.5 -66.501c-24.667 -19.333 -52.834 -34.333 -84.501 -45
s-64.167 -16 -97.5 -16z" />
    <glyph glyph-name="sterling" unicode="&#xa3;" 
d="M463 626l315 -0.00195312v152h-320l-8 261c0 44.667 6.16699 84.834 18.5 120.501s29.166 65.834 50.499 90.501c21.333 24 46.833 42.5 76.5 55.5s61.5 19.5 95.5 19.5c32 0 62.5 -4.5 91.5 -13.5s54.833 -22.833 77.5 -41.5c22 -19.333 39.5 -43.833 52.5 -73.5
s19.5 -65.5 19.5 -107.5h186c0 58 -9.33301 110.667 -28 158s-45.334 88 -80.001 122c-35.333 34 -78.333 60.333 -129 79s-108 28 -172 28s-123.333 -10 -178 -30s-101.667 -48.667 -141 -86c-39.333 -38 -70.166 -84 -92.499 -138s-33.5 -115 -33.5 -183l9 -261h-160v-152
h165l8 -226c0 -21.333 -1.33301 -45.5 -4 -72.5s-7.66699 -52.5 -15 -76.5c-7.33301 -24.667 -17.166 -46.334 -29.499 -65.001s-27.5 -30.334 -45.5 -35.001h-75v-151h1030l1 151h-738c8.66699 12.667 16.167 26.334 22.5 41.001s11.833 30 16.5 46
c7.33301 24.667 12.833 50.834 16.5 78.501s5.5 55.5 5.5 83.5z" />
    <glyph glyph-name="currency" unicode="&#xa4;" 
d="M931 84l107.001 -111.002l132 136l-116 119c24 41.333 42.667 86.166 56 134.499s20 99.166 20 152.499c0 56.667 -7.33301 110.334 -22 161.001s-35.334 97.334 -62.001 140.001l124 128l-132 136l-120 -125c-40 30 -84 53.167 -132 69.5s-98.667 24.5 -152 24.5
s-103.833 -8 -151.5 -24s-91.5 -38.667 -131.5 -68l-117 122l-131 -135l120 -124c-28 -43.333 -49.333 -90.666 -64 -141.999s-22 -105.666 -22 -162.999c0 -54 6.66699 -105.5 20 -154.5s32.666 -94.5 57.999 -136.5l-112 -115l131 -135l104 108
c41.333 -32 86.833 -57 136.5 -75s102.834 -27 159.501 -27s110 9 160 27s95.667 43.667 137 77zM309.001 514.998c0 49.333 8.33301 96 25 140s39.667 82.667 69 116c28.667 32.667 62.834 58.667 102.501 78s82.5 29 128.5 29s88.667 -9.66699 128 -29
s73.666 -45.333 102.999 -78c28.667 -33.333 51.167 -72 67.5 -116s24.5 -90.667 24.5 -140s-8.16699 -96 -24.5 -140s-38.833 -82.333 -67.5 -115c-29.333 -33.333 -63.666 -59.833 -102.999 -79.5s-82 -29.5 -128 -29.5s-88.833 9.83301 -128.5 29.5
s-73.834 46.167 -102.501 79.5c-29.333 32.667 -52.333 71 -69 115s-25 90.667 -25 140z" />
    <glyph glyph-name="yen" unicode="&#xa5;" 
d="M518 0h185v326h389v120h-389v169h389v121h-318l421 720h-212l-322 -591l-46 -85h-2l-46 86l-322 590h-212l421 -720h-316v-121h380v-169h-380v-120h380v-326z" />
    <glyph glyph-name="brokenbar" unicode="&#xa6;" 
d="M511 -270h185v791h-185v-791zM696 698v758h-185v-758h185z" />
    <glyph glyph-name="section" unicode="&#xa7;" 
d="M1140 431c0 62.667 -10.8301 116.17 -32.4971 160.503s-52.834 82.5 -93.501 114.5c-20.667 16 -43.334 30.833 -68.001 44.5s-51.334 26.5 -80.001 38.5s-59.167 23.333 -91.5 34s-66.5 21 -102.5 31c-31.333 8.66699 -60.166 17 -86.499 25s-50.5 16 -72.5 24
c-24 9.33301 -45.667 18.666 -65 27.999s-36 19 -50 29c-27.333 18.667 -46.666 40 -57.999 64s-17 53.333 -17 88c0 30 6.33301 58 19 84s32 48.667 58 68c25.333 18.667 56.833 33.5 94.5 44.5s81.5 16.5 131.5 16.5c48.667 0 92.167 -7.33301 130.5 -22
s70.5 -34.334 96.5 -59.001c26 -25.333 45.833 -55.166 59.5 -89.499s20.5 -70.833 20.5 -109.5h185c0 69.333 -11.5 130.833 -34.5 184.5s-55.5 98.834 -97.5 135.501c-42.667 36 -94.334 63.5 -155.001 82.5s-129 28.5 -205 28.5c-72.667 0 -139 -8.5 -199 -25.5
s-111.333 -41.5 -154 -73.5s-75.834 -70.5 -99.501 -115.5s-35.5 -95.5 -35.5 -151.5c0 -43.333 5 -82 15 -116s24.667 -64.667 44 -92c10.667 -14 22.5 -27.5 35.5 -40.5s27.167 -25.167 42.5 -36.5c-20 -10 -38.833 -21 -56.5 -33s-33.167 -25 -46.5 -39
c-25.333 -26.667 -44.833 -56.834 -58.5 -90.501s-20.5 -70.834 -20.5 -111.501c0 -63.333 11 -117.333 33 -162s53.333 -83.334 94 -116.001c22 -18 46.833 -34.333 74.5 -49s57.167 -28.334 88.5 -41.001c39.333 -16 82.333 -30.5 129 -43.5s90 -26.167 130 -39.5
c42 -14 78.667 -27.667 110 -41s57.666 -27.333 78.999 -42c28 -19.333 48.333 -40.666 61 -63.999s19 -51 19 -83c0 -31.333 -7 -60 -21 -86s-34 -48.333 -60 -67c-26.667 -18.667 -58.667 -33.334 -96 -44.001s-79.333 -16 -126 -16c-40 0 -80 4.83301 -120 14.5
s-76 25.834 -108 48.501c-32 22 -58 50.833 -78 86.5s-30 79.5 -30 131.5l-185 -2c0 -80 15 -147.5 45 -202.5s69.333 -99.167 118 -132.5c48.667 -34 104.167 -58.5 166.5 -73.5s126.166 -22.5 191.499 -22.5c72.667 0 138.834 8.16699 198.501 24.5
s111.167 40.166 154.5 71.499c42.667 31.333 75.834 69.666 99.501 114.999s35.5 97.333 35.5 156c0 38.667 -4.16699 73.667 -12.5 105s-20.5 59.333 -36.5 84c-11.333 18.667 -24.833 35.834 -40.5 51.501s-33.167 30.167 -52.5 43.5c19.333 8.66699 37.5 18.667 54.5 30
s32.5 23.333 46.5 36c27.333 26.667 48.333 57.334 63 92.001s22 73.667 22 117zM598.003 691.003l95.4961 -30.501c29 -9.66699 55.5 -19.5 79.5 -29.5c20 -8 38.333 -16.333 55 -25s31.667 -17.667 45 -27c28.667 -20 49.667 -42.167 63 -66.5s20 -52.5 20 -84.5
c-0.666992 -26.667 -5.66699 -51.167 -15 -73.5s-22.666 -41.833 -39.999 -58.5c-13.333 -13.333 -29.166 -24.833 -47.499 -34.5s-38.5 -17.5 -60.5 -23.5c-24.667 9.33301 -50.334 18 -77.001 26l-84 25c-41.333 11.333 -78.666 22.333 -111.999 33
s-62.666 21.667 -87.999 33c-56.667 24.667 -96.5 51.667 -119.5 81s-34.5 68.333 -34.5 117c0 27.333 4.33301 52.333 13 75s21.667 42.667 39 60c12.667 12.667 27.834 23.5 45.501 32.5s37.5 16.167 59.5 21.5c24.667 -9.33301 50.5 -18.166 77.5 -26.499
s55.5 -16.5 85.5 -24.5z" />
    <glyph glyph-name="dieresis" unicode="&#xa8;" 
d="M287 1371c0 -30 9.16699 -55 27.5 -75s45.5 -30 81.5 -30s63.333 10 82 30s28 45 28 75s-9.33301 55.167 -28 75.5s-46 30.5 -82 30.5s-63.167 -10.167 -81.5 -30.5s-27.5 -45.5 -27.5 -75.5zM717 1369c0 -29.333 9.16699 -54.166 27.5 -74.499s45.5 -30.5 81.5 -30.5
s63.333 10.167 82 30.5s28 45.166 28 74.499c0 30 -9.33301 55.333 -28 76s-46 31 -82 31s-63.167 -10.333 -81.5 -31s-27.5 -46 -27.5 -76z" />
    <glyph glyph-name="copyright" unicode="&#xa9;" 
d="M862 443l-110.001 -0.000976562c0 -23.333 -2.66699 -43.5 -8 -60.5s-13.333 -31.167 -24 -42.5c-10.667 -12 -25 -20.833 -43 -26.5s-39.333 -8.5 -64 -8.5c-25.333 0 -47.5 5 -66.5 15s-34.833 23.667 -47.5 41s-22 37.666 -28 60.999s-9 48.666 -9 75.999v88
c0 26.667 3 51.834 9 75.501s15.333 44.167 28 61.5c12.667 16.667 28.5 30 47.5 40s41.167 15 66.5 15c24.667 0 46 -2.83301 64 -8.5s32.667 -14.5 44 -26.5c10.667 -11.333 18.667 -25.5 24 -42.5s8 -36.833 8 -59.5h110c0 36 -5 68 -15 96s-24.333 52 -43 72
c-21.333 22 -48.166 38.667 -80.499 50s-69.5 17 -111.5 17c-41.333 0 -78 -7.33301 -110 -22s-59 -35 -81 -61s-39 -56.833 -51 -92.5s-18 -74.167 -18 -115.5v-87c0 -42 6 -80.667 18 -116s29 -65.666 51 -90.999c22 -26 49 -46.333 81 -61s68.667 -22 110 -22
s78 5.5 110 16.5s58.667 27.167 80 48.5c19.333 19.333 34 43.333 44 72s15 61.334 15 98.001zM176.999 541.999c0 64.667 11.333 125.498 34 182.498s54 106.833 94 149.5s87.167 76.167 141.5 100.5s113.166 36.5 176.499 36.5c62.667 0 121.167 -12.167 175.5 -36.5
s101.5 -57.833 141.5 -100.5s71.333 -92.5 94 -149.5s34 -117.833 34 -182.5c0 -65.333 -11.333 -126.666 -34 -183.999s-54 -107.333 -94 -150c-40 -43.333 -87.167 -77.5 -141.5 -102.5s-112.833 -37.5 -175.5 -37.5c-63.333 0 -122.166 12.333 -176.499 37
s-101.5 58.667 -141.5 102c-40 42.667 -71.333 92.834 -94 150.501s-34 119.167 -34 184.5zM89.999 541.997c0 -78 13.6689 -151.167 41.002 -219.5s65 -127.833 113 -178.5c47.333 -51.333 103.5 -91.666 168.5 -120.999s135.167 -44 210.5 -44s145.333 14.667 210 44
s121 69.666 169 120.999c47.333 50.667 84.666 110.167 111.999 178.5s41 141.5 41 219.5s-13.667 151 -41 219s-64.666 127.333 -111.999 178c-48 50 -104.333 89.667 -169 119s-134.667 44 -210 44c-71.333 0 -139.333 -13.833 -204 -41.5s-121 -66.167 -169 -115.5
c-48.667 -49.333 -87.334 -108.5 -116.001 -177.5s-43.334 -144.167 -44.001 -225.5z" />
    <glyph glyph-name="ordfeminine" unicode="&#xaa;" 
d="M780 705l164.995 0.000976562c-9.33301 30 -16 59.667 -20 89s-6 60 -6 92v314c0 45.333 -7 85.333 -21 120s-33.333 63.667 -58 87c-25.333 22.667 -55.833 39.834 -91.5 51.501s-75.167 17.5 -118.5 17.5c-46 0 -88 -5.66699 -126 -17s-70.333 -27.333 -97 -48
c-27.333 -20.667 -48.5 -45.334 -63.5 -74.001s-22.833 -60 -23.5 -94l161 -12c0 15.333 3 29.166 9 41.499s14.333 22.833 25 31.5c12.667 10.667 28.834 18.667 48.501 24s41.834 8 66.501 8c20.667 0 38.667 -2.83301 54 -8.5s28.333 -13.834 39 -24.501
c10.667 -11.333 18.667 -25.666 24 -42.999s8.33301 -37 9 -59v-52h-141c-51.333 0 -97.5 -4.83301 -138.5 -14.5s-75.5 -23.834 -103.5 -42.501c-28.667 -19.333 -50.667 -43.666 -66 -72.999s-23 -63 -23 -101c0 -34.667 5.33301 -65.834 16 -93.501
s26.334 -51.167 47.001 -70.5c21.333 -20 47.666 -35.5 78.999 -46.5s67 -16.5 107 -16.5c32 0.666992 61 5 87 13s49 18.333 69 31c14.667 9.33301 27.834 19.833 39.501 31.5s21.834 23.5 30.501 35.5c2 -17.333 4.83301 -34.166 8.5 -50.499
s7.83398 -31.833 12.501 -46.5zM571.995 828.001c-23.333 0 -43.5 2.66602 -60.5 7.99902s-30.833 13 -41.5 23c-8 7.33301 -14 16.333 -18 27s-6 22.667 -6 36c0 14.667 3 28.334 9 41.001s15 24 27 34c14 12 32.5 21.667 55.5 29s49.167 11 78.5 11h140v-109
c-5.33301 -12 -14.5 -24 -27.5 -36s-27.833 -22.667 -44.5 -32c-17.333 -10 -35.833 -17.833 -55.5 -23.5s-38.5 -8.5 -56.5 -8.5z" />
    <glyph glyph-name="guillemotleft" unicode="&#xab;" 
d="M390 515l258 399h-141l-295 -389v-19l295 -388h141zM725 515l258 399h-141l-295 -389v-19l295 -388h141z" />
    <glyph glyph-name="logicalnot" unicode="&#xac;" 
d="M1019 375v425h-830v-161h645v-264h185z" />
    <glyph glyph-name="uni00AD" unicode="&#xad;" 
d="M983 561v152h-765v-152h765z" />
    <glyph glyph-name="registered" unicode="&#xae;" 
d="M87 540c0 -78 13.667 -151.167 41 -219.5s65 -127.5 113 -177.5c47.333 -50.667 103.5 -90.667 168.5 -120s135.167 -44 210.5 -44s145.333 14.667 210 44s121 69.333 169 120c47.333 50 84.666 109.167 111.999 177.5s41 141.5 41 219.5s-13.667 151.167 -41 219.5
s-64.666 127.833 -111.999 178.5c-48 50.667 -104.333 90.5 -169 119.5s-134.667 43.5 -210 43.5s-145.5 -14.5 -210.5 -43.5s-121.167 -68.833 -168.5 -119.5c-48 -50.667 -85.667 -110.167 -113 -178.5s-41 -141.5 -41 -219.5zM174 540
c0 65.333 11.333 126.666 34 183.999s54 107.333 94 150c40 42 87.167 75.167 141.5 99.5s113.166 36.5 176.499 36.5c62.667 0 121.167 -12.167 175.5 -36.5s101.5 -57.5 141.5 -99.5c40 -42.667 71.333 -92.667 94 -150s34 -118.666 34 -183.999
s-11.333 -126.5 -34 -183.5s-54 -106.833 -94 -149.5s-87.167 -76.334 -141.5 -101.001s-112.833 -37 -175.5 -37c-63.333 0 -122.166 12.333 -176.499 37s-101.5 58.334 -141.5 101.001s-71.333 92.5 -94 149.5s-34 118.167 -34 183.5zM508 485l125.001 -0.000976562
l120 -253h110l-147 287c44 14.667 77.667 35 101 61s35 57.667 35 95c0 64.667 -21.833 112.834 -65.5 144.501s-101.834 47.5 -174.501 47.5h-211v-635h107v253zM508.001 581.999l0.000976562 188.001h104c48.667 0 83 -7.33301 103 -22s30 -40.334 30 -77.001
c0 -14 -3.16699 -26.333 -9.5 -37s-14.5 -20 -24.5 -28c-10.667 -7.33301 -23.334 -13 -38.001 -17s-30 -6.33301 -46 -7h-119z" />
    <glyph glyph-name="macron" unicode="&#xaf;" 
d="M971 1313v143h-714v-143h714z" />
    <glyph glyph-name="macron" unicode="&#x2c9;" 
d="M971 1313v143h-714v-143h714z" />
    <glyph glyph-name="degree" unicode="&#xb0;" 
d="M361 1216c0 -36 6.83301 -69.499 20.5 -100.499s32.167 -57.833 55.5 -80.5c22.667 -23.333 49.5 -41.666 80.5 -54.999s63.833 -20 98.5 -20c34 0 66.167 6.66699 96.5 20s56.833 31.666 79.5 54.999c22.667 22.667 40.667 49.667 54 81s20 64.666 20 99.999
s-6.66699 68.833 -20 100.5s-31.333 59.5 -54 83.5c-22.667 23.333 -49.167 41.833 -79.5 55.5s-62.5 20.5 -96.5 20.5c-34.667 0 -67.5 -6.83301 -98.5 -20.5s-57.833 -32.167 -80.5 -55.5c-23.333 -24 -41.833 -51.833 -55.5 -83.5s-20.5 -65.167 -20.5 -100.5zM485 1216
c0 18.667 3.5 36.167 10.5 52.5s16.5 30.5 28.5 42.5c11.333 12 25 21.333 41 28s33 10 51 10s34.667 -3.33301 50 -10s29 -16 41 -28c11.333 -12 20.166 -26.167 26.499 -42.5s9.5 -33.833 9.5 -52.5c0 -18 -3.16699 -34.833 -9.5 -50.5s-15.166 -29.167 -26.499 -40.5
c-12 -12 -25.667 -21.167 -41 -27.5s-32 -9.5 -50 -9.5s-35 3.16699 -51 9.5s-29.667 15.5 -41 27.5c-12 11.333 -21.5 24.833 -28.5 40.5s-10.5 32.5 -10.5 50.5z" />
    <glyph glyph-name="plusminus" unicode="&#xb1;" 
d="M709 855v412h-168v-412h-385v-152h385v-414h168v414h363v152h-363zM1030 1v151h-835v-151h835z" />
    <glyph glyph-name="twosuperior" unicode="&#xb2;" 
d="M934 667l-0.00195312 128.001h-399l175 145c28.667 26 54.834 50.833 78.501 74.5s44.167 47.167 61.5 70.5c16.667 22.667 29.5 45.834 38.5 69.501s13.5 48.834 13.5 75.501c0 36.667 -6.66699 69.5 -20 98.5s-32.333 53.833 -57 74.5s-54.667 36.5 -90 47.5
s-75 16.5 -119 16.5c-46 0 -87.5 -6.83301 -124.5 -20.5s-68.5 -32.167 -94.5 -55.5c-26 -24 -46 -52 -60 -84s-21 -66 -21 -102h158c0 19.333 3 37.166 9 53.499s15 30.166 27 41.499c12 12 27.167 21.333 45.5 28s39.833 10 64.5 10c19.333 0 36.833 -2.66699 52.5 -8
s28.834 -13 39.501 -23s18.667 -21.667 24 -35s8 -28 8 -44c0 -14 -3.16699 -28.833 -9.5 -44.5s-16.5 -32.834 -30.5 -51.501c-9.33301 -12.667 -20.833 -26.167 -34.5 -40.5s-29.167 -29.5 -46.5 -45.5l-288 -271v-108h599z" />
    <glyph glyph-name="threesuperior" unicode="&#xb3;" 
d="M526 1125l0.00195312 -115.998h84c30 0 56.5 -3.33301 79.5 -10s41.167 -17.334 54.5 -32.001c8 -8.66699 14.167 -19 18.5 -31s6.5 -26 6.5 -42s-2.66699 -30.5 -8 -43.5s-13.333 -24.167 -24 -33.5c-12 -10.667 -27.5 -19 -46.5 -25s-40.5 -9 -64.5 -9
c-23.333 0 -44.5 3 -63.5 9s-34.833 14.333 -47.5 25c-10.667 9.33301 -19 20 -25 32s-9 25 -9 39h-158c0 -40.667 8.5 -75.667 25.5 -105s39.5 -53.333 67.5 -72c27.333 -19.333 58.833 -33.5 94.5 -42.5s72.5 -13.5 110.5 -13.5c42.667 0 82.667 5.16699 120 15.5
s70 25.166 98 44.499c27.333 19.333 48.833 43.333 64.5 72s23.5 61.667 23.5 99c0 24.667 -3.33301 47.167 -10 67.5s-17 38.166 -31 53.499c-12 14 -27.167 26.333 -45.5 37s-39.5 19.334 -63.5 26.001c18 6.66699 34.333 14.667 49 24s27.334 19.666 38.001 30.999
c16 16 28.167 33.833 36.5 53.5s12.5 40.5 12.5 62.5c0 36.667 -7.16699 69 -21.5 97s-34.5 51.667 -60.5 71c-26 18.667 -57 32.834 -93 42.501s-75.333 14.5 -118 14.5c-40 0 -77.333 -5.16699 -112 -15.5s-64.667 -24.833 -90 -43.5
c-26 -19.333 -46.5 -42.666 -61.5 -69.999s-22.5 -58 -22.5 -92h157c0 11.333 2.16699 21.833 6.5 31.5s10.166 17.834 17.499 24.501c11.333 12 26.333 21 45 27s39.667 9 63 9c21.333 0 40.166 -2.33301 56.499 -7s30.166 -11.334 41.499 -20.001
c11.333 -9.33301 20 -20.5 26 -33.5s9 -27.167 9 -42.5c0 -18.667 -3.83301 -35.334 -11.5 -50.001s-19.167 -26.667 -34.5 -36c-12 -7.33301 -26.5 -13 -43.5 -17s-35.833 -6 -56.5 -6h-84z" />
    <glyph glyph-name="acute" unicode="&#xb4;" 
d="M594 1481l-184 -266h140l268 266h-224z" />
    <glyph glyph-name="mu" unicode="&#xb5;" 
d="M373 1082l-185.001 -0.00292969v-1498h185v469c27.333 -24 60 -42.167 98 -54.5s81.333 -18.5 130 -18.5c34.667 0 66.5 4 95.5 12s55.5 19.667 79.5 35c16.667 11.333 32.334 24.5 47.001 39.5s28.334 31.5 41.001 49.5l9 -116h167v1082h-186v-799
c-7.33301 -18.667 -16.333 -35.667 -27 -51s-23.334 -29.333 -38.001 -42c-22 -19.333 -49.333 -34.166 -82 -44.499s-70.667 -15.5 -114 -15.5c-32 0 -61.5 4.66699 -88.5 14s-50.167 26.333 -69.5 51c-20 24.667 -35.333 58.334 -46 101.001s-16 97.334 -16 164.001v622z
" />
    <glyph glyph-name="paragraph" unicode="&#xb6;" 
d="M790 0l186 -0.00195312v1456h-273c-78.667 0 -148.5 -11.833 -209.5 -35.5s-112.5 -56.167 -154.5 -97.5c-42 -42 -73.833 -91.5 -95.5 -148.5s-32.5 -119.167 -32.5 -186.5c0 -68 10.833 -130.667 32.5 -188s53.5 -106.666 95.5 -147.999s93.5 -73.666 154.5 -96.999
s130.833 -35 209.5 -35h87v-520z" />
    <glyph glyph-name="periodcentered" unicode="&#xb7;" 
d="M504 729c0 -31.333 9.66699 -57.5 29 -78.5s48 -31.5 86 -31.5c37.333 0 65.833 10.5 85.5 31.5s29.5 47.167 29.5 78.5c0 32 -9.83301 58.667 -29.5 80s-48.167 32 -85.5 32c-38 0 -66.667 -10.667 -86 -32s-29 -48 -29 -80z" />
    <glyph glyph-name="cedilla" unicode="&#xb8;" 
d="M630 0h-133.003l-31 -134c26.667 -2 50 -5 70 -9s37 -9.33301 51 -16c13.333 -7.33301 23.333 -16.666 30 -27.999s10 -25.333 10 -42c0 -18 -4.5 -33.167 -13.5 -45.5s-20.833 -22.5 -35.5 -30.5c-15.333 -8 -33 -13.833 -53 -17.5s-41.333 -5.5 -64 -5.5l7 -107
c40.667 0 77.834 3.66699 111.501 11s62.834 17.333 87.501 30c33.333 18 59 41.333 77 70s27 61.667 27 99c0 28.667 -4.33301 53.167 -13 73.5s-20 37.166 -34 50.499c-14.667 13.333 -31.167 24 -49.5 32s-37.166 13.667 -56.499 17z" />
    <glyph glyph-name="onesuperior" unicode="&#xb9;" 
d="M758 665v789h-18l-354 -117v-128l215 57v-601h157z" />
    <glyph glyph-name="ordmasculine" unicode="&#xba;" 
d="M272 1141l0.00195312 -117c0 -48 8 -92.5 24 -133.5s39 -76.167 69 -105.5c29.333 -30 65.166 -53.333 107.499 -70s90.166 -25 143.499 -25c52.667 0 100 8.33301 142 25s77.667 40 107 70c29.333 29.333 51.833 64.5 67.5 105.5s23.5 85.5 23.5 133.5v117
c0 48.667 -7.83301 93.5 -23.5 134.5s-38.167 76.5 -67.5 106.5c-30 29.333 -66.167 52.333 -108.5 69s-89.833 25 -142.5 25s-100 -8.33301 -142 -25s-77.667 -39.667 -107 -69c-30 -30 -53 -65.5 -69 -106.5s-24 -85.833 -24 -134.5zM435.002 1024l0.00195312 117
c0 27.333 3.66699 52.833 11 76.5s18.666 44.5 33.999 62.5c14.667 17.333 33.167 31 55.5 41s48.5 15 78.5 15s56.167 -5 78.5 -15s41.166 -23.667 56.499 -41c14.667 -18 25.834 -38.833 33.501 -62.5s11.5 -49.167 11.5 -76.5v-117c0 -28 -3.83301 -53.833 -11.5 -77.5
s-18.834 -44.167 -33.501 -61.5s-33.167 -31 -55.5 -41s-48.166 -15 -77.499 -15c-30.667 0 -57.334 5 -80.001 15s-41.334 23.667 -56.001 41c-15.333 17.333 -26.666 37.833 -33.999 61.5s-11 49.5 -11 77.5z" />
    <glyph glyph-name="guillemotright" unicode="&#xbb;" 
d="M383 949h-142l258 -399l-258 -398h142l294 389v19zM728 949h-142l258 -399l-258 -398h142l294 389v19z" />
    <glyph glyph-name="onequarter" unicode="&#xbc;" 
d="M383 751v710h-16l-319 -105v-115l194 51v-541h141zM1068 269v441h-145l-339 -466l5 -92h338v-152h141v152h96v117h-96zM726 269l186 235l15 25v-260h-201zM402 221l514 954l-114 66l-513 -954z" />
    <glyph glyph-name="onehalf" unicode="&#xbd;" 
d="M371 747v710h-16l-319 -105v-115l194 51v-541h141zM1174 0l0.00195312 115.002h-359l157 131c26 23.333 49.667 45.666 71 66.999s39.666 42.333 54.999 63s27 41.667 35 63s12 44 12 68c0 32.667 -6 62.167 -18 88.5s-29 48.5 -51 66.5
c-22.667 18.667 -49.834 33 -81.501 43s-67.167 15 -106.5 15c-41.333 0 -78.666 -6.16699 -111.999 -18.5s-61.666 -28.833 -84.999 -49.5c-24 -22 -42.167 -47.333 -54.5 -76s-18.5 -59.334 -18.5 -92.001h142c0.666992 18 3.66699 34.333 9 49s13.666 27.667 24.999 39
c10.667 10 24.167 17.833 40.5 23.5s35.166 8.5 56.499 8.5c17.333 0 32.833 -2.33301 46.5 -7s25.167 -11 34.5 -19c10 -9.33301 17.667 -20.166 23 -32.499s8 -25.833 8 -40.5c0 -11.333 -2.33301 -23.166 -7 -35.499s-12 -25.833 -22 -40.5
c-8.66699 -12.667 -19.667 -26.334 -33 -41.001s-29 -30.334 -47 -47.001l-259 -244v-97h539zM342.002 221.002l514 954l-114 66l-513 -954z" />
    <glyph glyph-name="threequarters" unicode="&#xbe;" 
d="M1101 269v441h-145l-339 -466l5 -92h338v-152h141v152h96v117h-96zM759 269l186 235l15 25v-260h-201zM221 1157l-0.00292969 -104h75c22.667 0 43.167 -2.16699 61.5 -6.5s33.833 -10.833 46.5 -19.5c11.333 -8 20 -18.5 26 -31.5s9 -28.5 9 -46.5
c0 -14 -2.5 -27 -7.5 -39s-12.167 -22.333 -21.5 -31c-12 -9.33301 -26.167 -16.666 -42.5 -21.999s-35.166 -8 -56.499 -8c-22.667 0 -42.667 3 -60 9s-31.666 14.333 -42.999 25c-9.33301 7.33301 -16.333 16.333 -21 27s-7 22 -7 34h-142
c0 -36.667 7.66699 -68.167 23 -94.5s35.666 -47.833 60.999 -64.5c24 -18 52.167 -31 84.5 -39s65.5 -12 99.5 -12c38.667 0 74.667 4.66699 108 14s62.666 22.666 87.999 39.999c24.667 17.333 44 39 58 65s21 55.667 21 89c0 24 -3.5 45.833 -10.5 65.5
s-17.833 36.5 -32.5 50.5c-10.667 10.667 -23.667 20.334 -39 29.001s-33 15.667 -53 21c16.667 6 31.5 13.167 44.5 21.5s24.833 17.5 35.5 27.5c13.333 14.667 23.833 30.834 31.5 48.501s11.5 36.5 11.5 56.5c0 32.667 -6.5 61.667 -19.5 87s-31.167 46.666 -54.5 63.999
c-23.333 16.667 -51.166 29.334 -83.499 38.001s-67.833 13 -106.5 13c-36 0 -69.5 -4.66699 -100.5 -14s-58.167 -22.333 -81.5 -39c-23.333 -17.333 -41.666 -38.333 -54.999 -63s-20 -52.334 -20 -83.001h141c0 11.333 2.33301 21.666 7 30.999s11 17.666 19 24.999
c10.667 8.66699 24 15.334 40 20.001s33.667 7 53 7c20.667 0 38.834 -2.5 54.501 -7.5s28.5 -12.167 38.5 -21.5c8.66699 -8 15.334 -17.5 20.001 -28.5s7 -22.833 7 -35.5c0 -15.333 -3.16699 -29.333 -9.5 -42s-15.5 -23.334 -27.5 -32.001
c-11.333 -7.33301 -24.833 -13.166 -40.5 -17.499s-33.834 -6.5 -54.501 -6.5h-75zM468.997 220l514 954l-114 66l-513 -954z" />
    <glyph glyph-name="questiondown" unicode="&#xbf;" 
d="M724 673l-185 0.00292969c0 -26 -0.5 -49 -1.5 -69s-3.83301 -38.667 -8.5 -56c-5.33301 -18 -13.333 -35.333 -24 -52s-25.667 -34.667 -45 -54c-30 -28.667 -60.167 -59.5 -90.5 -92.5s-57.5 -68.167 -81.5 -105.5c-24.667 -38 -44.834 -78.333 -60.501 -121
s-23.5 -88 -23.5 -136c0 -60 9.16699 -113.333 27.5 -160s45.166 -86.334 80.499 -119.001c34.667 -32.667 77.5 -57.5 128.5 -74.5s108.833 -25.5 173.5 -25.5c58 0 111.833 8.16699 161.5 24.5s92.834 40.166 129.501 71.499c36.667 30.667 65.5 68.334 86.5 113.001
s31.833 95 32.5 151h-185c0 -34.667 -6.33301 -64.5 -19 -89.5s-29.334 -45.5 -50.001 -61.5c-21.333 -16.667 -45.5 -28.834 -72.5 -36.501s-54.833 -11.5 -83.5 -11.5c-37.333 0 -70.5 5.16699 -99.5 15.5s-52.833 25.5 -71.5 45.5c-18 18.667 -31.5 41.667 -40.5 69
s-13.5 58.666 -13.5 93.999c0 34 5.83301 66 17.5 96s26.834 58.667 45.501 86c18 27.333 38 53.5 60 78.5l64 72.5c32.667 30 58.834 56.167 78.501 78.5s34.5 45.5 44.5 69.5s16.5 51.333 19.5 82s4.83301 69.667 5.5 117zM509 988.003c0 -30.667 9.66699 -56.5 29 -77.5
s48 -31.5 86 -31.5s66.667 10.5 86 31.5s29 46.833 29 77.5c0 32 -9.66699 58.833 -29 80.5s-48 32.5 -86 32.5s-66.667 -10.833 -86 -32.5s-29 -48.5 -29 -80.5z" />
    <glyph glyph-name="Agrave" unicode="&#xc0;" 
d="M869 377l115 -377h184l-462 1456h-155l-470 -1456h185l117 377h486zM433 538l195 632l192 -632h-387zM710 1561l-175 266h-223l248 -266h150z" />
    <glyph glyph-name="Aacute" unicode="&#xc1;" 
d="M869 377l115 -377h184l-462 1456h-155l-470 -1456h185l117 377h486zM433 538l195 632l192 -632h-387zM727 1824l-184 -266h140l268 266h-224z" />
    <glyph glyph-name="Acircumflex" unicode="&#xc2;" 
d="M869 377l115 -377h184l-462 1456h-155l-470 -1456h185l117 377h486zM433 538l195 632l192 -632h-387zM933 1624l-248 240h-112l-245 -239v-26h152l149 151l150 -151h154v25z" />
    <glyph glyph-name="Atilde" unicode="&#xc3;" 
d="M869 377l115 -377h184l-462 1456h-155l-470 -1456h185l117 377h486zM433 538l195 632l192 -632h-387zM973 1844l-103.001 30c0 -15.333 -2.83301 -29.833 -8.5 -43.5s-12.834 -25.5 -21.501 -35.5c-9.33301 -10 -20.333 -18 -33 -24s-26 -9 -40 -9
c-26 0 -49.833 5 -71.5 15s-42.834 21 -63.501 33c-21.333 11.333 -43.166 22 -65.499 32s-47.5 15 -75.5 15c-30.667 0 -58.5 -6.33301 -83.5 -19s-46.5 -29.334 -64.5 -50.001c-18 -21.333 -32.167 -45.833 -42.5 -73.5s-15.5 -56.5 -15.5 -86.5l104 -24
c0.666992 30.667 10.5 56.834 29.5 78.501s43.167 32.5 72.5 32.5c18 0 34.333 -2.33301 49 -7s28.667 -10.334 42 -17.001c12.667 -7.33301 25.334 -15.166 38.001 -23.499s26.334 -15.833 41.001 -22.5c14 -7.33301 29.667 -13.333 47 -18s37 -7 59 -7
c30 0 57.667 6 83 18s47 28.333 65 49c18 20 32.167 43.667 42.5 71s15.5 56 15.5 86z" />
    <glyph glyph-name="Adieresis" unicode="&#xc4;" 
d="M869 377l115 -377h184l-462 1456h-155l-470 -1456h185l117 377h486zM433 538l195 632l192 -632h-387zM302 1718c0 -30 9.16699 -55 27.5 -75s45.5 -30 81.5 -30s63.333 10 82 30s28 45 28 75s-9.33301 55.167 -28 75.5s-46 30.5 -82 30.5s-63.167 -10.167 -81.5 -30.5
s-27.5 -45.5 -27.5 -75.5zM732 1716c0 -29.333 9.16699 -54.166 27.5 -74.499s45.5 -30.5 81.5 -30.5s63.333 10.167 82 30.5s28 45.166 28 74.499c0 30 -9.33301 55.333 -28 76s-46 31 -82 31s-63.167 -10.333 -81.5 -31s-27.5 -46 -27.5 -76z" />
    <glyph glyph-name="Aring" unicode="&#xc5;" 
d="M869 377l115 -377h184l-462 1456h-155l-470 -1456h185l117 377h486zM433 538l195 632l192 -632h-387zM424 1732c0 -28.667 5.5 -55 16.5 -79s25.833 -44.333 44.5 -61c18 -17.333 39.5 -30.666 64.5 -39.999s51.5 -14 79.5 -14s54.167 4.66699 78.5 14
s45.833 22.666 64.5 39.999c18 16.667 32.333 37 43 61s16 50.333 16 79s-5.33301 55.167 -16 79.5s-25 45.5 -43 63.5c-18.667 17.333 -40.167 31 -64.5 41s-50.5 15 -78.5 15s-54.5 -5 -79.5 -15s-46.5 -23.667 -64.5 -41c-18.667 -18 -33.5 -39.167 -44.5 -63.5
s-16.5 -50.833 -16.5 -79.5zM523 1732c0 16.667 3.00098 31.8311 9.00098 45.498s14 25.5 24 35.5c9.33301 8.66699 20.333 15.5 33 20.5s26 7.5 40 7.5c14.667 0 28.167 -2.5 40.5 -7.5s23.166 -12.167 32.499 -21.5c9.33301 -10 16.666 -21.833 21.999 -35.5
s8 -28.5 8 -44.5c0 -15.333 -2.66699 -29.333 -8 -42s-12.666 -23.667 -21.999 -33s-20.166 -16.666 -32.499 -21.999s-25.833 -8 -40.5 -8s-28.334 2.66699 -41.001 8s-23.667 13 -33 23c-10 9.33301 -17.833 20.333 -23.5 33s-8.5 26.334 -8.5 41.001z" />
    <glyph glyph-name="AE" unicode="&#xc6;" 
d="M1195 0v151h-357l-1 531h302v151h-302l-2 471h337v152h-580l-560 -1456h198l123 353h310l1 -353h531zM414 527l247 706l2 -706h-249z" />
    <glyph glyph-name="Ccedilla" unicode="&#xc7;" 
d="M1117 438l-185 0.000976562c-6 -44 -16.333 -84.833 -31 -122.5s-34.334 -70.167 -59.001 -97.5c-24.667 -28 -54.834 -49.667 -90.501 -65s-77.834 -23 -126.501 -23c-44.667 0 -83.667 7.16699 -117 21.5s-62.333 34.166 -87 59.499
c-24.667 24.667 -45 53.334 -61 86.001s-29 67.667 -39 105c-10 36.667 -17.167 74.167 -21.5 112.5s-6.5 75.5 -6.5 111.5v205c0 36 2.16699 73.167 6.5 111.5s11.5 75.833 21.5 112.5s23.167 71.334 39.5 104.001s36.833 61.334 61.5 86.001
c24 24.667 52.833 44.167 86.5 58.5s72.5 21.5 116.5 21.5c48.667 0 90.834 -8.16699 126.501 -24.5s65.834 -38.833 90.501 -67.5s44.334 -62 59.001 -100s25 -79 31 -123h185c-8 69.333 -24.5 132.666 -49.5 189.999s-58.167 106.666 -99.5 147.999
c-41.333 40.667 -90.666 72.167 -147.999 94.5s-122.333 33.5 -195 33.5c-60.667 0 -115.334 -8.5 -164.001 -25.5s-92 -40.5 -130 -70.5c-38.667 -30 -71.834 -65.5 -99.501 -106.5s-50.5 -85.5 -68.5 -133.5c-18.667 -48 -32.5 -98.333 -41.5 -151
s-13.833 -106 -14.5 -160v-203c0.666992 -54 5.5 -107.333 14.5 -160s22.833 -103 41.5 -151c18 -48 40.833 -92.333 68.5 -133s60.834 -76 99.501 -106c38 -30 81.5 -53.5 130.5 -70.5s103.5 -25.5 163.5 -25.5c70 0 133.5 11.167 190.5 33.5s106.5 53.833 148.5 94.5
c41.333 40 75 88.167 101 144.5s43.333 118.166 52 185.499zM684 0.000976562h-133.003l-31 -134c26.667 -2 50 -5 70 -9s37 -9.33301 51 -16c13.333 -7.33301 23.333 -16.666 30 -27.999s10 -25.333 10 -42c0 -18 -4.5 -33.167 -13.5 -45.5s-20.833 -22.5 -35.5 -30.5
c-15.333 -8 -33 -13.833 -53 -17.5s-41.333 -5.5 -64 -5.5l7 -107c40.667 0 77.834 3.66699 111.501 11s62.834 17.333 87.501 30c33.333 18 59 41.333 77 70s27 61.667 27 99c0 28.667 -4.33301 53.167 -13 73.5s-20 37.166 -34 50.499c-14.667 13.333 -31.167 24 -49.5 32
s-37.166 13.667 -56.499 17z" />
    <glyph glyph-name="Egrave" unicode="&#xc8;" 
d="M975 673v157h-608v468h700v158h-885v-1456h894v157h-709v516h608zM700 1561l-175 266h-223l248 -266h150z" />
    <glyph glyph-name="Eacute" unicode="&#xc9;" 
d="M975 673v157h-608v468h700v158h-885v-1456h894v157h-709v516h608zM717 1824l-184 -266h140l268 266h-224z" />
    <glyph glyph-name="Ecircumflex" unicode="&#xca;" 
d="M975 673v157h-608v468h700v158h-885v-1456h894v157h-709v516h608zM923 1624l-248 240h-112l-245 -239v-26h152l149 151l150 -151h154v25z" />
    <glyph glyph-name="Edieresis" unicode="&#xcb;" 
d="M975 673v157h-608v468h700v158h-885v-1456h894v157h-709v516h608zM292 1718c0 -30 9.16699 -55 27.5 -75s45.5 -30 81.5 -30s63.333 10 82 30s28 45 28 75s-9.33301 55.167 -28 75.5s-46 30.5 -82 30.5s-63.167 -10.167 -81.5 -30.5s-27.5 -45.5 -27.5 -75.5zM722 1716
c0 -29.333 9.16699 -54.166 27.5 -74.499s45.5 -30.5 81.5 -30.5s63.333 10.167 82 30.5s28 45.166 28 74.499c0 30 -9.33301 55.333 -28 76s-46 31 -82 31s-63.167 -10.333 -81.5 -31s-27.5 -46 -27.5 -76z" />
    <glyph glyph-name="Igrave" unicode="&#xcc;" 
d="M174 1456v-161h341v-1135h-341v-160h880v160h-349v1135h349v161h-880zM648 1561l-175 266h-223l248 -266h150z" />
    <glyph glyph-name="Iacute" unicode="&#xcd;" 
d="M174 1456v-161h341v-1135h-341v-160h880v160h-349v1135h349v161h-880zM665 1824l-184 -266h140l268 266h-224z" />
    <glyph glyph-name="Icircumflex" unicode="&#xce;" 
d="M174 1456v-161h341v-1135h-341v-160h880v160h-349v1135h349v161h-880zM871 1624l-248 240h-112l-245 -239v-26h152l149 151l150 -151h154v25z" />
    <glyph glyph-name="Idieresis" unicode="&#xcf;" 
d="M174 1456v-161h341v-1135h-341v-160h880v160h-349v1135h349v161h-880zM241 1718c0 -30 9.16699 -55 27.5 -75s45.5 -30 81.5 -30s63.333 10 82 30s28 45 28 75s-9.33301 55.167 -28 75.5s-46 30.5 -82 30.5s-63.167 -10.167 -81.5 -30.5s-27.5 -45.5 -27.5 -75.5z
M671 1716c0 -29.333 9.16699 -54.166 27.5 -74.499s45.5 -30.5 81.5 -30.5s63.333 10.167 82 30.5s28 45.166 28 74.499c0 30 -9.33301 55.333 -28 76s-46 31 -82 31s-63.167 -10.333 -81.5 -31s-27.5 -46 -27.5 -76z" />
    <glyph glyph-name="Eth" unicode="&#xd0;" 
d="M170 0l337 0.000976562c101.333 0.666992 191.833 17.5 271.5 50.5s147.167 79.167 202.5 138.5c54.667 58.667 96.5 129.167 125.5 211.5s43.833 173.5 44.5 273.5v107c-0.666992 100 -15.5 191.167 -44.5 273.5s-70.833 153.166 -125.5 212.499
c-55.333 58.667 -122.833 104.5 -202.5 137.5s-170.167 50.167 -271.5 51.5h-337v-639h-229v-151h229v-666zM578 666.001l-0.000976562 151h-220v487h149c78.667 -1.33301 146.667 -15.333 204 -42s104.666 -63 141.999 -109c37.333 -46.667 65.333 -101.5 84 -164.5
s28.334 -131.5 29.001 -205.5v-109c-0.666992 -74 -10.167 -142.667 -28.5 -206s-46.166 -118.333 -83.499 -165c-38 -46.667 -85.667 -83.5 -143 -110.5s-125.333 -40.833 -204 -41.5h-149v515h220z" />
    <glyph glyph-name="Ntilde" unicode="&#xd1;" 
d="M1086 0v1456h-187l-3 -1086l-565 1086h-188v-1456h187l3 1088l565 -1088h188zM934 1844l-103.001 30c0 -15.333 -2.83301 -29.833 -8.5 -43.5s-12.834 -25.5 -21.501 -35.5c-9.33301 -10 -20.333 -18 -33 -24s-26 -9 -40 -9c-26 0 -49.833 5 -71.5 15
s-42.834 21 -63.501 33c-21.333 11.333 -43.166 22 -65.499 32s-47.5 15 -75.5 15c-30.667 0 -58.5 -6.33301 -83.5 -19s-46.5 -29.334 -64.5 -50.001c-18 -21.333 -32.167 -45.833 -42.5 -73.5s-15.5 -56.5 -15.5 -86.5l104 -24c0.666992 30.667 10.5 56.834 29.5 78.501
s43.167 32.5 72.5 32.5c18 0 34.333 -2.33301 49 -7s28.667 -10.334 42 -17.001c12.667 -7.33301 25.334 -15.166 38.001 -23.499s26.334 -15.833 41.001 -22.5c14 -7.33301 29.667 -13.333 47 -18s37 -7 59 -7c30 0 57.667 6 83 18s47 28.333 65 49
c18 20 32.167 43.667 42.5 71s15.5 56 15.5 86z" />
    <glyph glyph-name="Ograve" unicode="&#xd2;" 
d="M1121 644l0.00195312 166.001c-0.666992 52 -5.16699 104.667 -13.5 158s-21.166 104.666 -38.499 153.999c-18 49.333 -40.5 95.5 -67.5 138.5s-59.167 80.5 -96.5 112.5s-80.333 57.167 -129 75.5s-103 27.5 -163 27.5s-114.167 -9.16699 -162.5 -27.5
s-91.166 -43.5 -128.499 -75.5c-37.333 -32.667 -69.5 -70.5 -96.5 -113.5s-49.167 -89.167 -66.5 -138.5c-18 -49.333 -31.167 -100.5 -39.5 -153.5s-12.833 -105.5 -13.5 -157.5v-166c0.666992 -52 5.33398 -104.333 14.001 -157s22 -103.667 40 -153
c17.333 -49.333 39.666 -95.5 66.999 -138.5s59.666 -80.5 96.999 -112.5s80.166 -57.167 128.499 -75.5s102.5 -27.5 162.5 -27.5s114.167 9.16699 162.5 27.5s91.166 43.5 128.499 75.5s69.5 69.333 96.5 112s49.167 88.667 66.5 138s30.166 100.5 38.499 153.5
s12.833 105.5 13.5 157.5zM938.002 812.001v-167.998c-0.666992 -34.667 -2.83398 -71 -6.50098 -109s-10.167 -75.333 -19.5 -112c-10 -37.333 -22.833 -72.833 -38.5 -106.5s-35.167 -63.167 -58.5 -88.5c-24 -26 -52.5 -46.667 -85.5 -62s-71.167 -23 -114.5 -23
s-81.333 7.66699 -114 23s-61 36 -85 62c-24 25.333 -44 55 -60 89s-29 69.667 -39 107c-10 36.667 -17.167 74 -21.5 112s-6.83301 74 -7.5 108v168c0.666992 34 3.16699 69.833 7.5 107.5s11.5 75.167 21.5 112.5c9.33301 36.667 22 71.834 38 105.501s36 63.5 60 89.5
c24 25.333 52.333 45.666 85 60.999s70.334 23 113.001 23c43.333 0 81.333 -7.5 114 -22.5s61 -35.167 85 -60.5c24 -26 44 -55.833 60 -89.5s29 -68.834 39 -105.501c9.33301 -37.333 16 -74.833 20 -112.5s6.33301 -73.834 7 -108.501zM714.002 1582l-175 266h-223
l248 -266h150z" />
    <glyph glyph-name="Oacute" unicode="&#xd3;" 
d="M1121 644l0.00195312 166.001c-0.666992 52 -5.16699 104.667 -13.5 158s-21.166 104.666 -38.499 153.999c-18 49.333 -40.5 95.5 -67.5 138.5s-59.167 80.5 -96.5 112.5s-80.333 57.167 -129 75.5s-103 27.5 -163 27.5s-114.167 -9.16699 -162.5 -27.5
s-91.166 -43.5 -128.499 -75.5c-37.333 -32.667 -69.5 -70.5 -96.5 -113.5s-49.167 -89.167 -66.5 -138.5c-18 -49.333 -31.167 -100.5 -39.5 -153.5s-12.833 -105.5 -13.5 -157.5v-166c0.666992 -52 5.33398 -104.333 14.001 -157s22 -103.667 40 -153
c17.333 -49.333 39.666 -95.5 66.999 -138.5s59.666 -80.5 96.999 -112.5s80.166 -57.167 128.499 -75.5s102.5 -27.5 162.5 -27.5s114.167 9.16699 162.5 27.5s91.166 43.5 128.499 75.5s69.5 69.333 96.5 112s49.167 88.667 66.5 138s30.166 100.5 38.499 153.5
s12.833 105.5 13.5 157.5zM938.002 812.001v-167.998c-0.666992 -34.667 -2.83398 -71 -6.50098 -109s-10.167 -75.333 -19.5 -112c-10 -37.333 -22.833 -72.833 -38.5 -106.5s-35.167 -63.167 -58.5 -88.5c-24 -26 -52.5 -46.667 -85.5 -62s-71.167 -23 -114.5 -23
s-81.333 7.66699 -114 23s-61 36 -85 62c-24 25.333 -44 55 -60 89s-29 69.667 -39 107c-10 36.667 -17.167 74 -21.5 112s-6.83301 74 -7.5 108v168c0.666992 34 3.16699 69.833 7.5 107.5s11.5 75.167 21.5 112.5c9.33301 36.667 22 71.834 38 105.501s36 63.5 60 89.5
c24 25.333 52.333 45.666 85 60.999s70.334 23 113.001 23c43.333 0 81.333 -7.5 114 -22.5s61 -35.167 85 -60.5c24 -26 44 -55.833 60 -89.5s29 -68.834 39 -105.501c9.33301 -37.333 16 -74.833 20 -112.5s6.33301 -73.834 7 -108.501zM731.002 1845l-184 -266h140
l268 266h-224z" />
    <glyph glyph-name="Ocircumflex" unicode="&#xd4;" 
d="M1121 644l0.00195312 166.001c-0.666992 52 -5.16699 104.667 -13.5 158s-21.166 104.666 -38.499 153.999c-18 49.333 -40.5 95.5 -67.5 138.5s-59.167 80.5 -96.5 112.5s-80.333 57.167 -129 75.5s-103 27.5 -163 27.5s-114.167 -9.16699 -162.5 -27.5
s-91.166 -43.5 -128.499 -75.5c-37.333 -32.667 -69.5 -70.5 -96.5 -113.5s-49.167 -89.167 -66.5 -138.5c-18 -49.333 -31.167 -100.5 -39.5 -153.5s-12.833 -105.5 -13.5 -157.5v-166c0.666992 -52 5.33398 -104.333 14.001 -157s22 -103.667 40 -153
c17.333 -49.333 39.666 -95.5 66.999 -138.5s59.666 -80.5 96.999 -112.5s80.166 -57.167 128.499 -75.5s102.5 -27.5 162.5 -27.5s114.167 9.16699 162.5 27.5s91.166 43.5 128.499 75.5s69.5 69.333 96.5 112s49.167 88.667 66.5 138s30.166 100.5 38.499 153.5
s12.833 105.5 13.5 157.5zM938.002 812.001v-167.998c-0.666992 -34.667 -2.83398 -71 -6.50098 -109s-10.167 -75.333 -19.5 -112c-10 -37.333 -22.833 -72.833 -38.5 -106.5s-35.167 -63.167 -58.5 -88.5c-24 -26 -52.5 -46.667 -85.5 -62s-71.167 -23 -114.5 -23
s-81.333 7.66699 -114 23s-61 36 -85 62c-24 25.333 -44 55 -60 89s-29 69.667 -39 107c-10 36.667 -17.167 74 -21.5 112s-6.83301 74 -7.5 108v168c0.666992 34 3.16699 69.833 7.5 107.5s11.5 75.167 21.5 112.5c9.33301 36.667 22 71.834 38 105.501s36 63.5 60 89.5
c24 25.333 52.333 45.666 85 60.999s70.334 23 113.001 23c43.333 0 81.333 -7.5 114 -22.5s61 -35.167 85 -60.5c24 -26 44 -55.833 60 -89.5s29 -68.834 39 -105.501c9.33301 -37.333 16 -74.833 20 -112.5s6.33301 -73.834 7 -108.501zM937.002 1645l-248 240h-112
l-245 -239v-26h152l149 151l150 -151h154v25z" />
    <glyph glyph-name="Otilde" unicode="&#xd5;" 
d="M1121 644l0.00195312 166.001c-0.666992 52 -5.16699 104.667 -13.5 158s-21.166 104.666 -38.499 153.999c-18 49.333 -40.5 95.5 -67.5 138.5s-59.167 80.5 -96.5 112.5s-80.333 57.167 -129 75.5s-103 27.5 -163 27.5s-114.167 -9.16699 -162.5 -27.5
s-91.166 -43.5 -128.499 -75.5c-37.333 -32.667 -69.5 -70.5 -96.5 -113.5s-49.167 -89.167 -66.5 -138.5c-18 -49.333 -31.167 -100.5 -39.5 -153.5s-12.833 -105.5 -13.5 -157.5v-166c0.666992 -52 5.33398 -104.333 14.001 -157s22 -103.667 40 -153
c17.333 -49.333 39.666 -95.5 66.999 -138.5s59.666 -80.5 96.999 -112.5s80.166 -57.167 128.499 -75.5s102.5 -27.5 162.5 -27.5s114.167 9.16699 162.5 27.5s91.166 43.5 128.499 75.5s69.5 69.333 96.5 112s49.167 88.667 66.5 138s30.166 100.5 38.499 153.5
s12.833 105.5 13.5 157.5zM938.002 812.001v-167.998c-0.666992 -34.667 -2.83398 -71 -6.50098 -109s-10.167 -75.333 -19.5 -112c-10 -37.333 -22.833 -72.833 -38.5 -106.5s-35.167 -63.167 -58.5 -88.5c-24 -26 -52.5 -46.667 -85.5 -62s-71.167 -23 -114.5 -23
s-81.333 7.66699 -114 23s-61 36 -85 62c-24 25.333 -44 55 -60 89s-29 69.667 -39 107c-10 36.667 -17.167 74 -21.5 112s-6.83301 74 -7.5 108v168c0.666992 34 3.16699 69.833 7.5 107.5s11.5 75.167 21.5 112.5c9.33301 36.667 22 71.834 38 105.501s36 63.5 60 89.5
c24 25.333 52.333 45.666 85 60.999s70.334 23 113.001 23c43.333 0 81.333 -7.5 114 -22.5s61 -35.167 85 -60.5c24 -26 44 -55.833 60 -89.5s29 -68.834 39 -105.501c9.33301 -37.333 16 -74.833 20 -112.5s6.33301 -73.834 7 -108.501zM977.002 1865l-103.001 30
c0 -15.333 -2.83301 -29.833 -8.5 -43.5s-12.834 -25.5 -21.501 -35.5c-9.33301 -10 -20.333 -18 -33 -24s-26 -9 -40 -9c-26 0 -49.833 5 -71.5 15s-42.834 21 -63.501 33c-21.333 11.333 -43.166 22 -65.499 32s-47.5 15 -75.5 15c-30.667 0 -58.5 -6.33301 -83.5 -19
s-46.5 -29.334 -64.5 -50.001c-18 -21.333 -32.167 -45.833 -42.5 -73.5s-15.5 -56.5 -15.5 -86.5l104 -24c0.666992 30.667 10.5 56.834 29.5 78.501s43.167 32.5 72.5 32.5c18 0 34.333 -2.33301 49 -7s28.667 -10.334 42 -17.001
c12.667 -7.33301 25.334 -15.166 38.001 -23.499s26.334 -15.833 41.001 -22.5c14 -7.33301 29.667 -13.333 47 -18s37 -7 59 -7c30 0 57.667 6 83 18s47 28.333 65 49c18 20 32.167 43.667 42.5 71s15.5 56 15.5 86z" />
    <glyph glyph-name="Odieresis" unicode="&#xd6;" 
d="M1121 644l0.00195312 166.001c-0.666992 52 -5.16699 104.667 -13.5 158s-21.166 104.666 -38.499 153.999c-18 49.333 -40.5 95.5 -67.5 138.5s-59.167 80.5 -96.5 112.5s-80.333 57.167 -129 75.5s-103 27.5 -163 27.5s-114.167 -9.16699 -162.5 -27.5
s-91.166 -43.5 -128.499 -75.5c-37.333 -32.667 -69.5 -70.5 -96.5 -113.5s-49.167 -89.167 -66.5 -138.5c-18 -49.333 -31.167 -100.5 -39.5 -153.5s-12.833 -105.5 -13.5 -157.5v-166c0.666992 -52 5.33398 -104.333 14.001 -157s22 -103.667 40 -153
c17.333 -49.333 39.666 -95.5 66.999 -138.5s59.666 -80.5 96.999 -112.5s80.166 -57.167 128.499 -75.5s102.5 -27.5 162.5 -27.5s114.167 9.16699 162.5 27.5s91.166 43.5 128.499 75.5s69.5 69.333 96.5 112s49.167 88.667 66.5 138s30.166 100.5 38.499 153.5
s12.833 105.5 13.5 157.5zM938.002 812.001v-167.998c-0.666992 -34.667 -2.83398 -71 -6.50098 -109s-10.167 -75.333 -19.5 -112c-10 -37.333 -22.833 -72.833 -38.5 -106.5s-35.167 -63.167 -58.5 -88.5c-24 -26 -52.5 -46.667 -85.5 -62s-71.167 -23 -114.5 -23
s-81.333 7.66699 -114 23s-61 36 -85 62c-24 25.333 -44 55 -60 89s-29 69.667 -39 107c-10 36.667 -17.167 74 -21.5 112s-6.83301 74 -7.5 108v168c0.666992 34 3.16699 69.833 7.5 107.5s11.5 75.167 21.5 112.5c9.33301 36.667 22 71.834 38 105.501s36 63.5 60 89.5
c24 25.333 52.333 45.666 85 60.999s70.334 23 113.001 23c43.333 0 81.333 -7.5 114 -22.5s61 -35.167 85 -60.5c24 -26 44 -55.833 60 -89.5s29 -68.834 39 -105.501c9.33301 -37.333 16 -74.833 20 -112.5s6.33301 -73.834 7 -108.501zM306.002 1739
c0 -30 9.16699 -55 27.5 -75s45.5 -30 81.5 -30s63.333 10 82 30s28 45 28 75s-9.33301 55.167 -28 75.5s-46 30.5 -82 30.5s-63.167 -10.167 -81.5 -30.5s-27.5 -45.5 -27.5 -75.5zM736.002 1737c0 -29.333 9.16699 -54.166 27.5 -74.499s45.5 -30.5 81.5 -30.5
s63.333 10.167 82 30.5s28 45.166 28 74.499c0 30 -9.33301 55.333 -28 76s-46 31 -82 31s-63.167 -10.333 -81.5 -31s-27.5 -46 -27.5 -76z" />
    <glyph glyph-name="multiply" unicode="&#xd7;" 
d="M181 329l119 -123l331 337l332 -337l119 123l-331 337l328 334l-119 123l-329 -335l-328 335l-119 -123l327 -334z" />
    <glyph glyph-name="Oslash" unicode="&#xd8;" 
d="M1112 644l0.99707 166.001c0.666992 74 -8.16602 149 -26.499 225s-46.166 145.667 -83.499 209l161 272h-142l-99 -168c-16 16 -33.167 30.833 -51.5 44.5s-37.833 25.834 -58.5 36.501c-29.333 14.667 -61.333 26.167 -96 34.5s-72 12.5 -112 12.5
c-86.667 0 -161.334 -18.833 -224.001 -56.5s-113.667 -85.834 -153 -144.501c-44.667 -62.667 -77.167 -135.5 -97.5 -218.5s-31.166 -165.167 -32.499 -246.5v-166c0 -40.667 2.66699 -81.834 8 -123.501s13.666 -82.5 24.999 -122.5
c10.667 -40 24.334 -78.667 41.001 -116s36.334 -72.333 59.001 -105l-160 -270h142l104 176c38 -32 80.667 -57.167 128 -75.5s101.333 -27.5 162 -27.5c82.667 0 154.667 17.667 216 53s112.333 81.333 153 138c46.667 64 81 138.167 103 222.5s33 167.833 33 250.5z
M279.997 644.001l0.000976562 168.003c0 53.333 5.83301 111.166 17.5 173.499s31.167 119.166 58.5 170.499c24.667 42.667 57.167 79.167 97.5 109.5s90.833 45.5 151.5 45.5c28 0 53.667 -3.16699 77 -9.5s44.666 -15.5 63.999 -27.5c17.333 -10 33 -21.833 47 -35.5
s26.667 -28.834 38 -45.501l-498 -843c-7.33301 17.333 -13.833 35.5 -19.5 54.5s-10.5 37.833 -14.5 56.5c-6.66699 30.667 -11.5 61.667 -14.5 93s-4.5 61.333 -4.5 90zM929.998 812.004l-0.00292969 -168c-1.33301 -63.333 -8.16602 -129.5 -20.499 -198.5
s-38.5 -131.167 -78.5 -186.5c-25.333 -34.667 -56.166 -62.667 -92.499 -84s-80.166 -32 -131.499 -32c-44 0 -82.667 7.83301 -116 23.5s-62.333 37.167 -87 64.5l491 830c12.667 -41.333 21.5 -83.5 26.5 -126.5s7.83301 -83.833 8.5 -122.5z" />
    <glyph glyph-name="Ugrave" unicode="&#xd9;" 
d="M1088 1456l-179 -0.00292969l-3 -986c-1.33301 -43.333 -8.33301 -85 -21 -125s-31 -75.333 -55 -106c-24.667 -31.333 -55 -56.166 -91 -74.499s-77.667 -27.5 -125 -27.5s-89.166 9.33301 -125.499 28s-66.5 43.334 -90.5 74.001c-24.667 30.667 -43.5 66 -56.5 106
s-19.833 81.667 -20.5 125l-4 986h-176l-2 -986c0.666992 -68 12.667 -131.833 36 -191.5s55.666 -111.5 96.999 -155.5c41.333 -44.667 91 -79.667 149 -105s122.333 -38 193 -38c69.333 0 133 12.833 191 38.5s108 60.834 150 105.501c42 44 75 95.667 99 155
s36 123 36 191zM740 1549l-175 266h-223l248 -266h150z" />
    <glyph glyph-name="Uacute" unicode="&#xda;" 
d="M1088 1456l-179 -0.00292969l-3 -986c-1.33301 -43.333 -8.33301 -85 -21 -125s-31 -75.333 -55 -106c-24.667 -31.333 -55 -56.166 -91 -74.499s-77.667 -27.5 -125 -27.5s-89.166 9.33301 -125.499 28s-66.5 43.334 -90.5 74.001c-24.667 30.667 -43.5 66 -56.5 106
s-19.833 81.667 -20.5 125l-4 986h-176l-2 -986c0.666992 -68 12.667 -131.833 36 -191.5s55.666 -111.5 96.999 -155.5c41.333 -44.667 91 -79.667 149 -105s122.333 -38 193 -38c69.333 0 133 12.833 191 38.5s108 60.834 150 105.501c42 44 75 95.667 99 155
s36 123 36 191zM757 1812l-184 -266h140l268 266h-224z" />
    <glyph glyph-name="Ucircumflex" unicode="&#xdb;" 
d="M1088 1456l-179 -0.00292969l-3 -986c-1.33301 -43.333 -8.33301 -85 -21 -125s-31 -75.333 -55 -106c-24.667 -31.333 -55 -56.166 -91 -74.499s-77.667 -27.5 -125 -27.5s-89.166 9.33301 -125.499 28s-66.5 43.334 -90.5 74.001c-24.667 30.667 -43.5 66 -56.5 106
s-19.833 81.667 -20.5 125l-4 986h-176l-2 -986c0.666992 -68 12.667 -131.833 36 -191.5s55.666 -111.5 96.999 -155.5c41.333 -44.667 91 -79.667 149 -105s122.333 -38 193 -38c69.333 0 133 12.833 191 38.5s108 60.834 150 105.501c42 44 75 95.667 99 155
s36 123 36 191zM963 1612l-248 240h-112l-245 -239v-26h152l149 151l150 -151h154v25z" />
    <glyph glyph-name="Udieresis" unicode="&#xdc;" 
d="M1088 1456l-179 -0.00292969l-3 -986c-1.33301 -43.333 -8.33301 -85 -21 -125s-31 -75.333 -55 -106c-24.667 -31.333 -55 -56.166 -91 -74.499s-77.667 -27.5 -125 -27.5s-89.166 9.33301 -125.499 28s-66.5 43.334 -90.5 74.001c-24.667 30.667 -43.5 66 -56.5 106
s-19.833 81.667 -20.5 125l-4 986h-176l-2 -986c0.666992 -68 12.667 -131.833 36 -191.5s55.666 -111.5 96.999 -155.5c41.333 -44.667 91 -79.667 149 -105s122.333 -38 193 -38c69.333 0 133 12.833 191 38.5s108 60.834 150 105.501c42 44 75 95.667 99 155
s36 123 36 191zM332 1706c0 -30 9.16699 -55 27.5 -75s45.5 -30 81.5 -30s63.333 10 82 30s28 45 28 75s-9.33301 55.167 -28 75.5s-46 30.5 -82 30.5s-63.167 -10.167 -81.5 -30.5s-27.5 -45.5 -27.5 -75.5zM762 1704c0 -29.333 9.16699 -54.166 27.5 -74.499
s45.5 -30.5 81.5 -30.5s63.333 10.167 82 30.5s28 45.166 28 74.499c0 30 -9.33301 55.333 -28 76s-46 31 -82 31s-63.167 -10.333 -81.5 -31s-27.5 -46 -27.5 -76z" />
    <glyph glyph-name="Yacute" unicode="&#xdd;" 
d="M603 725l-331 731h-211l453 -913l3 -543h172l3 543l453 913h-210zM707 1823l-184 -266h140l268 266h-224z" />
    <glyph glyph-name="Thorn" unicode="&#xde;" 
d="M353 1456h-185v-1456h185v313h277c78 0 147.167 10.5 207.5 31.5s111.5 50.5 153.5 88.5c41.333 37.333 72.833 82 94.5 134s32.5 109 32.5 171s-10.833 119 -32.5 171s-53.167 97 -94.5 135c-42 37.333 -93.167 66.5 -153.5 87.5s-129.5 31.5 -207.5 31.5h-277v293z
M353 1011l277 0.000976562c52 0 97.167 -7.5 135.5 -22.5s69.833 -35.167 94.5 -60.5c24.667 -26 43 -55.5 55 -88.5s18 -67.5 18 -103.5c0 -35.333 -6 -69.333 -18 -102s-30.333 -61.334 -55 -86.001c-25.333 -25.333 -57 -45.5 -95 -60.5s-83 -22.5 -135 -22.5h-277v546z
" />
    <glyph glyph-name="germandbls" unicode="&#xdf;" 
d="M353 0l0.00292969 1087c0.666992 103.333 20.834 182.333 60.501 237s92.5 82 158.5 82c21.333 0 42.5 -4.33301 63.5 -13s39.833 -21.334 56.5 -38.001c16 -17.333 29 -38.5 39 -63.5s15 -54.167 15 -87.5c0 -25.333 -3.33301 -48.5 -10 -69.5s-15 -41.167 -25 -60.5
c-10.667 -20 -22 -39.167 -34 -57.5s-23 -37.166 -33 -56.499c-10.667 -20 -19.334 -41 -26.001 -63s-10 -46 -10 -72c0 -45.333 7.66699 -85.166 23 -119.499s34.333 -65.166 57 -92.499c22.667 -28 47.334 -53.833 74.001 -77.5s51.334 -46.834 74.001 -69.501
c22.667 -23.333 41.5 -47.833 56.5 -73.5s22.5 -54.167 22.5 -85.5c0 -25.333 -3.5 -48.666 -10.5 -69.999s-17.833 -40 -32.5 -56s-33.334 -28.5 -56.001 -37.5s-49.667 -13.5 -81 -13.5c-22.667 0 -45.5 2.5 -68.5 7.5s-44.833 11.5 -65.5 19.5
c-21.333 7.33301 -40.833 15.5 -58.5 24.5s-32.5 17.167 -44.5 24.5l-42 -155c13.333 -10.667 31.333 -20.334 54 -29.001s47.667 -16 75 -22c26.667 -6.66699 54.667 -11.834 84 -15.501s57.666 -5.5 84.999 -5.5c50.667 0 97.167 7 139.5 21s78.833 35 109.5 63
s54.5 63 71.5 105s25.5 91.333 25.5 148c0 43.333 -7.5 81.666 -22.5 114.999s-33.833 63.666 -56.5 90.999s-47.334 52.666 -74.001 75.999s-51.334 46.666 -74.001 69.999s-41.5 47.333 -56.5 72s-22.5 52.334 -22.5 83.001c0 33.333 6.5 62.833 19.5 88.5
s27.5 52.5 43.5 80.5s30.667 59.833 44 95.5s20 79.834 20 132.501c0 57.333 -9.33301 107.166 -28 149.499s-44.334 77.5 -77.001 105.5s-70.667 48.833 -114 62.5s-90 20.5 -140 20.5c-56.667 0 -109 -10.5 -157 -31.5s-89.333 -51.5 -124 -91.5
c-35.333 -40 -62.833 -89.333 -82.5 -148s-29.5 -125.334 -29.5 -200.001v-1087h184z" />
    <glyph glyph-name="agrave" unicode="&#xe0;" 
d="M885 0h193.004v16c-12 30 -21.333 65.167 -28 105.5s-10 78.5 -10 114.5v503c0 60.667 -11 113.667 -33 159s-52 83.333 -90 114c-38.667 30 -84.334 52.5 -137.001 67.5s-109.667 22.5 -171 22.5c-67.333 0 -127.5 -9.33301 -180.5 -28s-97.833 -43 -134.5 -73
c-37.333 -30.667 -65.833 -65 -85.5 -103s-29.834 -76.667 -30.501 -116h186c0 22.667 5.5 44.5 16.5 65.5s26.5 39.167 46.5 54.5s44.5 27.666 73.5 36.999s61.833 14 98.5 14c39.333 0 74.833 -5 106.5 -15s58.5 -24 80.5 -42c22 -18.667 39 -41 51 -67s18 -55.333 18 -88
v-85h-202c-75.333 0 -143.5 -7.33301 -204.5 -22s-113.167 -36.667 -156.5 -66c-43.333 -30 -76.833 -67.333 -100.5 -112s-35.5 -96.667 -35.5 -156c0 -45.333 8.83301 -87.5 26.5 -126.5s42.834 -72.5 75.501 -100.5c32 -28.667 71.167 -51.334 117.5 -68.001
s98.166 -25 155.499 -25c35.333 0 68.666 3.66699 99.999 11s61 17.333 89 30c27.333 12.667 52.5 27.334 75.5 44.001s43.833 34.334 62.5 53.001c2 -22.667 5.16699 -44.5 9.5 -65.5s10.166 -38.5 17.499 -52.5zM558.004 141c-36 0 -67.666 4.66504 -94.999 13.998
s-50 22.333 -68 39c-18 16 -31.5 35.333 -40.5 58s-13.5 47.334 -13.5 74.001c0 28 5.16699 53 15.5 75s25.5 41 45.5 57c28 22.667 65.833 39.5 113.5 50.5s103.5 16.5 167.5 16.5h172v-219c-10.667 -21.333 -25.334 -41.833 -44.001 -61.5s-40.667 -37.167 -66 -52.5
c-26 -15.333 -54.667 -27.666 -86 -36.999s-65 -14 -101 -14zM706.005 1239l-175 266h-223l248 -266h150z" />
    <glyph glyph-name="aacute" unicode="&#xe1;" 
d="M885 0h193.004v16c-12 30 -21.333 65.167 -28 105.5s-10 78.5 -10 114.5v503c0 60.667 -11 113.667 -33 159s-52 83.333 -90 114c-38.667 30 -84.334 52.5 -137.001 67.5s-109.667 22.5 -171 22.5c-67.333 0 -127.5 -9.33301 -180.5 -28s-97.833 -43 -134.5 -73
c-37.333 -30.667 -65.833 -65 -85.5 -103s-29.834 -76.667 -30.501 -116h186c0 22.667 5.5 44.5 16.5 65.5s26.5 39.167 46.5 54.5s44.5 27.666 73.5 36.999s61.833 14 98.5 14c39.333 0 74.833 -5 106.5 -15s58.5 -24 80.5 -42c22 -18.667 39 -41 51 -67s18 -55.333 18 -88
v-85h-202c-75.333 0 -143.5 -7.33301 -204.5 -22s-113.167 -36.667 -156.5 -66c-43.333 -30 -76.833 -67.333 -100.5 -112s-35.5 -96.667 -35.5 -156c0 -45.333 8.83301 -87.5 26.5 -126.5s42.834 -72.5 75.501 -100.5c32 -28.667 71.167 -51.334 117.5 -68.001
s98.166 -25 155.499 -25c35.333 0 68.666 3.66699 99.999 11s61 17.333 89 30c27.333 12.667 52.5 27.334 75.5 44.001s43.833 34.334 62.5 53.001c2 -22.667 5.16699 -44.5 9.5 -65.5s10.166 -38.5 17.499 -52.5zM558.004 141c-36 0 -67.666 4.66504 -94.999 13.998
s-50 22.333 -68 39c-18 16 -31.5 35.333 -40.5 58s-13.5 47.334 -13.5 74.001c0 28 5.16699 53 15.5 75s25.5 41 45.5 57c28 22.667 65.833 39.5 113.5 50.5s103.5 16.5 167.5 16.5h172v-219c-10.667 -21.333 -25.334 -41.833 -44.001 -61.5s-40.667 -37.167 -66 -52.5
c-26 -15.333 -54.667 -27.666 -86 -36.999s-65 -14 -101 -14zM723.005 1502l-184 -266h140l268 266h-224z" />
    <glyph glyph-name="acircumflex" unicode="&#xe2;" 
d="M885 0h193.004v16c-12 30 -21.333 65.167 -28 105.5s-10 78.5 -10 114.5v503c0 60.667 -11 113.667 -33 159s-52 83.333 -90 114c-38.667 30 -84.334 52.5 -137.001 67.5s-109.667 22.5 -171 22.5c-67.333 0 -127.5 -9.33301 -180.5 -28s-97.833 -43 -134.5 -73
c-37.333 -30.667 -65.833 -65 -85.5 -103s-29.834 -76.667 -30.501 -116h186c0 22.667 5.5 44.5 16.5 65.5s26.5 39.167 46.5 54.5s44.5 27.666 73.5 36.999s61.833 14 98.5 14c39.333 0 74.833 -5 106.5 -15s58.5 -24 80.5 -42c22 -18.667 39 -41 51 -67s18 -55.333 18 -88
v-85h-202c-75.333 0 -143.5 -7.33301 -204.5 -22s-113.167 -36.667 -156.5 -66c-43.333 -30 -76.833 -67.333 -100.5 -112s-35.5 -96.667 -35.5 -156c0 -45.333 8.83301 -87.5 26.5 -126.5s42.834 -72.5 75.501 -100.5c32 -28.667 71.167 -51.334 117.5 -68.001
s98.166 -25 155.499 -25c35.333 0 68.666 3.66699 99.999 11s61 17.333 89 30c27.333 12.667 52.5 27.334 75.5 44.001s43.833 34.334 62.5 53.001c2 -22.667 5.16699 -44.5 9.5 -65.5s10.166 -38.5 17.499 -52.5zM558.004 141c-36 0 -67.666 4.66504 -94.999 13.998
s-50 22.333 -68 39c-18 16 -31.5 35.333 -40.5 58s-13.5 47.334 -13.5 74.001c0 28 5.16699 53 15.5 75s25.5 41 45.5 57c28 22.667 65.833 39.5 113.5 50.5s103.5 16.5 167.5 16.5h172v-219c-10.667 -21.333 -25.334 -41.833 -44.001 -61.5s-40.667 -37.167 -66 -52.5
c-26 -15.333 -54.667 -27.666 -86 -36.999s-65 -14 -101 -14zM929.005 1302l-248 240h-112l-245 -239v-26h152l149 151l150 -151h154v25z" />
    <glyph glyph-name="atilde" unicode="&#xe3;" 
d="M885 0h193.004v16c-12 30 -21.333 65.167 -28 105.5s-10 78.5 -10 114.5v503c0 60.667 -11 113.667 -33 159s-52 83.333 -90 114c-38.667 30 -84.334 52.5 -137.001 67.5s-109.667 22.5 -171 22.5c-67.333 0 -127.5 -9.33301 -180.5 -28s-97.833 -43 -134.5 -73
c-37.333 -30.667 -65.833 -65 -85.5 -103s-29.834 -76.667 -30.501 -116h186c0 22.667 5.5 44.5 16.5 65.5s26.5 39.167 46.5 54.5s44.5 27.666 73.5 36.999s61.833 14 98.5 14c39.333 0 74.833 -5 106.5 -15s58.5 -24 80.5 -42c22 -18.667 39 -41 51 -67s18 -55.333 18 -88
v-85h-202c-75.333 0 -143.5 -7.33301 -204.5 -22s-113.167 -36.667 -156.5 -66c-43.333 -30 -76.833 -67.333 -100.5 -112s-35.5 -96.667 -35.5 -156c0 -45.333 8.83301 -87.5 26.5 -126.5s42.834 -72.5 75.501 -100.5c32 -28.667 71.167 -51.334 117.5 -68.001
s98.166 -25 155.499 -25c35.333 0 68.666 3.66699 99.999 11s61 17.333 89 30c27.333 12.667 52.5 27.334 75.5 44.001s43.833 34.334 62.5 53.001c2 -22.667 5.16699 -44.5 9.5 -65.5s10.166 -38.5 17.499 -52.5zM558.004 141c-36 0 -67.666 4.66504 -94.999 13.998
s-50 22.333 -68 39c-18 16 -31.5 35.333 -40.5 58s-13.5 47.334 -13.5 74.001c0 28 5.16699 53 15.5 75s25.5 41 45.5 57c28 22.667 65.833 39.5 113.5 50.5s103.5 16.5 167.5 16.5h172v-219c-10.667 -21.333 -25.334 -41.833 -44.001 -61.5s-40.667 -37.167 -66 -52.5
c-26 -15.333 -54.667 -27.666 -86 -36.999s-65 -14 -101 -14zM969.005 1522l-103.001 30c0 -15.333 -2.83301 -29.833 -8.5 -43.5s-12.834 -25.5 -21.501 -35.5c-9.33301 -10 -20.333 -18 -33 -24s-26 -9 -40 -9c-26 0 -49.833 5 -71.5 15s-42.834 21 -63.501 33
c-21.333 11.333 -43.166 22 -65.499 32s-47.5 15 -75.5 15c-30.667 0 -58.5 -6.33301 -83.5 -19s-46.5 -29.334 -64.5 -50.001c-18 -21.333 -32.167 -45.833 -42.5 -73.5s-15.5 -56.5 -15.5 -86.5l104 -24c0.666992 30.667 10.5 56.834 29.5 78.501s43.167 32.5 72.5 32.5
c18 0 34.333 -2.33301 49 -7s28.667 -10.334 42 -17.001c12.667 -7.33301 25.334 -15.166 38.001 -23.499s26.334 -15.833 41.001 -22.5c14 -7.33301 29.667 -13.333 47 -18s37 -7 59 -7c30 0 57.667 6 83 18s47 28.333 65 49c18 20 32.167 43.667 42.5 71s15.5 56 15.5 86z
" />
    <glyph glyph-name="adieresis" unicode="&#xe4;" 
d="M885 0h193.004v16c-12 30 -21.333 65.167 -28 105.5s-10 78.5 -10 114.5v503c0 60.667 -11 113.667 -33 159s-52 83.333 -90 114c-38.667 30 -84.334 52.5 -137.001 67.5s-109.667 22.5 -171 22.5c-67.333 0 -127.5 -9.33301 -180.5 -28s-97.833 -43 -134.5 -73
c-37.333 -30.667 -65.833 -65 -85.5 -103s-29.834 -76.667 -30.501 -116h186c0 22.667 5.5 44.5 16.5 65.5s26.5 39.167 46.5 54.5s44.5 27.666 73.5 36.999s61.833 14 98.5 14c39.333 0 74.833 -5 106.5 -15s58.5 -24 80.5 -42c22 -18.667 39 -41 51 -67s18 -55.333 18 -88
v-85h-202c-75.333 0 -143.5 -7.33301 -204.5 -22s-113.167 -36.667 -156.5 -66c-43.333 -30 -76.833 -67.333 -100.5 -112s-35.5 -96.667 -35.5 -156c0 -45.333 8.83301 -87.5 26.5 -126.5s42.834 -72.5 75.501 -100.5c32 -28.667 71.167 -51.334 117.5 -68.001
s98.166 -25 155.499 -25c35.333 0 68.666 3.66699 99.999 11s61 17.333 89 30c27.333 12.667 52.5 27.334 75.5 44.001s43.833 34.334 62.5 53.001c2 -22.667 5.16699 -44.5 9.5 -65.5s10.166 -38.5 17.499 -52.5zM558.004 141c-36 0 -67.666 4.66504 -94.999 13.998
s-50 22.333 -68 39c-18 16 -31.5 35.333 -40.5 58s-13.5 47.334 -13.5 74.001c0 28 5.16699 53 15.5 75s25.5 41 45.5 57c28 22.667 65.833 39.5 113.5 50.5s103.5 16.5 167.5 16.5h172v-219c-10.667 -21.333 -25.334 -41.833 -44.001 -61.5s-40.667 -37.167 -66 -52.5
c-26 -15.333 -54.667 -27.666 -86 -36.999s-65 -14 -101 -14zM298.005 1396c0 -30 9.16699 -55 27.5 -75s45.5 -30 81.5 -30s63.333 10 82 30s28 45 28 75s-9.33301 55.167 -28 75.5s-46 30.5 -82 30.5s-63.167 -10.167 -81.5 -30.5s-27.5 -45.5 -27.5 -75.5zM728.005 1394
c0 -29.333 9.16699 -54.166 27.5 -74.499s45.5 -30.5 81.5 -30.5s63.333 10.167 82 30.5s28 45.166 28 74.499c0 30 -9.33301 55.333 -28 76s-46 31 -82 31s-63.167 -10.333 -81.5 -31s-27.5 -46 -27.5 -76z" />
    <glyph glyph-name="aring" unicode="&#xe5;" 
d="M885 0h193.004v16c-12 30 -21.333 65.167 -28 105.5s-10 78.5 -10 114.5v503c0 60.667 -11 113.667 -33 159s-52 83.333 -90 114c-38.667 30 -84.334 52.5 -137.001 67.5s-109.667 22.5 -171 22.5c-67.333 0 -127.5 -9.33301 -180.5 -28s-97.833 -43 -134.5 -73
c-37.333 -30.667 -65.833 -65 -85.5 -103s-29.834 -76.667 -30.501 -116h186c0 22.667 5.5 44.5 16.5 65.5s26.5 39.167 46.5 54.5s44.5 27.666 73.5 36.999s61.833 14 98.5 14c39.333 0 74.833 -5 106.5 -15s58.5 -24 80.5 -42c22 -18.667 39 -41 51 -67s18 -55.333 18 -88
v-85h-202c-75.333 0 -143.5 -7.33301 -204.5 -22s-113.167 -36.667 -156.5 -66c-43.333 -30 -76.833 -67.333 -100.5 -112s-35.5 -96.667 -35.5 -156c0 -45.333 8.83301 -87.5 26.5 -126.5s42.834 -72.5 75.501 -100.5c32 -28.667 71.167 -51.334 117.5 -68.001
s98.166 -25 155.499 -25c35.333 0 68.666 3.66699 99.999 11s61 17.333 89 30c27.333 12.667 52.5 27.334 75.5 44.001s43.833 34.334 62.5 53.001c2 -22.667 5.16699 -44.5 9.5 -65.5s10.166 -38.5 17.499 -52.5zM558.004 141c-36 0 -67.666 4.66504 -94.999 13.998
s-50 22.333 -68 39c-18 16 -31.5 35.333 -40.5 58s-13.5 47.334 -13.5 74.001c0 28 5.16699 53 15.5 75s25.5 41 45.5 57c28 22.667 65.833 39.5 113.5 50.5s103.5 16.5 167.5 16.5h172v-219c-10.667 -21.333 -25.334 -41.833 -44.001 -61.5s-40.667 -37.167 -66 -52.5
c-26 -15.333 -54.667 -27.666 -86 -36.999s-65 -14 -101 -14zM420.005 1410c0 -28.667 5.5 -55 16.5 -79s25.833 -44.333 44.5 -61c18 -17.333 39.5 -30.666 64.5 -39.999s51.5 -14 79.5 -14s54.167 4.66699 78.5 14s45.833 22.666 64.5 39.999c18 16.667 32.333 37 43 61
s16 50.333 16 79s-5.33301 55.167 -16 79.5s-25 45.5 -43 63.5c-18.667 17.333 -40.167 31 -64.5 41s-50.5 15 -78.5 15s-54.5 -5 -79.5 -15s-46.5 -23.667 -64.5 -41c-18.667 -18 -33.5 -39.167 -44.5 -63.5s-16.5 -50.833 -16.5 -79.5zM519.005 1410
c0 16.667 3.00098 31.8311 9.00098 45.498s14 25.5 24 35.5c9.33301 8.66699 20.333 15.5 33 20.5s26 7.5 40 7.5c14.667 0 28.167 -2.5 40.5 -7.5s23.166 -12.167 32.499 -21.5c9.33301 -10 16.666 -21.833 21.999 -35.5s8 -28.5 8 -44.5
c0 -15.333 -2.66699 -29.333 -8 -42s-12.666 -23.667 -21.999 -33s-20.166 -16.666 -32.499 -21.999s-25.833 -8 -40.5 -8s-28.334 2.66699 -41.001 8s-23.667 13 -33 23c-10 9.33301 -17.833 20.333 -23.5 33s-8.5 26.334 -8.5 41.001z" />
    <glyph glyph-name="ae" unicode="&#xe6;" 
d="M896 -20c39.333 0 74.4951 3.16895 105.495 9.50195s58.167 13.833 81.5 22.5c22.667 8.66699 41.667 17.834 57 27.501s27.333 17.834 36 24.501l-46 136l-35 -23c-12.667 -8 -26.667 -15.333 -42 -22c-16 -7.33301 -33.833 -13.333 -53.5 -18s-42.167 -7 -67.5 -7
c-40 -0.666992 -74.5 4.5 -103.5 15.5s-52.833 25.5 -71.5 43.5c-14 13.333 -25.333 28 -34 44s-15 32.667 -19 50c-4.66699 18.667 -8.5 38.667 -11.5 60s-4.5 44 -4.5 68v86h505v234c0 56 -7.16699 106.833 -21.5 152.5s-35.5 84.834 -63.5 117.501
c-28 32 -62.5 56.833 -103.5 74.5s-88.5 26.5 -142.5 26.5c-31.333 0 -60.666 -3.66699 -87.999 -11s-52.333 -18.333 -75 -33c-13.333 -8 -26.166 -17.333 -38.499 -28s-23.833 -22.334 -34.5 -35.001c-10.667 14 -22.5 26.833 -35.5 38.5s-26.833 21.5 -41.5 29.5
c-23.333 13.333 -49.166 23.166 -77.499 29.499s-59.166 9.5 -92.499 9.5c-48 0 -91.667 -7.16699 -131 -21.5s-72.666 -34.5 -99.999 -60.5c-28 -26.667 -49.5 -58.5 -64.5 -95.5s-22.5 -78.5 -22.5 -124.5l179 -8c0 24.667 3.16699 46.667 9.5 66s15.5 35.666 27.5 48.999
c12.667 14 27.834 24.667 45.501 32s37.167 11 58.5 11c20.667 0 38.667 -3.16699 54 -9.5s28.333 -15.5 39 -27.5c12.667 -14.667 22 -33 28 -55s9 -47 9 -75v-148h-63c-67.333 0 -126.666 -8.16699 -177.999 -24.5s-94 -39.833 -128 -70.5
c-32.667 -30 -57.334 -66.5 -74.001 -109.5s-25 -91.5 -25 -145.5c0 -46 6.5 -87.833 19.5 -125.5s31.833 -69.5 56.5 -95.5c24.667 -26.667 55 -47.334 91 -62.001s77.667 -22 125 -22c32 0 61.333 4 88 12s51 18.667 73 32s41.5 28.833 58.5 46.5s31.833 36.167 44.5 55.5
c11.333 -18 24.166 -34.333 38.499 -49s29.833 -28 46.5 -40c28 -18.667 59.667 -32.834 95 -42.501s74.333 -14.5 117 -14.5zM370.995 130.002c-24 0 -45.166 4 -63.499 12s-33.5 19 -45.5 33c-12.667 13.333 -22.167 29.166 -28.5 47.499s-9.5 37.833 -9.5 58.5
c0 28.667 5.16699 55.834 15.5 81.501s25.166 48.5 44.499 68.5c19.333 19.333 43 34.833 71 46.5s59.667 17.5 95 17.5h61c0 -43.333 0.166992 -76 0.5 -98s0.5 -54 0.5 -96v-62.5v-36.5c-8.66699 -8.66699 -18 -17 -28 -25s-20.333 -15.333 -31 -22
c-13.333 -7.33301 -27 -13.333 -41 -18s-27.667 -7 -41 -7zM1017 640.002l-328.998 0.000976562v69c0 20 1.5 39.667 4.5 59s7.16699 37.666 12.5 54.999c6.66699 20 14.834 37.5 24.501 52.5s22.167 29.5 37.5 43.5c11.333 10 25.166 17.667 41.499 23s34.166 8 53.499 8
c24.667 0 46.667 -5.16699 66 -15.5s35.666 -23.833 48.999 -40.5c13.333 -17.333 23.333 -36.833 30 -58.5s10 -44.167 10 -67.5v-128z" />
    <glyph glyph-name="ccedilla" unicode="&#xe7;" 
d="M635 130c-58 0 -106.499 11.499 -145.499 34.499s-70.167 53.167 -93.5 90.5c-24 36.667 -41.167 78.167 -51.5 124.5s-15.5 93.166 -15.5 140.499v42c0 46.667 5.16699 93 15.5 139s27.5 87.667 51.5 125c24 36.667 55.5 66.5 94.5 89.5s87.167 34.5 144.5 34.5
c37.333 0 72.166 -6.33301 104.499 -19s60.166 -30 83.499 -52s41.833 -47.5 55.5 -76.5s20.834 -59.833 21.501 -92.5h175c0 54.667 -11 106 -33 154s-52.333 89.667 -91 125c-39.333 34.667 -85.833 62.167 -139.5 82.5s-112.5 30.5 -176.5 30.5
c-82 0 -153.667 -14.667 -215 -44s-112.333 -68.666 -153 -117.999c-41.333 -50 -72.333 -107.667 -93 -173s-31 -133.666 -31 -204.999v-42c0 -72 10.333 -140.5 31 -205.5s51.667 -122.167 93 -171.5c40.667 -50 91.667 -89.667 153 -119s133 -44 215 -44
c57.333 0 112.333 9.83301 165 29.5s99.334 46.167 140.001 79.5c40.667 32.667 73.167 70.834 97.5 114.501s36.833 89.5 37.5 137.5h-175c-0.666992 -30 -8.5 -57.833 -23.5 -83.5s-34.833 -47.834 -59.5 -66.501c-24.667 -19.333 -52.834 -34.333 -84.501 -45
s-64.167 -16 -97.5 -16zM705.001 -0.000976562h-133.003l-31 -134c26.667 -2 50 -5 70 -9s37 -9.33301 51 -16c13.333 -7.33301 23.333 -16.666 30 -27.999s10 -25.333 10 -42c0 -18 -4.5 -33.167 -13.5 -45.5s-20.833 -22.5 -35.5 -30.5c-15.333 -8 -33 -13.833 -53 -17.5
s-41.333 -5.5 -64 -5.5l7 -107c40.667 0 77.834 3.66699 111.501 11s62.834 17.333 87.501 30c33.333 18 59 41.333 77 70s27 61.667 27 99c0 28.667 -4.33301 53.167 -13 73.5s-20 37.166 -34 50.499c-14.667 13.333 -31.167 24 -49.5 32s-37.166 13.667 -56.499 17z" />
    <glyph glyph-name="egrave" unicode="&#xe8;" 
d="M652 -20c105.333 0 193.833 21.165 265.5 63.498s125.5 90.833 161.5 145.5l-113 88c-34 -44 -76.667 -79.333 -128 -106s-110 -40 -176 -40c-50 0 -95.667 9.33301 -137 28s-76.666 44.334 -105.999 77.001c-28.667 30.667 -51.167 66 -67.5 106
s-26.833 86.333 -31.5 139v7h773v83c0 75.333 -9.5 145.333 -28.5 210s-47.833 121 -86.5 169c-38.667 47.333 -87.167 84.5 -145.5 111.5s-126.5 40.5 -204.5 40.5c-62 0 -122.5 -12.667 -181.5 -38s-111.5 -61.666 -157.5 -108.999c-46.667 -48 -84 -106.5 -112 -175.5
s-42 -147.167 -42 -234.5v-42c0 -75.333 12.667 -145 38 -209s60.666 -119.333 105.999 -166s99.833 -83 163.5 -109s133.5 -39 209.5 -39zM628 949.998c47.333 0 88.168 -8.66797 122.501 -26.001s62.833 -40 85.5 -68s40.334 -61.167 53.001 -99.5s19 -74.166 19 -107.499
v-9h-582c7.33301 50 20.166 94.167 38.499 132.5s40.833 70.833 67.5 97.5c26.667 26 56.667 45.833 90 59.5s68.666 20.5 105.999 20.5zM701.002 1240l-175 266h-223l248 -266h150z" />
    <glyph glyph-name="eacute" unicode="&#xe9;" 
d="M652 -20c105.333 0 193.833 21.165 265.5 63.498s125.5 90.833 161.5 145.5l-113 88c-34 -44 -76.667 -79.333 -128 -106s-110 -40 -176 -40c-50 0 -95.667 9.33301 -137 28s-76.666 44.334 -105.999 77.001c-28.667 30.667 -51.167 66 -67.5 106
s-26.833 86.333 -31.5 139v7h773v83c0 75.333 -9.5 145.333 -28.5 210s-47.833 121 -86.5 169c-38.667 47.333 -87.167 84.5 -145.5 111.5s-126.5 40.5 -204.5 40.5c-62 0 -122.5 -12.667 -181.5 -38s-111.5 -61.666 -157.5 -108.999c-46.667 -48 -84 -106.5 -112 -175.5
s-42 -147.167 -42 -234.5v-42c0 -75.333 12.667 -145 38 -209s60.666 -119.333 105.999 -166s99.833 -83 163.5 -109s133.5 -39 209.5 -39zM628 949.998c47.333 0 88.168 -8.66797 122.501 -26.001s62.833 -40 85.5 -68s40.334 -61.167 53.001 -99.5s19 -74.166 19 -107.499
v-9h-582c7.33301 50 20.166 94.167 38.499 132.5s40.833 70.833 67.5 97.5c26.667 26 56.667 45.833 90 59.5s68.666 20.5 105.999 20.5zM718.002 1503l-184 -266h140l268 266h-224z" />
    <glyph glyph-name="ecircumflex" unicode="&#xea;" 
d="M652 -20c105.333 0 193.833 21.165 265.5 63.498s125.5 90.833 161.5 145.5l-113 88c-34 -44 -76.667 -79.333 -128 -106s-110 -40 -176 -40c-50 0 -95.667 9.33301 -137 28s-76.666 44.334 -105.999 77.001c-28.667 30.667 -51.167 66 -67.5 106
s-26.833 86.333 -31.5 139v7h773v83c0 75.333 -9.5 145.333 -28.5 210s-47.833 121 -86.5 169c-38.667 47.333 -87.167 84.5 -145.5 111.5s-126.5 40.5 -204.5 40.5c-62 0 -122.5 -12.667 -181.5 -38s-111.5 -61.666 -157.5 -108.999c-46.667 -48 -84 -106.5 -112 -175.5
s-42 -147.167 -42 -234.5v-42c0 -75.333 12.667 -145 38 -209s60.666 -119.333 105.999 -166s99.833 -83 163.5 -109s133.5 -39 209.5 -39zM628 949.998c47.333 0 88.168 -8.66797 122.501 -26.001s62.833 -40 85.5 -68s40.334 -61.167 53.001 -99.5s19 -74.166 19 -107.499
v-9h-582c7.33301 50 20.166 94.167 38.499 132.5s40.833 70.833 67.5 97.5c26.667 26 56.667 45.833 90 59.5s68.666 20.5 105.999 20.5zM924.002 1303l-248 240h-112l-245 -239v-26h152l149 151l150 -151h154v25z" />
    <glyph glyph-name="edieresis" unicode="&#xeb;" 
d="M652 -20c105.333 0 193.833 21.165 265.5 63.498s125.5 90.833 161.5 145.5l-113 88c-34 -44 -76.667 -79.333 -128 -106s-110 -40 -176 -40c-50 0 -95.667 9.33301 -137 28s-76.666 44.334 -105.999 77.001c-28.667 30.667 -51.167 66 -67.5 106
s-26.833 86.333 -31.5 139v7h773v83c0 75.333 -9.5 145.333 -28.5 210s-47.833 121 -86.5 169c-38.667 47.333 -87.167 84.5 -145.5 111.5s-126.5 40.5 -204.5 40.5c-62 0 -122.5 -12.667 -181.5 -38s-111.5 -61.666 -157.5 -108.999c-46.667 -48 -84 -106.5 -112 -175.5
s-42 -147.167 -42 -234.5v-42c0 -75.333 12.667 -145 38 -209s60.666 -119.333 105.999 -166s99.833 -83 163.5 -109s133.5 -39 209.5 -39zM628 949.998c47.333 0 88.168 -8.66797 122.501 -26.001s62.833 -40 85.5 -68s40.334 -61.167 53.001 -99.5s19 -74.166 19 -107.499
v-9h-582c7.33301 50 20.166 94.167 38.499 132.5s40.833 70.833 67.5 97.5c26.667 26 56.667 45.833 90 59.5s68.666 20.5 105.999 20.5zM293.002 1397c0 -30 9.16699 -55 27.5 -75s45.5 -30 81.5 -30s63.333 10 82 30s28 45 28 75s-9.33301 55.167 -28 75.5
s-46 30.5 -82 30.5s-63.167 -10.167 -81.5 -30.5s-27.5 -45.5 -27.5 -75.5zM723.002 1395c0 -29.333 9.16699 -54.166 27.5 -74.499s45.5 -30.5 81.5 -30.5s63.333 10.167 82 30.5s28 45.166 28 74.499c0 30 -9.33301 55.333 -28 76s-46 31 -82 31
s-63.167 -10.333 -81.5 -31s-27.5 -46 -27.5 -76z" />
    <glyph glyph-name="igrave" unicode="&#xec;" 
d="M203 1082v-161h368v-761h-368v-160h906v160h-353v922h-553zM747 1218l-175 266h-223l248 -266h150z" />
    <glyph glyph-name="iacute" unicode="&#xed;" 
d="M203 1082v-161h368v-761h-368v-160h906v160h-353v922h-553zM764 1481l-184 -266h140l268 266h-224z" />
    <glyph glyph-name="icircumflex" unicode="&#xee;" 
d="M203 1082v-161h368v-761h-368v-160h906v160h-353v922h-553zM970 1281l-248 240h-112l-245 -239v-26h152l149 151l150 -151h154v25z" />
    <glyph glyph-name="idieresis" unicode="&#xef;" 
d="M203 1082v-161h368v-761h-368v-160h906v160h-353v922h-553zM339 1375c0 -30 9.16699 -55 27.5 -75s45.5 -30 81.5 -30s63.333 10 82 30s28 45 28 75s-9.33301 55.167 -28 75.5s-46 30.5 -82 30.5s-63.167 -10.167 -81.5 -30.5s-27.5 -45.5 -27.5 -75.5zM769 1373
c0 -29.333 9.16699 -54.166 27.5 -74.499s45.5 -30.5 81.5 -30.5s63.333 10.167 82 30.5s28 45.166 28 74.499c0 30 -9.33301 55.333 -28 76s-46 31 -82 31s-63.167 -10.333 -81.5 -31s-27.5 -46 -27.5 -76z" />
    <glyph glyph-name="eth" unicode="&#xf0;" 
d="M845 1286l210.999 121.002l-73 100l-230 -132c-42 34 -86.833 63.167 -134.5 87.5s-98.167 43.833 -151.5 58.5l-57 -159c30.667 -10.667 60.5 -22.834 89.5 -36.501s57.167 -29.5 84.5 -47.5l-239 -137l73 -99l266 152c41.333 -42 77 -91 107 -147
s52.667 -120.667 68 -194c-38 37.333 -82.5 67.333 -133.5 90s-105.833 34 -164.5 34c-70 0 -134.833 -12.167 -194.5 -36.5s-111.167 -58.833 -154.5 -103.5c-44 -44.667 -78.167 -98.334 -102.5 -161.001s-36.5 -132.334 -36.5 -209.001c0 -68 12 -131.667 36 -191
s58 -111 102 -155c43.333 -44 95.166 -78.5 155.499 -103.5s126.5 -37.5 198.5 -37.5c47.333 0 92.333 5.83301 135 17.5s82.334 28.5 119.001 50.5c42 26 79.333 59 112 99s60.334 85.333 83.001 136c16.667 40.667 29.5 85.167 38.5 133.5s13.5 99.833 13.5 154.5v62
c0 137.333 -19.5 260.833 -58.5 370.5s-93.167 203.834 -162.5 282.501zM568.999 130.002c-49.333 0 -93.166 9.83398 -131.499 29.501s-70.5 45.5 -96.5 77.5c-26.667 31.333 -47 67.166 -61 107.499s-21 81.166 -21 122.499c0 48.667 7 94.667 21 138
s34.333 81.333 61 114c26 32.667 57.667 58.5 95 77.5s79 28.5 125 28.5c83.333 0 151.666 -14.333 204.999 -43s91.333 -61 114 -97c0 -8.66699 0.166992 -17 0.5 -25s0.5 -16.333 0.5 -25v-64c0 -41.333 -3 -80.666 -9 -117.999s-14.333 -71.666 -25 -102.999
c-14 -38.667 -31.167 -72.334 -51.5 -101.001s-43.5 -52 -69.5 -70c-22 -16 -46.167 -28.167 -72.5 -36.5s-54.5 -12.5 -84.5 -12.5z" />
    <glyph glyph-name="ntilde" unicode="&#xf1;" 
d="M174 0l185.002 0.000976562v776c12.667 23.333 27.5 44.666 44.5 63.999s35.5 36.333 55.5 51c24.667 16.667 51.667 29.834 81 39.501s61 14.5 95 14.5c39.333 0 74.166 -4.66699 104.499 -14s56.166 -24.333 77.499 -45c20.667 -20.667 36.334 -47.667 47.001 -81
s16 -74 16 -122v-683h185v687c0 72 -8.83301 134.167 -26.5 186.5s-42.834 95.5 -75.501 129.5s-72.167 59 -118.5 75s-97.833 24 -154.5 24c-42 -0.666992 -81.833 -6.83398 -119.5 -18.501s-72.5 -28.167 -104.5 -49.5c-21.333 -14 -41.5 -30.5 -60.5 -49.5
s-36.5 -39.833 -52.5 -62.5l-13 160h-166v-1082zM949.002 1522l-103.001 30c0 -15.333 -2.83301 -29.833 -8.5 -43.5s-12.834 -25.5 -21.501 -35.5c-9.33301 -10 -20.333 -18 -33 -24s-26 -9 -40 -9c-26 0 -49.833 5 -71.5 15s-42.834 21 -63.501 33
c-21.333 11.333 -43.166 22 -65.499 32s-47.5 15 -75.5 15c-30.667 0 -58.5 -6.33301 -83.5 -19s-46.5 -29.334 -64.5 -50.001c-18 -21.333 -32.167 -45.833 -42.5 -73.5s-15.5 -56.5 -15.5 -86.5l104 -24c0.666992 30.667 10.5 56.834 29.5 78.501s43.167 32.5 72.5 32.5
c18 0 34.333 -2.33301 49 -7s28.667 -10.334 42 -17.001c12.667 -7.33301 25.334 -15.166 38.001 -23.499s26.334 -15.833 41.001 -22.5c14 -7.33301 29.667 -13.333 47 -18s37 -7 59 -7c30 0 57.667 6 83 18s47 28.333 65 49c18 20 32.167 43.667 42.5 71s15.5 56 15.5 86z
" />
    <glyph glyph-name="ograve" unicode="&#xf2;" 
d="M122 551l-0.000976562 -22c0 -78 11.333 -150.333 34 -217s55.334 -124.667 98.001 -174c42 -49.333 93.5 -88 154.5 -116s129.833 -42 206.5 -42c76 0 144.333 14 205 42s112.334 66.667 155.001 116c42 49.333 74.333 107.333 97 174s34 139 34 217v22
c0 78 -11.333 150.5 -34 217.5s-55 125.167 -97 174.5c-42.667 49.333 -94.5 88.166 -155.5 116.499s-129.833 42.5 -206.5 42.5c-76 0 -144.333 -14.167 -205 -42.5s-112 -67.166 -154 -116.499c-42.667 -49.333 -75.334 -107.5 -98.001 -174.5s-34 -139.5 -34 -217.5z
M306.999 529l0.000976562 22c0 52.667 6.33301 103.167 19 151.5s32 90.833 58 127.5c25.333 36.667 57 65.834 95 87.501s82.667 32.5 134 32.5s96.166 -10.833 134.499 -32.5s70.5 -50.834 96.5 -87.501c25.333 -36.667 44.5 -79.167 57.5 -127.5
s19.5 -98.833 19.5 -151.5v-22c0 -53.333 -6.33301 -104.166 -19 -152.499s-31.667 -90.833 -57 -127.5c-26 -36.667 -58.167 -65.667 -96.5 -87s-82.833 -32 -133.5 -32c-51.333 0 -96.333 10.667 -135 32s-70.667 50.333 -96 87c-26 36.667 -45.333 79.167 -58 127.5
s-19 99.166 -19 152.499zM695 1239l-175 266h-223l248 -266h150z" />
    <glyph glyph-name="oacute" unicode="&#xf3;" 
d="M122 551l-0.000976562 -22c0 -78 11.333 -150.333 34 -217s55.334 -124.667 98.001 -174c42 -49.333 93.5 -88 154.5 -116s129.833 -42 206.5 -42c76 0 144.333 14 205 42s112.334 66.667 155.001 116c42 49.333 74.333 107.333 97 174s34 139 34 217v22
c0 78 -11.333 150.5 -34 217.5s-55 125.167 -97 174.5c-42.667 49.333 -94.5 88.166 -155.5 116.499s-129.833 42.5 -206.5 42.5c-76 0 -144.333 -14.167 -205 -42.5s-112 -67.166 -154 -116.499c-42.667 -49.333 -75.334 -107.5 -98.001 -174.5s-34 -139.5 -34 -217.5z
M306.999 529l0.000976562 22c0 52.667 6.33301 103.167 19 151.5s32 90.833 58 127.5c25.333 36.667 57 65.834 95 87.501s82.667 32.5 134 32.5s96.166 -10.833 134.499 -32.5s70.5 -50.834 96.5 -87.501c25.333 -36.667 44.5 -79.167 57.5 -127.5
s19.5 -98.833 19.5 -151.5v-22c0 -53.333 -6.33301 -104.166 -19 -152.499s-31.667 -90.833 -57 -127.5c-26 -36.667 -58.167 -65.667 -96.5 -87s-82.833 -32 -133.5 -32c-51.333 0 -96.333 10.667 -135 32s-70.667 50.333 -96 87c-26 36.667 -45.333 79.167 -58 127.5
s-19 99.166 -19 152.499zM712 1502l-184 -266h140l268 266h-224z" />
    <glyph glyph-name="ocircumflex" unicode="&#xf4;" 
d="M122 551l-0.000976562 -22c0 -78 11.333 -150.333 34 -217s55.334 -124.667 98.001 -174c42 -49.333 93.5 -88 154.5 -116s129.833 -42 206.5 -42c76 0 144.333 14 205 42s112.334 66.667 155.001 116c42 49.333 74.333 107.333 97 174s34 139 34 217v22
c0 78 -11.333 150.5 -34 217.5s-55 125.167 -97 174.5c-42.667 49.333 -94.5 88.166 -155.5 116.499s-129.833 42.5 -206.5 42.5c-76 0 -144.333 -14.167 -205 -42.5s-112 -67.166 -154 -116.499c-42.667 -49.333 -75.334 -107.5 -98.001 -174.5s-34 -139.5 -34 -217.5z
M306.999 529l0.000976562 22c0 52.667 6.33301 103.167 19 151.5s32 90.833 58 127.5c25.333 36.667 57 65.834 95 87.501s82.667 32.5 134 32.5s96.166 -10.833 134.499 -32.5s70.5 -50.834 96.5 -87.501c25.333 -36.667 44.5 -79.167 57.5 -127.5
s19.5 -98.833 19.5 -151.5v-22c0 -53.333 -6.33301 -104.166 -19 -152.499s-31.667 -90.833 -57 -127.5c-26 -36.667 -58.167 -65.667 -96.5 -87s-82.833 -32 -133.5 -32c-51.333 0 -96.333 10.667 -135 32s-70.667 50.333 -96 87c-26 36.667 -45.333 79.167 -58 127.5
s-19 99.166 -19 152.499zM918 1302l-248 240h-112l-245 -239v-26h152l149 151l150 -151h154v25z" />
    <glyph glyph-name="otilde" unicode="&#xf5;" 
d="M122 551l-0.000976562 -22c0 -78 11.333 -150.333 34 -217s55.334 -124.667 98.001 -174c42 -49.333 93.5 -88 154.5 -116s129.833 -42 206.5 -42c76 0 144.333 14 205 42s112.334 66.667 155.001 116c42 49.333 74.333 107.333 97 174s34 139 34 217v22
c0 78 -11.333 150.5 -34 217.5s-55 125.167 -97 174.5c-42.667 49.333 -94.5 88.166 -155.5 116.499s-129.833 42.5 -206.5 42.5c-76 0 -144.333 -14.167 -205 -42.5s-112 -67.166 -154 -116.499c-42.667 -49.333 -75.334 -107.5 -98.001 -174.5s-34 -139.5 -34 -217.5z
M306.999 529l0.000976562 22c0 52.667 6.33301 103.167 19 151.5s32 90.833 58 127.5c25.333 36.667 57 65.834 95 87.501s82.667 32.5 134 32.5s96.166 -10.833 134.499 -32.5s70.5 -50.834 96.5 -87.501c25.333 -36.667 44.5 -79.167 57.5 -127.5
s19.5 -98.833 19.5 -151.5v-22c0 -53.333 -6.33301 -104.166 -19 -152.499s-31.667 -90.833 -57 -127.5c-26 -36.667 -58.167 -65.667 -96.5 -87s-82.833 -32 -133.5 -32c-51.333 0 -96.333 10.667 -135 32s-70.667 50.333 -96 87c-26 36.667 -45.333 79.167 -58 127.5
s-19 99.166 -19 152.499zM958 1522l-103.001 30c0 -15.333 -2.83301 -29.833 -8.5 -43.5s-12.834 -25.5 -21.501 -35.5c-9.33301 -10 -20.333 -18 -33 -24s-26 -9 -40 -9c-26 0 -49.833 5 -71.5 15s-42.834 21 -63.501 33c-21.333 11.333 -43.166 22 -65.499 32
s-47.5 15 -75.5 15c-30.667 0 -58.5 -6.33301 -83.5 -19s-46.5 -29.334 -64.5 -50.001c-18 -21.333 -32.167 -45.833 -42.5 -73.5s-15.5 -56.5 -15.5 -86.5l104 -24c0.666992 30.667 10.5 56.834 29.5 78.501s43.167 32.5 72.5 32.5c18 0 34.333 -2.33301 49 -7
s28.667 -10.334 42 -17.001c12.667 -7.33301 25.334 -15.166 38.001 -23.499s26.334 -15.833 41.001 -22.5c14 -7.33301 29.667 -13.333 47 -18s37 -7 59 -7c30 0 57.667 6 83 18s47 28.333 65 49c18 20 32.167 43.667 42.5 71s15.5 56 15.5 86z" />
    <glyph glyph-name="odieresis" unicode="&#xf6;" 
d="M122 551l-0.000976562 -22c0 -78 11.333 -150.333 34 -217s55.334 -124.667 98.001 -174c42 -49.333 93.5 -88 154.5 -116s129.833 -42 206.5 -42c76 0 144.333 14 205 42s112.334 66.667 155.001 116c42 49.333 74.333 107.333 97 174s34 139 34 217v22
c0 78 -11.333 150.5 -34 217.5s-55 125.167 -97 174.5c-42.667 49.333 -94.5 88.166 -155.5 116.499s-129.833 42.5 -206.5 42.5c-76 0 -144.333 -14.167 -205 -42.5s-112 -67.166 -154 -116.499c-42.667 -49.333 -75.334 -107.5 -98.001 -174.5s-34 -139.5 -34 -217.5z
M306.999 529l0.000976562 22c0 52.667 6.33301 103.167 19 151.5s32 90.833 58 127.5c25.333 36.667 57 65.834 95 87.501s82.667 32.5 134 32.5s96.166 -10.833 134.499 -32.5s70.5 -50.834 96.5 -87.501c25.333 -36.667 44.5 -79.167 57.5 -127.5
s19.5 -98.833 19.5 -151.5v-22c0 -53.333 -6.33301 -104.166 -19 -152.499s-31.667 -90.833 -57 -127.5c-26 -36.667 -58.167 -65.667 -96.5 -87s-82.833 -32 -133.5 -32c-51.333 0 -96.333 10.667 -135 32s-70.667 50.333 -96 87c-26 36.667 -45.333 79.167 -58 127.5
s-19 99.166 -19 152.499zM287 1396c0 -30 9.16699 -55 27.5 -75s45.5 -30 81.5 -30s63.333 10 82 30s28 45 28 75s-9.33301 55.167 -28 75.5s-46 30.5 -82 30.5s-63.167 -10.167 -81.5 -30.5s-27.5 -45.5 -27.5 -75.5zM717 1394c0 -29.333 9.16699 -54.166 27.5 -74.499
s45.5 -30.5 81.5 -30.5s63.333 10.167 82 30.5s28 45.166 28 74.499c0 30 -9.33301 55.333 -28 76s-46 31 -82 31s-63.167 -10.333 -81.5 -31s-27.5 -46 -27.5 -76z" />
    <glyph glyph-name="divide" unicode="&#xf7;" 
d="M1113 600v184h-998v-184h998zM507 1097c0 -30 9.16699 -55 27.5 -75s45.5 -30 81.5 -30s63.333 10 82 30s28 45 28 75s-9.33301 55.333 -28 76s-46 31 -82 31s-63.167 -10.333 -81.5 -31s-27.5 -46 -27.5 -76zM505 282c0 -29.333 9.16699 -54.166 27.5 -74.499
s45.5 -30.5 81.5 -30.5s63.333 10.167 82 30.5s28 45.166 28 74.499c0 30 -9.33301 55.333 -28 76s-46 31 -82 31s-63.167 -10.333 -81.5 -31s-27.5 -46 -27.5 -76z" />
    <glyph glyph-name="oslash" unicode="&#xf8;" 
d="M122 551l-0.000976562 -21.999c0 -98.667 17.667 -187.667 53 -267s86 -143.333 152 -192l-101 -205h123l74 151c28.667 -11.333 58.834 -20.166 90.501 -26.499s65.5 -9.5 101.5 -9.5c76 0 144.333 14 205 42s112.334 66.667 155.001 116
c42 49.333 74.333 107.333 97 174s34 139 34 217v22c0 50.667 -4.83301 99.167 -14.5 145.5s-23.5 89.166 -41.5 128.499c-16 35.333 -35.833 68.166 -59.5 98.499s-50.167 57.166 -79.5 80.499l101 205h-123l-73 -148c-30 13.333 -61.833 23.5 -95.5 30.5
s-69.5 10.5 -107.5 10.5c-76 0 -144.333 -14.167 -205 -42.5s-112 -67.166 -154 -116.499c-42.667 -49.333 -75.334 -107.5 -98.001 -174.5s-34 -139.5 -34 -217.5zM306.999 529.001v21.999c0 52.667 6.33301 103.167 19 151.5s32 90.833 58 127.5
c25.333 36.667 57 65.834 95 87.501s82.667 32.5 134 32.5c25.333 0 48.833 -2.83301 70.5 -8.5s42.167 -13.5 61.5 -23.5l-342 -694c-32 38 -56 83.167 -72 135.5s-24 108.833 -24 169.5zM920.999 551l0.000976562 -22.001c0 -53.333 -6.33301 -104.166 -19 -152.499
s-31.667 -90.833 -57 -127.5c-26 -36.667 -58.167 -65.667 -96.5 -87s-82.833 -32 -133.5 -32c-22.667 0 -44.167 2.16699 -64.5 6.5s-39.833 10.833 -58.5 19.5l340 689c12 -14.667 22.667 -30.667 32 -48s17.666 -35.333 24.999 -54
c10.667 -28.667 18.667 -59.167 24 -91.5s8 -65.833 8 -100.5z" />
    <glyph glyph-name="ugrave" unicode="&#xf9;" 
d="M887 0h167.999v1082h-186v-776c-10 -23.333 -22.5 -44.833 -37.5 -64.5s-32.5 -36.5 -52.5 -50.5c-24 -17.333 -52.333 -30.833 -85 -40.5s-69.667 -14.5 -111 -14.5c-35.333 0 -66.5 4.66699 -93.5 14s-49.833 25.666 -68.5 48.999
c-18.667 22.667 -32.667 53.334 -42 92.001s-14 87.334 -14 146.001v645h-185v-643c0 -80.667 8.83301 -149.834 26.5 -207.501s42.834 -105.167 75.501 -142.5s72 -64.833 118 -82.5s97.333 -26.5 154 -26.5c70.667 0 133 14.833 187 44.5s99 71.167 135 124.5z
M693.999 1219l-175 266h-223l248 -266h150z" />
    <glyph glyph-name="uacute" unicode="&#xfa;" 
d="M887 0h167.999v1082h-186v-776c-10 -23.333 -22.5 -44.833 -37.5 -64.5s-32.5 -36.5 -52.5 -50.5c-24 -17.333 -52.333 -30.833 -85 -40.5s-69.667 -14.5 -111 -14.5c-35.333 0 -66.5 4.66699 -93.5 14s-49.833 25.666 -68.5 48.999
c-18.667 22.667 -32.667 53.334 -42 92.001s-14 87.334 -14 146.001v645h-185v-643c0 -80.667 8.83301 -149.834 26.5 -207.501s42.834 -105.167 75.501 -142.5s72 -64.833 118 -82.5s97.333 -26.5 154 -26.5c70.667 0 133 14.833 187 44.5s99 71.167 135 124.5z
M710.999 1482l-184 -266h140l268 266h-224z" />
    <glyph glyph-name="ucircumflex" unicode="&#xfb;" 
d="M887 0h167.999v1082h-186v-776c-10 -23.333 -22.5 -44.833 -37.5 -64.5s-32.5 -36.5 -52.5 -50.5c-24 -17.333 -52.333 -30.833 -85 -40.5s-69.667 -14.5 -111 -14.5c-35.333 0 -66.5 4.66699 -93.5 14s-49.833 25.666 -68.5 48.999
c-18.667 22.667 -32.667 53.334 -42 92.001s-14 87.334 -14 146.001v645h-185v-643c0 -80.667 8.83301 -149.834 26.5 -207.501s42.834 -105.167 75.501 -142.5s72 -64.833 118 -82.5s97.333 -26.5 154 -26.5c70.667 0 133 14.833 187 44.5s99 71.167 135 124.5z
M916.999 1282l-248 240h-112l-245 -239v-26h152l149 151l150 -151h154v25z" />
    <glyph glyph-name="udieresis" unicode="&#xfc;" 
d="M887 0h167.999v1082h-186v-776c-10 -23.333 -22.5 -44.833 -37.5 -64.5s-32.5 -36.5 -52.5 -50.5c-24 -17.333 -52.333 -30.833 -85 -40.5s-69.667 -14.5 -111 -14.5c-35.333 0 -66.5 4.66699 -93.5 14s-49.833 25.666 -68.5 48.999
c-18.667 22.667 -32.667 53.334 -42 92.001s-14 87.334 -14 146.001v645h-185v-643c0 -80.667 8.83301 -149.834 26.5 -207.501s42.834 -105.167 75.501 -142.5s72 -64.833 118 -82.5s97.333 -26.5 154 -26.5c70.667 0 133 14.833 187 44.5s99 71.167 135 124.5z
M286.999 1376c0 -30 9.16699 -55 27.5 -75s45.5 -30 81.5 -30s63.333 10 82 30s28 45 28 75s-9.33301 55.167 -28 75.5s-46 30.5 -82 30.5s-63.167 -10.167 -81.5 -30.5s-27.5 -45.5 -27.5 -75.5zM716.999 1374c0 -29.333 9.16699 -54.166 27.5 -74.499
s45.5 -30.5 81.5 -30.5s63.333 10.167 82 30.5s28 45.166 28 74.499c0 30 -9.33301 55.333 -28 76s-46 31 -82 31s-63.167 -10.333 -81.5 -31s-27.5 -46 -27.5 -76z" />
    <glyph glyph-name="yacute" unicode="&#xfd;" 
d="M261 -437c48.667 0 91.667 9 129 27s70 40.333 98 67s51.833 55.667 71.5 87s35.834 61 48.501 89l549 1249h-207l-279 -702l-51 -127l-48 131l-297 698h-207l466 -1031l-74 -144c-6.66699 -13.333 -15.834 -30.333 -27.501 -51s-25.5 -40.667 -41.5 -60
c-16.667 -19.333 -35.5 -36 -56.5 -50s-44.167 -21 -69.5 -21c-9.33301 0 -22.166 0.5 -38.499 1.5s-32.833 2.16699 -49.5 3.5l-30 -151c12 -2.66699 29.667 -6 53 -10s43.666 -6 60.999 -6zM731 1482l-184 -266h140l268 266h-224z" />
    <glyph glyph-name="thorn" unicode="&#xfe;" 
d="M1087 529l0.000976562 20.999c0 80.667 -9 154.834 -27 222.501s-44.667 125.834 -80 174.501s-79.333 86.667 -132 114s-113.667 41 -183 41c-38.667 0 -74.834 -3.83301 -108.501 -11.5s-64.5 -19.167 -92.5 -34.5c-20 -10.667 -38.833 -23.167 -56.5 -37.5
s-34.167 -30.5 -49.5 -48.5v588h-185v-1974h185v523c15.333 -17.333 31.833 -32.833 49.5 -46.5s36.5 -25.5 56.5 -35.5c28.667 -14.667 60 -25.834 94 -33.501s70.667 -11.5 110 -11.5c68 0 128 14 180 42s96 66.667 132 116c35.333 49.333 62 107.5 80 174.5
s27 139.167 27 216.5zM902.001 549.999l0.000976562 -20.9971c0 -52.667 -5.66699 -103 -17 -151s-28.666 -90.333 -51.999 -127s-53.333 -65.834 -90 -87.501s-80.334 -32.5 -131.001 -32.5c-33.333 0 -63.666 4.16699 -90.999 12.5s-51.666 19.833 -72.999 34.5
c-18.667 12.667 -35.334 27.5 -50.001 44.5s-28 35.5 -40 55.5v518c12 21.333 25.833 41 41.5 59s33.5 33.333 53.5 46c20.667 14 44.167 24.833 70.5 32.5s55.166 11.5 86.499 11.5c51.333 0 95.333 -10.667 132 -32s67 -50 91 -86
c23.333 -36.667 40.666 -78.834 51.999 -126.501s17 -97.834 17 -150.501z" />
    <glyph glyph-name="ydieresis" unicode="&#xff;" 
d="M261 -437c48.667 0 91.667 9 129 27s70 40.333 98 67s51.833 55.667 71.5 87s35.834 61 48.501 89l549 1249h-207l-279 -702l-51 -127l-48 131l-297 698h-207l466 -1031l-74 -144c-6.66699 -13.333 -15.834 -30.333 -27.501 -51s-25.5 -40.667 -41.5 -60
c-16.667 -19.333 -35.5 -36 -56.5 -50s-44.167 -21 -69.5 -21c-9.33301 0 -22.166 0.5 -38.499 1.5s-32.833 2.16699 -49.5 3.5l-30 -151c12 -2.66699 29.667 -6 53 -10s43.666 -6 60.999 -6zM306 1376c0 -30 9.16699 -55 27.5 -75s45.5 -30 81.5 -30s63.333 10 82 30
s28 45 28 75s-9.33301 55.167 -28 75.5s-46 30.5 -82 30.5s-63.167 -10.167 -81.5 -30.5s-27.5 -45.5 -27.5 -75.5zM736 1374c0 -29.333 9.16699 -54.166 27.5 -74.499s45.5 -30.5 81.5 -30.5s63.333 10.167 82 30.5s28 45.166 28 74.499c0 30 -9.33301 55.333 -28 76
s-46 31 -82 31s-63.167 -10.333 -81.5 -31s-27.5 -46 -27.5 -76z" />
    <glyph glyph-name="Amacron" unicode="&#x100;" 
d="M869 377l115 -377h184l-462 1456h-155l-470 -1456h185l117 377h486zM433 538l195 632l192 -632h-387zM990 1643v143h-714v-143h714z" />
    <glyph glyph-name="amacron" unicode="&#x101;" 
d="M885 0h193.004v16c-12 30 -21.333 65.167 -28 105.5s-10 78.5 -10 114.5v503c0 60.667 -11 113.667 -33 159s-52 83.333 -90 114c-38.667 30 -84.334 52.5 -137.001 67.5s-109.667 22.5 -171 22.5c-67.333 0 -127.5 -9.33301 -180.5 -28s-97.833 -43 -134.5 -73
c-37.333 -30.667 -65.833 -65 -85.5 -103s-29.834 -76.667 -30.501 -116h186c0 22.667 5.5 44.5 16.5 65.5s26.5 39.167 46.5 54.5s44.5 27.666 73.5 36.999s61.833 14 98.5 14c39.333 0 74.833 -5 106.5 -15s58.5 -24 80.5 -42c22 -18.667 39 -41 51 -67s18 -55.333 18 -88
v-85h-202c-75.333 0 -143.5 -7.33301 -204.5 -22s-113.167 -36.667 -156.5 -66c-43.333 -30 -76.833 -67.333 -100.5 -112s-35.5 -96.667 -35.5 -156c0 -45.333 8.83301 -87.5 26.5 -126.5s42.834 -72.5 75.501 -100.5c32 -28.667 71.167 -51.334 117.5 -68.001
s98.166 -25 155.499 -25c35.333 0 68.666 3.66699 99.999 11s61 17.333 89 30c27.333 12.667 52.5 27.334 75.5 44.001s43.833 34.334 62.5 53.001c2 -22.667 5.16699 -44.5 9.5 -65.5s10.166 -38.5 17.499 -52.5zM558.004 141c-36 0 -67.666 4.66504 -94.999 13.998
s-50 22.333 -68 39c-18 16 -31.5 35.333 -40.5 58s-13.5 47.334 -13.5 74.001c0 28 5.16699 53 15.5 75s25.5 41 45.5 57c28 22.667 65.833 39.5 113.5 50.5s103.5 16.5 167.5 16.5h172v-219c-10.667 -21.333 -25.334 -41.833 -44.001 -61.5s-40.667 -37.167 -66 -52.5
c-26 -15.333 -54.667 -27.666 -86 -36.999s-65 -14 -101 -14zM986.005 1321v143h-714v-143h714z" />
    <glyph glyph-name="Abreve" unicode="&#x102;" 
d="M869 377l115 -377h184l-462 1456h-155l-470 -1456h185l117 377h486zM433 538l195 632l192 -632h-387zM928 1866h-149.999c0 -20 -3 -39.167 -9 -57.5s-15 -34.166 -27 -47.499s-27.167 -24 -45.5 -32s-40.5 -12 -66.5 -12c-26.667 0 -49.334 4 -68.001 12
s-34 18.667 -46 32s-21 29.166 -27 47.499s-9 37.5 -9 57.5h-150c0 -39.333 7.16699 -75.5 21.5 -108.5s34.5 -61.167 60.5 -84.5s57.333 -41.5 94 -54.5s78 -19.5 124 -19.5c45.333 0 86.333 6.5 123 19.5s68 31.167 94 54.5s46 51.5 60 84.5s21 69.167 21 108.5z" />
    <glyph glyph-name="abreve" unicode="&#x103;" 
d="M885 0h193.004v16c-12 30 -21.333 65.167 -28 105.5s-10 78.5 -10 114.5v503c0 60.667 -11 113.667 -33 159s-52 83.333 -90 114c-38.667 30 -84.334 52.5 -137.001 67.5s-109.667 22.5 -171 22.5c-67.333 0 -127.5 -9.33301 -180.5 -28s-97.833 -43 -134.5 -73
c-37.333 -30.667 -65.833 -65 -85.5 -103s-29.834 -76.667 -30.501 -116h186c0 22.667 5.5 44.5 16.5 65.5s26.5 39.167 46.5 54.5s44.5 27.666 73.5 36.999s61.833 14 98.5 14c39.333 0 74.833 -5 106.5 -15s58.5 -24 80.5 -42c22 -18.667 39 -41 51 -67s18 -55.333 18 -88
v-85h-202c-75.333 0 -143.5 -7.33301 -204.5 -22s-113.167 -36.667 -156.5 -66c-43.333 -30 -76.833 -67.333 -100.5 -112s-35.5 -96.667 -35.5 -156c0 -45.333 8.83301 -87.5 26.5 -126.5s42.834 -72.5 75.501 -100.5c32 -28.667 71.167 -51.334 117.5 -68.001
s98.166 -25 155.499 -25c35.333 0 68.666 3.66699 99.999 11s61 17.333 89 30c27.333 12.667 52.5 27.334 75.5 44.001s43.833 34.334 62.5 53.001c2 -22.667 5.16699 -44.5 9.5 -65.5s10.166 -38.5 17.499 -52.5zM558.004 141c-36 0 -67.666 4.66504 -94.999 13.998
s-50 22.333 -68 39c-18 16 -31.5 35.333 -40.5 58s-13.5 47.334 -13.5 74.001c0 28 5.16699 53 15.5 75s25.5 41 45.5 57c28 22.667 65.833 39.5 113.5 50.5s103.5 16.5 167.5 16.5h172v-219c-10.667 -21.333 -25.334 -41.833 -44.001 -61.5s-40.667 -37.167 -66 -52.5
c-26 -15.333 -54.667 -27.666 -86 -36.999s-65 -14 -101 -14zM924.005 1544h-149.999c0 -20 -3 -39.167 -9 -57.5s-15 -34.166 -27 -47.499s-27.167 -24 -45.5 -32s-40.5 -12 -66.5 -12c-26.667 0 -49.334 4 -68.001 12s-34 18.667 -46 32s-21 29.166 -27 47.499
s-9 37.5 -9 57.5h-150c0 -39.333 7.16699 -75.5 21.5 -108.5s34.5 -61.167 60.5 -84.5s57.333 -41.5 94 -54.5s78 -19.5 124 -19.5c45.333 0 86.333 6.5 123 19.5s68 31.167 94 54.5s46 51.5 60 84.5s21 69.167 21 108.5z" />
    <glyph glyph-name="Aogonek" unicode="&#x104;" 
d="M706 1456l-154.998 -0.00390625l-470 -1456h185l117 377h486l107 -352c-20 -12 -38.667 -24.5 -56 -37.5s-32.666 -27.5 -45.999 -43.5c-26 -30.667 -47 -61.667 -63 -93s-24 -62.666 -24 -93.999s5 -58.833 15 -82.5s23.667 -43.5 41 -59.5s37.666 -28 60.999 -36
s48.666 -12 75.999 -12c43.333 0 79.166 4.66699 107.499 14s51.833 19.333 70.5 30l-31 121c-10.667 -5.33301 -24.834 -11.166 -42.501 -17.499s-37.167 -9.16602 -58.5 -8.49902c-28 0 -48 6.83301 -60 20.5s-18 31.834 -18 54.501c0 24 4.83301 47.167 14.5 69.5
s23.5 43.166 41.5 62.499c14.667 16 31.834 31.333 51.501 46s41.167 28.334 64.5 41.001h48zM433.002 537.996l195 632l192 -632h-387z" />
    <glyph glyph-name="aogonek" unicode="&#x105;" 
d="M879 14c-22 -14.667 -42.1621 -30.1709 -60.4951 -46.5039s-34.5 -33.5 -48.5 -51.5c-20 -24.667 -35.5 -50.667 -46.5 -78s-16.5 -54.333 -16.5 -81c0 -31.333 5 -58.833 15 -82.5s23.667 -43.5 41 -59.5s37.666 -28 60.999 -36s48.666 -12 75.999 -12
c43.333 0 79.166 4.66699 107.499 14s51.833 19.333 70.5 30l-31 121c-10.667 -5.33301 -24.834 -11.166 -42.501 -17.499s-37.167 -9.16602 -58.5 -8.49902c-28 0 -48 6.83301 -60 20.5s-18 31.834 -18 54.501c0 20 3.33301 39.333 10 58s16.334 36.334 29.001 53.001
c14.667 20.667 33.334 40 56.001 58s48.334 34.667 77.001 50h38v16c-12 30 -21.333 65.167 -28 105.5s-10 78.5 -10 114.5v503c0 60.667 -11 113.667 -33 159s-52 83.333 -90 114c-38.667 30 -84.334 52.5 -137.001 67.5s-109.667 22.5 -171 22.5
c-67.333 0 -127.5 -9.33301 -180.5 -28s-97.833 -43 -134.5 -73c-37.333 -30.667 -65.833 -65 -85.5 -103s-29.834 -76.667 -30.501 -116h186c0 22.667 5.5 44.5 16.5 65.5s26.5 39.167 46.5 54.5s44.5 27.666 73.5 36.999s61.833 14 98.5 14c39.333 0 74.833 -5 106.5 -15
s58.5 -24 80.5 -42c22 -18.667 39 -41 51 -67s18 -55.333 18 -88v-85h-202c-75.333 0 -143.5 -7.33301 -204.5 -22s-113.167 -36.667 -156.5 -66c-43.333 -30 -76.833 -67.333 -100.5 -112s-35.5 -96.667 -35.5 -156c0 -45.333 8.83301 -87.5 26.5 -126.5
s42.834 -72.5 75.501 -100.5c32 -28.667 71.167 -51.334 117.5 -68.001s98.166 -25 155.499 -25c35.333 0 68.666 3.66699 99.999 11s61 17.333 89 30c27.333 12.667 52.5 27.334 75.5 44.001s43.833 34.334 62.5 53.001c2 -19.333 4.66699 -38 8 -56
s7.66602 -34 12.999 -48zM558.005 140.996c-36 0 -67.666 4.66602 -94.999 13.999s-50 22.333 -68 39c-18 16 -31.5 35.333 -40.5 58s-13.5 47.334 -13.5 74.001c0 28 5 52.833 15 74.5s24.667 40.167 44 55.5c28 23.333 66 40.666 114 51.999s104.333 17 169 17h172v-219
c-10.667 -21.333 -25.334 -41.833 -44.001 -61.5s-40.667 -37.167 -66 -52.5c-26 -15.333 -54.667 -27.666 -86 -36.999s-65 -14 -101 -14z" />
    <glyph glyph-name="Cacute" unicode="&#x106;" 
d="M1117 438l-185 0.000976562c-6 -44 -16.333 -84.833 -31 -122.5s-34.334 -70.167 -59.001 -97.5c-24.667 -28 -54.834 -49.667 -90.501 -65s-77.834 -23 -126.501 -23c-44.667 0 -83.667 7.16699 -117 21.5s-62.333 34.166 -87 59.499
c-24.667 24.667 -45 53.334 -61 86.001s-29 67.667 -39 105c-10 36.667 -17.167 74.167 -21.5 112.5s-6.5 75.5 -6.5 111.5v205c0 36 2.16699 73.167 6.5 111.5s11.5 75.833 21.5 112.5s23.167 71.334 39.5 104.001s36.833 61.334 61.5 86.001
c24 24.667 52.833 44.167 86.5 58.5s72.5 21.5 116.5 21.5c48.667 0 90.834 -8.16699 126.501 -24.5s65.834 -38.833 90.501 -67.5s44.334 -62 59.001 -100s25 -79 31 -123h185c-8 69.333 -24.5 132.666 -49.5 189.999s-58.167 106.666 -99.5 147.999
c-41.333 40.667 -90.666 72.167 -147.999 94.5s-122.333 33.5 -195 33.5c-60.667 0 -115.334 -8.5 -164.001 -25.5s-92 -40.5 -130 -70.5c-38.667 -30 -71.834 -65.5 -99.501 -106.5s-50.5 -85.5 -68.5 -133.5c-18.667 -48 -32.5 -98.333 -41.5 -151
s-13.833 -106 -14.5 -160v-203c0.666992 -54 5.5 -107.333 14.5 -160s22.833 -103 41.5 -151c18 -48 40.833 -92.333 68.5 -133s60.834 -76 99.501 -106c38 -30 81.5 -53.5 130.5 -70.5s103.5 -25.5 163.5 -25.5c70 0 133.5 11.167 190.5 33.5s106.5 53.833 148.5 94.5
c41.333 40 75 88.167 101 144.5s43.333 118.166 52 185.499zM764 1845l-184 -266h140l268 266h-224z" />
    <glyph glyph-name="cacute" unicode="&#x107;" 
d="M635 130c-58 0 -106.499 11.499 -145.499 34.499s-70.167 53.167 -93.5 90.5c-24 36.667 -41.167 78.167 -51.5 124.5s-15.5 93.166 -15.5 140.499v42c0 46.667 5.16699 93 15.5 139s27.5 87.667 51.5 125c24 36.667 55.5 66.5 94.5 89.5s87.167 34.5 144.5 34.5
c37.333 0 72.166 -6.33301 104.499 -19s60.166 -30 83.499 -52s41.833 -47.5 55.5 -76.5s20.834 -59.833 21.501 -92.5h175c0 54.667 -11 106 -33 154s-52.333 89.667 -91 125c-39.333 34.667 -85.833 62.167 -139.5 82.5s-112.5 30.5 -176.5 30.5
c-82 0 -153.667 -14.667 -215 -44s-112.333 -68.666 -153 -117.999c-41.333 -50 -72.333 -107.667 -93 -173s-31 -133.666 -31 -204.999v-42c0 -72 10.333 -140.5 31 -205.5s51.667 -122.167 93 -171.5c40.667 -50 91.667 -89.667 153 -119s133 -44 215 -44
c57.333 0 112.333 9.83301 165 29.5s99.334 46.167 140.001 79.5c40.667 32.667 73.167 70.834 97.5 114.501s36.833 89.5 37.5 137.5h-175c-0.666992 -30 -8.5 -57.833 -23.5 -83.5s-34.833 -47.834 -59.5 -66.501c-24.667 -19.333 -52.834 -34.333 -84.501 -45
s-64.167 -16 -97.5 -16zM741.001 1502l-184 -266h140l268 266h-224z" />
    <glyph glyph-name="Ccircumflex" unicode="&#x108;" 
d="M1117 438l-185 0.000976562c-6 -44 -16.333 -84.833 -31 -122.5s-34.334 -70.167 -59.001 -97.5c-24.667 -28 -54.834 -49.667 -90.501 -65s-77.834 -23 -126.501 -23c-44.667 0 -83.667 7.16699 -117 21.5s-62.333 34.166 -87 59.499
c-24.667 24.667 -45 53.334 -61 86.001s-29 67.667 -39 105c-10 36.667 -17.167 74.167 -21.5 112.5s-6.5 75.5 -6.5 111.5v205c0 36 2.16699 73.167 6.5 111.5s11.5 75.833 21.5 112.5s23.167 71.334 39.5 104.001s36.833 61.334 61.5 86.001
c24 24.667 52.833 44.167 86.5 58.5s72.5 21.5 116.5 21.5c48.667 0 90.834 -8.16699 126.501 -24.5s65.834 -38.833 90.501 -67.5s44.334 -62 59.001 -100s25 -79 31 -123h185c-8 69.333 -24.5 132.666 -49.5 189.999s-58.167 106.666 -99.5 147.999
c-41.333 40.667 -90.666 72.167 -147.999 94.5s-122.333 33.5 -195 33.5c-60.667 0 -115.334 -8.5 -164.001 -25.5s-92 -40.5 -130 -70.5c-38.667 -30 -71.834 -65.5 -99.501 -106.5s-50.5 -85.5 -68.5 -133.5c-18.667 -48 -32.5 -98.333 -41.5 -151
s-13.833 -106 -14.5 -160v-203c0.666992 -54 5.5 -107.333 14.5 -160s22.833 -103 41.5 -151c18 -48 40.833 -92.333 68.5 -133s60.834 -76 99.501 -106c38 -30 81.5 -53.5 130.5 -70.5s103.5 -25.5 163.5 -25.5c70 0 133.5 11.167 190.5 33.5s106.5 53.833 148.5 94.5
c41.333 40 75 88.167 101 144.5s43.333 118.166 52 185.499zM970 1645l-248 240h-112l-245 -239v-26h152l149 151l150 -151h154v25z" />
    <glyph glyph-name="ccircumflex" unicode="&#x109;" 
d="M635 130c-58 0 -106.499 11.499 -145.499 34.499s-70.167 53.167 -93.5 90.5c-24 36.667 -41.167 78.167 -51.5 124.5s-15.5 93.166 -15.5 140.499v42c0 46.667 5.16699 93 15.5 139s27.5 87.667 51.5 125c24 36.667 55.5 66.5 94.5 89.5s87.167 34.5 144.5 34.5
c37.333 0 72.166 -6.33301 104.499 -19s60.166 -30 83.499 -52s41.833 -47.5 55.5 -76.5s20.834 -59.833 21.501 -92.5h175c0 54.667 -11 106 -33 154s-52.333 89.667 -91 125c-39.333 34.667 -85.833 62.167 -139.5 82.5s-112.5 30.5 -176.5 30.5
c-82 0 -153.667 -14.667 -215 -44s-112.333 -68.666 -153 -117.999c-41.333 -50 -72.333 -107.667 -93 -173s-31 -133.666 -31 -204.999v-42c0 -72 10.333 -140.5 31 -205.5s51.667 -122.167 93 -171.5c40.667 -50 91.667 -89.667 153 -119s133 -44 215 -44
c57.333 0 112.333 9.83301 165 29.5s99.334 46.167 140.001 79.5c40.667 32.667 73.167 70.834 97.5 114.501s36.833 89.5 37.5 137.5h-175c-0.666992 -30 -8.5 -57.833 -23.5 -83.5s-34.833 -47.834 -59.5 -66.501c-24.667 -19.333 -52.834 -34.333 -84.501 -45
s-64.167 -16 -97.5 -16zM947.001 1302l-248 240h-112l-245 -239v-26h152l149 151l150 -151h154v25z" />
    <glyph glyph-name="uni010A" unicode="&#x10a;" 
d="M1117 438l-185 0.000976562c-6 -44 -16.333 -84.833 -31 -122.5s-34.334 -70.167 -59.001 -97.5c-24.667 -28 -54.834 -49.667 -90.501 -65s-77.834 -23 -126.501 -23c-44.667 0 -83.667 7.16699 -117 21.5s-62.333 34.166 -87 59.499
c-24.667 24.667 -45 53.334 -61 86.001s-29 67.667 -39 105c-10 36.667 -17.167 74.167 -21.5 112.5s-6.5 75.5 -6.5 111.5v205c0 36 2.16699 73.167 6.5 111.5s11.5 75.833 21.5 112.5s23.167 71.334 39.5 104.001s36.833 61.334 61.5 86.001
c24 24.667 52.833 44.167 86.5 58.5s72.5 21.5 116.5 21.5c48.667 0 90.834 -8.16699 126.501 -24.5s65.834 -38.833 90.501 -67.5s44.334 -62 59.001 -100s25 -79 31 -123h185c-8 69.333 -24.5 132.666 -49.5 189.999s-58.167 106.666 -99.5 147.999
c-41.333 40.667 -90.666 72.167 -147.999 94.5s-122.333 33.5 -195 33.5c-60.667 0 -115.334 -8.5 -164.001 -25.5s-92 -40.5 -130 -70.5c-38.667 -30 -71.834 -65.5 -99.501 -106.5s-50.5 -85.5 -68.5 -133.5c-18.667 -48 -32.5 -98.333 -41.5 -151
s-13.833 -106 -14.5 -160v-203c0.666992 -54 5.5 -107.333 14.5 -160s22.833 -103 41.5 -151c18 -48 40.833 -92.333 68.5 -133s60.834 -76 99.501 -106c38 -30 81.5 -53.5 130.5 -70.5s103.5 -25.5 163.5 -25.5c70 0 133.5 11.167 190.5 33.5s106.5 53.833 148.5 94.5
c41.333 40 75 88.167 101 144.5s43.333 118.166 52 185.499zM550 1726c0 -30.667 9.66699 -56.5 29 -77.5s48 -31.5 86 -31.5s66.667 10.5 86 31.5s29 46.833 29 77.5c0 32 -9.66699 58.667 -29 80s-48 32 -86 32s-66.667 -10.667 -86 -32s-29 -48 -29 -80z" />
    <glyph glyph-name="uni010B" unicode="&#x10b;" 
d="M635 130c-58 0 -106.499 11.499 -145.499 34.499s-70.167 53.167 -93.5 90.5c-24 36.667 -41.167 78.167 -51.5 124.5s-15.5 93.166 -15.5 140.499v42c0 46.667 5.16699 93 15.5 139s27.5 87.667 51.5 125c24 36.667 55.5 66.5 94.5 89.5s87.167 34.5 144.5 34.5
c37.333 0 72.166 -6.33301 104.499 -19s60.166 -30 83.499 -52s41.833 -47.5 55.5 -76.5s20.834 -59.833 21.501 -92.5h175c0 54.667 -11 106 -33 154s-52.333 89.667 -91 125c-39.333 34.667 -85.833 62.167 -139.5 82.5s-112.5 30.5 -176.5 30.5
c-82 0 -153.667 -14.667 -215 -44s-112.333 -68.666 -153 -117.999c-41.333 -50 -72.333 -107.667 -93 -173s-31 -133.666 -31 -204.999v-42c0 -72 10.333 -140.5 31 -205.5s51.667 -122.167 93 -171.5c40.667 -50 91.667 -89.667 153 -119s133 -44 215 -44
c57.333 0 112.333 9.83301 165 29.5s99.334 46.167 140.001 79.5c40.667 32.667 73.167 70.834 97.5 114.501s36.833 89.5 37.5 137.5h-175c-0.666992 -30 -8.5 -57.833 -23.5 -83.5s-34.833 -47.834 -59.5 -66.501c-24.667 -19.333 -52.834 -34.333 -84.501 -45
s-64.167 -16 -97.5 -16zM527.001 1383c0 -30.667 9.66699 -56.5 29 -77.5s48 -31.5 86 -31.5s66.667 10.5 86 31.5s29 46.833 29 77.5c0 32 -9.66699 58.667 -29 80s-48 32 -86 32s-66.667 -10.667 -86 -32s-29 -48 -29 -80z" />
    <glyph glyph-name="Ccaron" unicode="&#x10c;" 
d="M1117 438l-185 0.000976562c-6 -44 -16.333 -84.833 -31 -122.5s-34.334 -70.167 -59.001 -97.5c-24.667 -28 -54.834 -49.667 -90.501 -65s-77.834 -23 -126.501 -23c-44.667 0 -83.667 7.16699 -117 21.5s-62.333 34.166 -87 59.499
c-24.667 24.667 -45 53.334 -61 86.001s-29 67.667 -39 105c-10 36.667 -17.167 74.167 -21.5 112.5s-6.5 75.5 -6.5 111.5v205c0 36 2.16699 73.167 6.5 111.5s11.5 75.833 21.5 112.5s23.167 71.334 39.5 104.001s36.833 61.334 61.5 86.001
c24 24.667 52.833 44.167 86.5 58.5s72.5 21.5 116.5 21.5c48.667 0 90.834 -8.16699 126.501 -24.5s65.834 -38.833 90.501 -67.5s44.334 -62 59.001 -100s25 -79 31 -123h185c-8 69.333 -24.5 132.666 -49.5 189.999s-58.167 106.666 -99.5 147.999
c-41.333 40.667 -90.666 72.167 -147.999 94.5s-122.333 33.5 -195 33.5c-60.667 0 -115.334 -8.5 -164.001 -25.5s-92 -40.5 -130 -70.5c-38.667 -30 -71.834 -65.5 -99.501 -106.5s-50.5 -85.5 -68.5 -133.5c-18.667 -48 -32.5 -98.333 -41.5 -151
s-13.833 -106 -14.5 -160v-203c0.666992 -54 5.5 -107.333 14.5 -160s22.833 -103 41.5 -151c18 -48 40.833 -92.333 68.5 -133s60.834 -76 99.501 -106c38 -30 81.5 -53.5 130.5 -70.5s103.5 -25.5 163.5 -25.5c70 0 133.5 11.167 190.5 33.5s106.5 53.833 148.5 94.5
c41.333 40 75 88.167 101 144.5s43.333 118.166 52 185.499zM665 1734l-151 152h-157v-21l251 -245h114l254 248v18h-160z" />
    <glyph glyph-name="ccaron" unicode="&#x10d;" 
d="M635 130c-58 0 -106.499 11.499 -145.499 34.499s-70.167 53.167 -93.5 90.5c-24 36.667 -41.167 78.167 -51.5 124.5s-15.5 93.166 -15.5 140.499v42c0 46.667 5.16699 93 15.5 139s27.5 87.667 51.5 125c24 36.667 55.5 66.5 94.5 89.5s87.167 34.5 144.5 34.5
c37.333 0 72.166 -6.33301 104.499 -19s60.166 -30 83.499 -52s41.833 -47.5 55.5 -76.5s20.834 -59.833 21.501 -92.5h175c0 54.667 -11 106 -33 154s-52.333 89.667 -91 125c-39.333 34.667 -85.833 62.167 -139.5 82.5s-112.5 30.5 -176.5 30.5
c-82 0 -153.667 -14.667 -215 -44s-112.333 -68.666 -153 -117.999c-41.333 -50 -72.333 -107.667 -93 -173s-31 -133.666 -31 -204.999v-42c0 -72 10.333 -140.5 31 -205.5s51.667 -122.167 93 -171.5c40.667 -50 91.667 -89.667 153 -119s133 -44 215 -44
c57.333 0 112.333 9.83301 165 29.5s99.334 46.167 140.001 79.5c40.667 32.667 73.167 70.834 97.5 114.501s36.833 89.5 37.5 137.5h-175c-0.666992 -30 -8.5 -57.833 -23.5 -83.5s-34.833 -47.834 -59.5 -66.501c-24.667 -19.333 -52.834 -34.333 -84.501 -45
s-64.167 -16 -97.5 -16zM642.001 1391l-151 152h-157v-21l251 -245h114l254 248v18h-160z" />
    <glyph glyph-name="Dcaron" unicode="&#x10e;" 
d="M155 0l337.001 -0.000976562c70 0.666992 135.167 9 195.5 25s114.5 39 162.5 69c45.333 28.667 86.333 63.334 123 104.001s67 86 91 136c23.333 48 41.166 100.667 53.499 158s18.5 118 18.5 182v107c-0.666992 66.667 -7.5 129.334 -20.5 188.001
s-31.833 112.667 -56.5 162c-27.333 58 -63.833 109.167 -109.5 153.5s-98.167 80.166 -157.5 107.499c-42.667 20 -89.167 35.5 -139.5 46.5s-103.833 16.833 -160.5 17.5h-337v-1456zM343.001 1304l149 0.00292969c46 -0.666992 88.333 -5.83398 127 -15.501
s73.667 -23.167 105 -40.5c44 -23.333 81.167 -53.833 111.5 -91.5s54.5 -79.834 72.5 -126.501c14 -36 24.5 -74.833 31.5 -116.5s10.833 -85.167 11.5 -130.5v-109c-0.666992 -44.667 -4.33398 -87.5 -11.001 -128.5s-16.667 -79.167 -30 -114.5
c-15.333 -43.333 -36.166 -82.5 -62.499 -117.5s-57.5 -64.5 -93.5 -88.5c-34 -23.333 -72.833 -41.333 -116.5 -54s-92.167 -19.334 -145.5 -20.001h-149v1153zM574.001 1713l-151 152h-157v-21l251 -245h114l254 248v18h-160z" />
    <glyph glyph-name="dcaron" unicode="&#x10f;" 
d="M100 550l-0.00195312 -20.998c0 -77.333 10.333 -149.5 31 -216.5s49.667 -125.167 87 -174.5s82.5 -88 135.5 -116s112.167 -42 177.5 -42c66.667 0 125 11.333 175 34s93 56 129 100l8 -114h170v1536h-185v-561c-35.333 41.333 -77.166 72.833 -125.499 94.5
s-104.833 32.5 -169.5 32.5c-66 0 -125.667 -13.667 -179 -41s-98.666 -65.333 -135.999 -114c-38 -48.667 -67.167 -106.834 -87.5 -174.501s-30.5 -141.834 -30.5 -222.501zM284.998 529.002l-0.000976562 20.998c0 52.667 5.66699 102.834 17 150.501
s29 89.834 53 126.501c23.333 36 53.5 64.667 90.5 86s81.5 32 133.5 32c60.667 0 111.334 -14.167 152.001 -42.5s73 -64.5 97 -108.5v-502c-24 -47.333 -56.333 -85 -97 -113s-92 -42 -154 -42c-51.333 0 -95.333 10.5 -132 31.5s-66.667 49.5 -90 85.5
c-24 36 -41.667 77.667 -53 125s-17 97.333 -17 150zM1471 1411v146.998h-181v-150c0 -57.333 -7.83301 -110.666 -23.5 -159.999s-39.167 -97.666 -70.5 -144.999l101 -72c28 24 52.667 51.333 74 82s39.666 63 54.999 97c14.667 33.333 25.834 67.333 33.501 102
s11.5 67.667 11.5 99z" />
    <glyph glyph-name="Dcroat" unicode="&#x110;" 
d="M170 0l337 0.000976562c101.333 0.666992 191.833 17.5 271.5 50.5s147.167 79.167 202.5 138.5c54.667 58.667 96.5 129.167 125.5 211.5s43.833 173.5 44.5 273.5v107c-0.666992 100 -15.5 191.167 -44.5 273.5s-70.833 153.166 -125.5 212.499
c-55.333 58.667 -122.833 104.5 -202.5 137.5s-170.167 50.167 -271.5 51.5h-337v-639h-229v-151h229v-666zM578 666.001l-0.000976562 151h-220v487h149c78.667 -1.33301 146.667 -15.333 204 -42s104.666 -63 141.999 -109c37.333 -46.667 65.333 -101.5 84 -164.5
s28.334 -131.5 29.001 -205.5v-109c-0.666992 -74 -10.167 -142.667 -28.5 -206s-46.166 -118.333 -83.499 -165c-38 -46.667 -85.667 -83.5 -143 -110.5s-125.333 -40.833 -204 -41.5h-149v515h220z" />
    <glyph glyph-name="dcroat" unicode="&#x111;" 
d="M1234 1234l-0.00292969 151.003h-197v151h-185v-151h-255v-151h255v-259c-13.333 15.333 -27.5 29.5 -42.5 42.5s-31.167 24.5 -48.5 34.5c-28 16.667 -59 29.167 -93 37.5s-71 12.5 -111 12.5c-66 0 -125.667 -13.667 -179 -41s-98.666 -65.333 -135.999 -114
c-38 -48.667 -67.167 -106.834 -87.5 -174.501s-30.5 -141.834 -30.5 -222.501v-21c0 -77.333 10.333 -149.5 31 -216.5s49.667 -125.167 87 -174.5s82.5 -88 135.5 -116s112.167 -42 177.5 -42c36.667 0 70.834 3.5 102.501 10.5s60.834 17.167 87.501 30.5
c22 11.333 42.5 24.666 61.5 39.999s36.5 33 52.5 53l8 -114h170v1234h197zM308.997 529.003l-0.000976562 20.998c0 52.667 5.66699 102.834 17 150.501s29 89.834 53 126.501c23.333 36 53.5 64.667 90.5 86s81.5 32 133.5 32c27.333 0 52.833 -3.16699 76.5 -9.5
s45.167 -14.833 64.5 -25.5c22.667 -13.333 43 -30 61 -50s33.667 -42 47 -66v-502c-12 -23.333 -26 -44.5 -42 -63.5s-34.333 -35.167 -55 -48.5c-20.667 -14 -43.667 -24.667 -69 -32s-53.666 -11 -84.999 -11c-51.333 0 -95.333 10.5 -132 31.5s-66.667 49.5 -90 85.5
c-24 36 -41.667 77.667 -53 125s-17 97.333 -17 150z" />
    <glyph glyph-name="Emacron" unicode="&#x112;" 
d="M975 673v157h-608v468h700v158h-885v-1456h894v157h-709v516h608zM980 1643v143h-714v-143h714z" />
    <glyph glyph-name="emacron" unicode="&#x113;" 
d="M652 -20c105.333 0 193.833 21.165 265.5 63.498s125.5 90.833 161.5 145.5l-113 88c-34 -44 -76.667 -79.333 -128 -106s-110 -40 -176 -40c-50 0 -95.667 9.33301 -137 28s-76.666 44.334 -105.999 77.001c-28.667 30.667 -51.167 66 -67.5 106
s-26.833 86.333 -31.5 139v7h773v83c0 75.333 -9.5 145.333 -28.5 210s-47.833 121 -86.5 169c-38.667 47.333 -87.167 84.5 -145.5 111.5s-126.5 40.5 -204.5 40.5c-62 0 -122.5 -12.667 -181.5 -38s-111.5 -61.666 -157.5 -108.999c-46.667 -48 -84 -106.5 -112 -175.5
s-42 -147.167 -42 -234.5v-42c0 -75.333 12.667 -145 38 -209s60.666 -119.333 105.999 -166s99.833 -83 163.5 -109s133.5 -39 209.5 -39zM628 949.998c47.333 0 88.168 -8.66797 122.501 -26.001s62.833 -40 85.5 -68s40.334 -61.167 53.001 -99.5s19 -74.166 19 -107.499
v-9h-582c7.33301 50 20.166 94.167 38.499 132.5s40.833 70.833 67.5 97.5c26.667 26 56.667 45.833 90 59.5s68.666 20.5 105.999 20.5zM981.002 1322v143h-714v-143h714z" />
    <glyph glyph-name="Ebreve" unicode="&#x114;" 
d="M975 673v157h-608v468h700v158h-885v-1456h894v157h-709v516h608zM918 1866h-149.999c0 -20 -3 -39.167 -9 -57.5s-15 -34.166 -27 -47.499s-27.167 -24 -45.5 -32s-40.5 -12 -66.5 -12c-26.667 0 -49.334 4 -68.001 12s-34 18.667 -46 32s-21 29.166 -27 47.499
s-9 37.5 -9 57.5h-150c0 -39.333 7.16699 -75.5 21.5 -108.5s34.5 -61.167 60.5 -84.5s57.333 -41.5 94 -54.5s78 -19.5 124 -19.5c45.333 0 86.333 6.5 123 19.5s68 31.167 94 54.5s46 51.5 60 84.5s21 69.167 21 108.5z" />
    <glyph glyph-name="ebreve" unicode="&#x115;" 
d="M652 -20c105.333 0 193.833 21.165 265.5 63.498s125.5 90.833 161.5 145.5l-113 88c-34 -44 -76.667 -79.333 -128 -106s-110 -40 -176 -40c-50 0 -95.667 9.33301 -137 28s-76.666 44.334 -105.999 77.001c-28.667 30.667 -51.167 66 -67.5 106
s-26.833 86.333 -31.5 139v7h773v83c0 75.333 -9.5 145.333 -28.5 210s-47.833 121 -86.5 169c-38.667 47.333 -87.167 84.5 -145.5 111.5s-126.5 40.5 -204.5 40.5c-62 0 -122.5 -12.667 -181.5 -38s-111.5 -61.666 -157.5 -108.999c-46.667 -48 -84 -106.5 -112 -175.5
s-42 -147.167 -42 -234.5v-42c0 -75.333 12.667 -145 38 -209s60.666 -119.333 105.999 -166s99.833 -83 163.5 -109s133.5 -39 209.5 -39zM628 949.998c47.333 0 88.168 -8.66797 122.501 -26.001s62.833 -40 85.5 -68s40.334 -61.167 53.001 -99.5s19 -74.166 19 -107.499
v-9h-582c7.33301 50 20.166 94.167 38.499 132.5s40.833 70.833 67.5 97.5c26.667 26 56.667 45.833 90 59.5s68.666 20.5 105.999 20.5zM919.002 1545h-149.999c0 -20 -3 -39.167 -9 -57.5s-15 -34.166 -27 -47.499s-27.167 -24 -45.5 -32s-40.5 -12 -66.5 -12
c-26.667 0 -49.334 4 -68.001 12s-34 18.667 -46 32s-21 29.166 -27 47.499s-9 37.5 -9 57.5h-150c0 -39.333 7.16699 -75.5 21.5 -108.5s34.5 -61.167 60.5 -84.5s57.333 -41.5 94 -54.5s78 -19.5 124 -19.5c45.333 0 86.333 6.5 123 19.5s68 31.167 94 54.5
s46 51.5 60 84.5s21 69.167 21 108.5z" />
    <glyph glyph-name="Edotaccent" unicode="&#x116;" 
d="M975 673v157h-608v468h700v158h-885v-1456h894v157h-709v516h608zM503 1705c0 -30.667 9.66699 -56.5 29 -77.5s48 -31.5 86 -31.5s66.667 10.5 86 31.5s29 46.833 29 77.5c0 32 -9.66699 58.667 -29 80s-48 32 -86 32s-66.667 -10.667 -86 -32s-29 -48 -29 -80z" />
    <glyph glyph-name="edotaccent" unicode="&#x117;" 
d="M652 -20c105.333 0 193.833 21.165 265.5 63.498s125.5 90.833 161.5 145.5l-113 88c-34 -44 -76.667 -79.333 -128 -106s-110 -40 -176 -40c-50 0 -95.667 9.33301 -137 28s-76.666 44.334 -105.999 77.001c-28.667 30.667 -51.167 66 -67.5 106
s-26.833 86.333 -31.5 139v7h773v83c0 75.333 -9.5 145.333 -28.5 210s-47.833 121 -86.5 169c-38.667 47.333 -87.167 84.5 -145.5 111.5s-126.5 40.5 -204.5 40.5c-62 0 -122.5 -12.667 -181.5 -38s-111.5 -61.666 -157.5 -108.999c-46.667 -48 -84 -106.5 -112 -175.5
s-42 -147.167 -42 -234.5v-42c0 -75.333 12.667 -145 38 -209s60.666 -119.333 105.999 -166s99.833 -83 163.5 -109s133.5 -39 209.5 -39zM628 949.998c47.333 0 88.168 -8.66797 122.501 -26.001s62.833 -40 85.5 -68s40.334 -61.167 53.001 -99.5s19 -74.166 19 -107.499
v-9h-582c7.33301 50 20.166 94.167 38.499 132.5s40.833 70.833 67.5 97.5c26.667 26 56.667 45.833 90 59.5s68.666 20.5 105.999 20.5zM504.002 1384c0 -30.667 9.66699 -56.5 29 -77.5s48 -31.5 86 -31.5s66.667 10.5 86 31.5s29 46.833 29 77.5
c0 32 -9.66699 58.667 -29 80s-48 32 -86 32s-66.667 -10.667 -86 -32s-29 -48 -29 -80z" />
    <glyph glyph-name="Eogonek" unicode="&#x118;" 
d="M975 673l0.00488281 156.998h-608v468h700v158h-885v-1456h629c-18 -13.333 -34.833 -27.333 -50.5 -42s-29.167 -29.667 -40.5 -45c-20 -24.667 -35.167 -50.334 -45.5 -77.001s-15.5 -53 -15.5 -79c0 -31.333 5 -58.833 15 -82.5s23.667 -43.5 41 -59.5
s37.666 -28 60.999 -36s48.666 -12 75.999 -12c43.333 0 79.166 4.66699 107.499 14s51.833 19.333 70.5 30l-31 121c-10.667 -5.33301 -24.834 -11.166 -42.501 -17.499s-37.167 -9.16602 -58.5 -8.49902c-28 0 -48 6.83301 -60 20.5s-18 31.834 -18 54.501
c0 24 5 47.333 15 70s24 43.667 42 63c14.667 16 31.667 31.167 51 45.5s40.666 27.833 63.999 40.5h84v157h-709v516h608z" />
    <glyph glyph-name="eogonek" unicode="&#x119;" 
d="M135 503c0 -74 12.1719 -142.503 36.5049 -205.503s58.833 -117.5 103.5 -163.5c43.333 -46 95.333 -82.333 156 -109s127.667 -41.334 201 -44.001h2.5h2.5c-34 -32 -60.167 -65.5 -78.5 -100.5s-27.5 -70.167 -27.5 -105.5c0 -31.333 5 -58.833 15 -82.5
s23.667 -43.5 41 -59.5s37.666 -28 60.999 -36s48.666 -12 75.999 -12c43.333 0 79.166 4.66699 107.499 14s51.833 19.333 70.5 30l-31 121c-10.667 -5.33301 -24.834 -11.166 -42.501 -17.499s-37.167 -9.16602 -58.5 -8.49902c-28 0 -48 6.83301 -60 20.5
s-18 31.834 -18 54.501c0 25.333 5.33301 49.5 16 72.5s25.334 44.5 44.001 64.5c14.667 15.333 31.5 29.833 50.5 43.5s39.5 26.5 61.5 38.5c46 16.667 87.667 40.834 125 72.501s67.333 64.5 90 98.5l-113 88c-34 -44 -76.667 -79.333 -128 -106s-110 -40 -176 -40
c-50 0 -95.833 9.5 -137.5 28.5s-76.834 44.167 -105.501 75.5c-32.667 35.333 -57.334 76.166 -74.001 122.499s-25 89.5 -25 129.5v1h773v83c0 75.333 -9.5 145.333 -28.5 210s-47.833 121 -86.5 169c-38.667 47.333 -87.167 84.5 -145.5 111.5s-126.5 40.5 -204.5 40.5
c-62 0 -122.5 -12.667 -181.5 -38s-111.5 -61.666 -157.5 -108.999c-46.667 -48 -84 -106.5 -112 -175.5s-42 -147.167 -42 -234.5v-42zM628.005 949.997c47.333 0 88.001 -8.66602 122.001 -25.999s62.667 -40 86 -68c20.667 -25.333 37.834 -57.333 51.501 -96
s20.5 -76.334 20.5 -113.001v-7h-582c7.33301 50 20.166 94.167 38.499 132.5s40.833 70.833 67.5 97.5c26.667 26 56.667 45.833 90 59.5s68.666 20.5 105.999 20.5z" />
    <glyph glyph-name="Ecaron" unicode="&#x11a;" 
d="M975 673v157h-608v468h700v158h-885v-1456h894v157h-709v516h608zM618 1713l-151 152h-157v-21l251 -245h114l254 248v18h-160z" />
    <glyph glyph-name="ecaron" unicode="&#x11b;" 
d="M652 -20c105.333 0 193.833 21.165 265.5 63.498s125.5 90.833 161.5 145.5l-113 88c-34 -44 -76.667 -79.333 -128 -106s-110 -40 -176 -40c-50 0 -95.667 9.33301 -137 28s-76.666 44.334 -105.999 77.001c-28.667 30.667 -51.167 66 -67.5 106
s-26.833 86.333 -31.5 139v7h773v83c0 75.333 -9.5 145.333 -28.5 210s-47.833 121 -86.5 169c-38.667 47.333 -87.167 84.5 -145.5 111.5s-126.5 40.5 -204.5 40.5c-62 0 -122.5 -12.667 -181.5 -38s-111.5 -61.666 -157.5 -108.999c-46.667 -48 -84 -106.5 -112 -175.5
s-42 -147.167 -42 -234.5v-42c0 -75.333 12.667 -145 38 -209s60.666 -119.333 105.999 -166s99.833 -83 163.5 -109s133.5 -39 209.5 -39zM628 949.998c47.333 0 88.168 -8.66797 122.501 -26.001s62.833 -40 85.5 -68s40.334 -61.167 53.001 -99.5s19 -74.166 19 -107.499
v-9h-582c7.33301 50 20.166 94.167 38.499 132.5s40.833 70.833 67.5 97.5c26.667 26 56.667 45.833 90 59.5s68.666 20.5 105.999 20.5zM619.002 1392l-151 152h-157v-21l251 -245h114l254 248v18h-160z" />
    <glyph glyph-name="Gcircumflex" unicode="&#x11c;" 
d="M1116 191l-2.99902 534.001h-472v-156h296l-2 -327c-15.333 -22 -34.333 -39.833 -57 -53.5s-47 -24.5 -73 -32.5s-52.833 -13.333 -80.5 -16s-54.167 -3.66699 -79.5 -3c-44 0.666992 -83.333 8.5 -118 23.5s-65 35.167 -91 60.5
c-26.667 25.333 -49.334 54.666 -68.001 87.999s-34 68.666 -46 105.999s-20.833 75.5 -26.5 114.5s-8.83398 76.833 -9.50098 113.5v171c0 36 2.33301 73.333 7 112s12.334 76.667 23.001 114s24.334 72.833 41.001 106.5s37.667 63.167 63 88.5s55 45.5 89 60.5
s73 22.5 117 22.5c46 0 86.333 -7.16699 121 -21.5s64.667 -34.166 90 -59.499c24.667 -25.333 44.667 -55.833 60 -91.5s26.666 -74.5 33.999 -116.5h183c-6 68 -22 129.5 -48 184.5s-60.333 102.167 -103 141.5c-42.667 38.667 -92.667 68.5 -150 89.5
s-120 31.5 -188 31.5c-61.333 0 -116.666 -9 -165.999 -27s-93.333 -42.333 -132 -73c-39.333 -31.333 -73 -68.166 -101 -110.499s-51.333 -88.166 -70 -137.499s-32.5 -100.833 -41.5 -154.5s-13.833 -107.5 -14.5 -161.5v-169
c0.666992 -54.667 6.16699 -108.834 16.5 -162.501s25.833 -104.834 46.5 -153.501c20 -49.333 45 -95 75 -137s65 -78.333 105 -109c40 -31.333 85.167 -55.833 135.5 -73.5s105.5 -26.834 165.5 -27.501c59.333 -0.666992 116 5.83301 170 19.5s104.333 34.5 151 62.5
c27.333 16 53.666 34.833 78.999 56.5s49.333 45.834 72 72.501zM943.001 1645l-248 240h-112l-245 -239v-26h152l149 151l150 -151h154v25z" />
    <glyph glyph-name="gcircumflex" unicode="&#x11d;" 
d="M140 550l-0.00195312 -20.9951c0 -77.333 10 -149.5 30 -216.5s48.667 -125.167 86 -174.5c36.667 -49.333 81.667 -88 135 -116s113 -42 179 -42c39.333 0 76 4.16699 110 12.5s65 20.166 93 35.499c18 10 34.833 21.667 50.5 35s30.5 28 44.5 44v-93
c0 -46.667 -6.66699 -88 -20 -124s-32.333 -66 -57 -90c-25.333 -24.667 -55.666 -43.334 -90.999 -56.001s-75 -19 -119 -19c-24.667 0 -49.334 2.5 -74.001 7.5s-49.334 13.167 -74.001 24.5s-49 26.5 -73 45.5s-47.333 42.167 -70 69.5l-96 -111
c24.667 -35.333 54.167 -65 88.5 -89s70.166 -43 107.499 -57c36.667 -14.667 73 -25.167 109 -31.5s68 -9.5 96 -9.5c68 0 130 10 186 30s104.333 49.333 145 88c40 38.667 71.167 85.667 93.5 141s33.5 118.666 33.5 189.999v1059h-168l-9 -118
c-12.667 16 -26.167 30.667 -40.5 44s-29.5 25 -45.5 35c-29.333 19.333 -62.166 34 -98.499 44s-76.166 15 -119.499 15c-67.333 0 -127.666 -13.667 -180.999 -41s-98.666 -65.333 -135.999 -114s-65.833 -106.834 -85.5 -174.501s-29.5 -141.834 -29.5 -222.501z
M324.998 529.005l0.000976562 20.998c0 52.667 5.5 102.834 16.5 150.501s28.5 89.834 52.5 126.501c23.333 36 53.5 64.667 90.5 86s81.5 32 133.5 32c30.667 0 58.667 -3.83301 84 -11.5s48.333 -18.167 69 -31.5c20.667 -14 39 -30.333 55 -49s30 -39.334 42 -62.001
v-496c-12 -23.333 -26 -44.666 -42 -63.999s-34 -36 -54 -50c-20.667 -14 -43.834 -24.833 -69.501 -32.5s-54.5 -11.5 -86.5 -11.5c-51.333 0 -95.333 10.5 -132 31.5s-66.667 49.5 -90 85.5c-24 36 -41.5 77.667 -52.5 125s-16.5 97.333 -16.5 150zM906.999 1302l-248 240
h-112l-245 -239v-26h152l149 151l150 -151h154v25z" />
    <glyph glyph-name="Gbreve" unicode="&#x11e;" 
d="M1116 191l-2.99902 534.001h-472v-156h296l-2 -327c-15.333 -22 -34.333 -39.833 -57 -53.5s-47 -24.5 -73 -32.5s-52.833 -13.333 -80.5 -16s-54.167 -3.66699 -79.5 -3c-44 0.666992 -83.333 8.5 -118 23.5s-65 35.167 -91 60.5
c-26.667 25.333 -49.334 54.666 -68.001 87.999s-34 68.666 -46 105.999s-20.833 75.5 -26.5 114.5s-8.83398 76.833 -9.50098 113.5v171c0 36 2.33301 73.333 7 112s12.334 76.667 23.001 114s24.334 72.833 41.001 106.5s37.667 63.167 63 88.5s55 45.5 89 60.5
s73 22.5 117 22.5c46 0 86.333 -7.16699 121 -21.5s64.667 -34.166 90 -59.499c24.667 -25.333 44.667 -55.833 60 -91.5s26.666 -74.5 33.999 -116.5h183c-6 68 -22 129.5 -48 184.5s-60.333 102.167 -103 141.5c-42.667 38.667 -92.667 68.5 -150 89.5
s-120 31.5 -188 31.5c-61.333 0 -116.666 -9 -165.999 -27s-93.333 -42.333 -132 -73c-39.333 -31.333 -73 -68.166 -101 -110.499s-51.333 -88.166 -70 -137.499s-32.5 -100.833 -41.5 -154.5s-13.833 -107.5 -14.5 -161.5v-169
c0.666992 -54.667 6.16699 -108.834 16.5 -162.501s25.833 -104.834 46.5 -153.501c20 -49.333 45 -95 75 -137s65 -78.333 105 -109c40 -31.333 85.167 -55.833 135.5 -73.5s105.5 -26.834 165.5 -27.501c59.333 -0.666992 116 5.83301 170 19.5s104.333 34.5 151 62.5
c27.333 16 53.666 34.833 78.999 56.5s49.333 45.834 72 72.501zM938.001 1887h-149.999c0 -20 -3 -39.167 -9 -57.5s-15 -34.166 -27 -47.499s-27.167 -24 -45.5 -32s-40.5 -12 -66.5 -12c-26.667 0 -49.334 4 -68.001 12s-34 18.667 -46 32s-21 29.166 -27 47.499
s-9 37.5 -9 57.5h-150c0 -39.333 7.16699 -75.5 21.5 -108.5s34.5 -61.167 60.5 -84.5s57.333 -41.5 94 -54.5s78 -19.5 124 -19.5c45.333 0 86.333 6.5 123 19.5s68 31.167 94 54.5s46 51.5 60 84.5s21 69.167 21 108.5z" />
    <glyph glyph-name="gbreve" unicode="&#x11f;" 
d="M140 550l-0.00195312 -20.9951c0 -77.333 10 -149.5 30 -216.5s48.667 -125.167 86 -174.5c36.667 -49.333 81.667 -88 135 -116s113 -42 179 -42c39.333 0 76 4.16699 110 12.5s65 20.166 93 35.499c18 10 34.833 21.667 50.5 35s30.5 28 44.5 44v-93
c0 -46.667 -6.66699 -88 -20 -124s-32.333 -66 -57 -90c-25.333 -24.667 -55.666 -43.334 -90.999 -56.001s-75 -19 -119 -19c-24.667 0 -49.334 2.5 -74.001 7.5s-49.334 13.167 -74.001 24.5s-49 26.5 -73 45.5s-47.333 42.167 -70 69.5l-96 -111
c24.667 -35.333 54.167 -65 88.5 -89s70.166 -43 107.499 -57c36.667 -14.667 73 -25.167 109 -31.5s68 -9.5 96 -9.5c68 0 130 10 186 30s104.333 49.333 145 88c40 38.667 71.167 85.667 93.5 141s33.5 118.666 33.5 189.999v1059h-168l-9 -118
c-12.667 16 -26.167 30.667 -40.5 44s-29.5 25 -45.5 35c-29.333 19.333 -62.166 34 -98.499 44s-76.166 15 -119.499 15c-67.333 0 -127.666 -13.667 -180.999 -41s-98.666 -65.333 -135.999 -114s-65.833 -106.834 -85.5 -174.501s-29.5 -141.834 -29.5 -222.501z
M324.998 529.005l0.000976562 20.998c0 52.667 5.5 102.834 16.5 150.501s28.5 89.834 52.5 126.501c23.333 36 53.5 64.667 90.5 86s81.5 32 133.5 32c30.667 0 58.667 -3.83301 84 -11.5s48.333 -18.167 69 -31.5c20.667 -14 39 -30.333 55 -49s30 -39.334 42 -62.001
v-496c-12 -23.333 -26 -44.666 -42 -63.999s-34 -36 -54 -50c-20.667 -14 -43.834 -24.833 -69.501 -32.5s-54.5 -11.5 -86.5 -11.5c-51.333 0 -95.333 10.5 -132 31.5s-66.667 49.5 -90 85.5c-24 36 -41.5 77.667 -52.5 125s-16.5 97.333 -16.5 150zM902.999 1544h-149.999
c0 -20 -3 -39.167 -9 -57.5s-15 -34.166 -27 -47.499s-27.167 -24 -45.5 -32s-40.5 -12 -66.5 -12c-26.667 0 -49.334 4 -68.001 12s-34 18.667 -46 32s-21 29.166 -27 47.499s-9 37.5 -9 57.5h-150c0 -39.333 7.16699 -75.5 21.5 -108.5s34.5 -61.167 60.5 -84.5
s57.333 -41.5 94 -54.5s78 -19.5 124 -19.5c45.333 0 86.333 6.5 123 19.5s68 31.167 94 54.5s46 51.5 60 84.5s21 69.167 21 108.5z" />
    <glyph glyph-name="uni0120" unicode="&#x120;" 
d="M1116 191l-2.99902 534.001h-472v-156h296l-2 -327c-15.333 -22 -34.333 -39.833 -57 -53.5s-47 -24.5 -73 -32.5s-52.833 -13.333 -80.5 -16s-54.167 -3.66699 -79.5 -3c-44 0.666992 -83.333 8.5 -118 23.5s-65 35.167 -91 60.5
c-26.667 25.333 -49.334 54.666 -68.001 87.999s-34 68.666 -46 105.999s-20.833 75.5 -26.5 114.5s-8.83398 76.833 -9.50098 113.5v171c0 36 2.33301 73.333 7 112s12.334 76.667 23.001 114s24.334 72.833 41.001 106.5s37.667 63.167 63 88.5s55 45.5 89 60.5
s73 22.5 117 22.5c46 0 86.333 -7.16699 121 -21.5s64.667 -34.166 90 -59.499c24.667 -25.333 44.667 -55.833 60 -91.5s26.666 -74.5 33.999 -116.5h183c-6 68 -22 129.5 -48 184.5s-60.333 102.167 -103 141.5c-42.667 38.667 -92.667 68.5 -150 89.5
s-120 31.5 -188 31.5c-61.333 0 -116.666 -9 -165.999 -27s-93.333 -42.333 -132 -73c-39.333 -31.333 -73 -68.166 -101 -110.499s-51.333 -88.166 -70 -137.499s-32.5 -100.833 -41.5 -154.5s-13.833 -107.5 -14.5 -161.5v-169
c0.666992 -54.667 6.16699 -108.834 16.5 -162.501s25.833 -104.834 46.5 -153.501c20 -49.333 45 -95 75 -137s65 -78.333 105 -109c40 -31.333 85.167 -55.833 135.5 -73.5s105.5 -26.834 165.5 -27.501c59.333 -0.666992 116 5.83301 170 19.5s104.333 34.5 151 62.5
c27.333 16 53.666 34.833 78.999 56.5s49.333 45.834 72 72.501zM523.001 1726c0 -30.667 9.66699 -56.5 29 -77.5s48 -31.5 86 -31.5s66.667 10.5 86 31.5s29 46.833 29 77.5c0 32 -9.66699 58.667 -29 80s-48 32 -86 32s-66.667 -10.667 -86 -32s-29 -48 -29 -80z" />
    <glyph glyph-name="uni0121" unicode="&#x121;" 
d="M140 550l-0.00195312 -20.9951c0 -77.333 10 -149.5 30 -216.5s48.667 -125.167 86 -174.5c36.667 -49.333 81.667 -88 135 -116s113 -42 179 -42c39.333 0 76 4.16699 110 12.5s65 20.166 93 35.499c18 10 34.833 21.667 50.5 35s30.5 28 44.5 44v-93
c0 -46.667 -6.66699 -88 -20 -124s-32.333 -66 -57 -90c-25.333 -24.667 -55.666 -43.334 -90.999 -56.001s-75 -19 -119 -19c-24.667 0 -49.334 2.5 -74.001 7.5s-49.334 13.167 -74.001 24.5s-49 26.5 -73 45.5s-47.333 42.167 -70 69.5l-96 -111
c24.667 -35.333 54.167 -65 88.5 -89s70.166 -43 107.499 -57c36.667 -14.667 73 -25.167 109 -31.5s68 -9.5 96 -9.5c68 0 130 10 186 30s104.333 49.333 145 88c40 38.667 71.167 85.667 93.5 141s33.5 118.666 33.5 189.999v1059h-168l-9 -118
c-12.667 16 -26.167 30.667 -40.5 44s-29.5 25 -45.5 35c-29.333 19.333 -62.166 34 -98.499 44s-76.166 15 -119.499 15c-67.333 0 -127.666 -13.667 -180.999 -41s-98.666 -65.333 -135.999 -114s-65.833 -106.834 -85.5 -174.501s-29.5 -141.834 -29.5 -222.501z
M324.998 529.005l0.000976562 20.998c0 52.667 5.5 102.834 16.5 150.501s28.5 89.834 52.5 126.501c23.333 36 53.5 64.667 90.5 86s81.5 32 133.5 32c30.667 0 58.667 -3.83301 84 -11.5s48.333 -18.167 69 -31.5c20.667 -14 39 -30.333 55 -49s30 -39.334 42 -62.001
v-496c-12 -23.333 -26 -44.666 -42 -63.999s-34 -36 -54 -50c-20.667 -14 -43.834 -24.833 -69.501 -32.5s-54.5 -11.5 -86.5 -11.5c-51.333 0 -95.333 10.5 -132 31.5s-66.667 49.5 -90 85.5c-24 36 -41.5 77.667 -52.5 125s-16.5 97.333 -16.5 150zM487.999 1383
c0 -30.667 9.66699 -56.5 29 -77.5s48 -31.5 86 -31.5s66.667 10.5 86 31.5s29 46.833 29 77.5c0 32 -9.66699 58.667 -29 80s-48 32 -86 32s-66.667 -10.667 -86 -32s-29 -48 -29 -80z" />
    <glyph glyph-name="Gcommaaccent" unicode="&#x122;" 
d="M1116 191l-2.99902 534.001h-472v-156h296l-2 -327c-15.333 -22 -34.333 -39.833 -57 -53.5s-47 -24.5 -73 -32.5s-52.833 -13.333 -80.5 -16s-54.167 -3.66699 -79.5 -3c-44 0.666992 -83.333 8.5 -118 23.5s-65 35.167 -91 60.5
c-26.667 25.333 -49.334 54.666 -68.001 87.999s-34 68.666 -46 105.999s-20.833 75.5 -26.5 114.5s-8.83398 76.833 -9.50098 113.5v171c0 36 2.33301 73.333 7 112s12.334 76.667 23.001 114s24.334 72.833 41.001 106.5s37.667 63.167 63 88.5s55 45.5 89 60.5
s73 22.5 117 22.5c46 0 86.333 -7.16699 121 -21.5s64.667 -34.166 90 -59.499c24.667 -25.333 44.667 -55.833 60 -91.5s26.666 -74.5 33.999 -116.5h183c-6 68 -22 129.5 -48 184.5s-60.333 102.167 -103 141.5c-42.667 38.667 -92.667 68.5 -150 89.5
s-120 31.5 -188 31.5c-61.333 0 -116.666 -9 -165.999 -27s-93.333 -42.333 -132 -73c-39.333 -31.333 -73 -68.166 -101 -110.499s-51.333 -88.166 -70 -137.499s-32.5 -100.833 -41.5 -154.5s-13.833 -107.5 -14.5 -161.5v-169
c0.666992 -54.667 6.16699 -108.834 16.5 -162.501s25.833 -104.834 46.5 -153.501c20 -49.333 45 -95 75 -137s65 -78.333 105 -109c40 -31.333 85.167 -55.833 135.5 -73.5s105.5 -26.834 165.5 -27.501c59.333 -0.666992 116 5.83301 170 19.5s104.333 34.5 151 62.5
c27.333 16 53.666 34.833 78.999 56.5s49.333 45.834 72 72.501zM729.001 -135.999v69.999h-176v-73c0 -50 -6.16699 -96.167 -18.5 -138.5s-30.833 -84.166 -55.5 -125.499l105 -72c47.333 41.333 83.333 92.5 108 153.5s37 122.833 37 185.5z" />
    <glyph glyph-name="gcommaaccent" unicode="&#x123;" 
d="M140 550l-0.00195312 -20.9951c0 -77.333 10 -149.5 30 -216.5s48.667 -125.167 86 -174.5c36.667 -49.333 81.667 -88 135 -116s113 -42 179 -42c39.333 0 76 4.16699 110 12.5s65 20.166 93 35.499c18 10 34.833 21.667 50.5 35s30.5 28 44.5 44v-93
c0 -46.667 -6.66699 -88 -20 -124s-32.333 -66 -57 -90c-25.333 -24.667 -55.666 -43.334 -90.999 -56.001s-75 -19 -119 -19c-24.667 0 -49.334 2.5 -74.001 7.5s-49.334 13.167 -74.001 24.5s-49 26.5 -73 45.5s-47.333 42.167 -70 69.5l-96 -111
c24.667 -35.333 54.167 -65 88.5 -89s70.166 -43 107.499 -57c36.667 -14.667 73 -25.167 109 -31.5s68 -9.5 96 -9.5c68 0 130 10 186 30s104.333 49.333 145 88c40 38.667 71.167 85.667 93.5 141s33.5 118.666 33.5 189.999v1059h-168l-9 -118
c-12.667 16 -26.167 30.667 -40.5 44s-29.5 25 -45.5 35c-29.333 19.333 -62.166 34 -98.499 44s-76.166 15 -119.499 15c-67.333 0 -127.666 -13.667 -180.999 -41s-98.666 -65.333 -135.999 -114s-65.833 -106.834 -85.5 -174.501s-29.5 -141.834 -29.5 -222.501z
M324.998 529.005l0.000976562 20.998c0 52.667 5.5 102.834 16.5 150.501s28.5 89.834 52.5 126.501c23.333 36 53.5 64.667 90.5 86s81.5 32 133.5 32c30.667 0 58.667 -3.83301 84 -11.5s48.333 -18.167 69 -31.5c20.667 -14 39 -30.333 55 -49s30 -39.334 42 -62.001
v-496c-12 -23.333 -26 -44.666 -42 -63.999s-34 -36 -54 -50c-20.667 -14 -43.834 -24.833 -69.501 -32.5s-54.5 -11.5 -86.5 -11.5c-51.333 0 -95.333 10.5 -132 31.5s-66.667 49.5 -90 85.5c-24 36 -41.5 77.667 -52.5 125s-16.5 97.333 -16.5 150zM511.999 1383v-128.999
h185v120c0 40.667 4.5 78.667 13.5 114s25.167 72.666 48.5 111.999l-107 83c-32 -28 -63.333 -70.5 -94 -127.5s-46 -114.5 -46 -172.5z" />
    <glyph glyph-name="Hcircumflex" unicode="&#x124;" 
d="M1087 0v1456h-175v-626h-597v626h-174v-1456h174v673h597v-673h175zM911 1624l-248 240h-112l-245 -239v-26h152l149 151l150 -151h154v25z" />
    <glyph glyph-name="hcircumflex" unicode="&#x125;" 
d="M359 921v615h-185v-1536h185v786c13.333 21.333 28.5 40.833 45.5 58.5s35.5 33.167 55.5 46.5c25.333 17.333 53 30.666 83 39.999s61.667 14 95 14c40.667 0.666992 76.667 -4.83301 108 -16.5s57.333 -29.167 78 -52.5c19.333 -21.333 34 -48.166 44 -80.499
s15 -69.833 15 -112.5v-683h185v681c0 72.667 -8.83301 135.5 -26.5 188.5s-42.834 96.833 -75.501 131.5s-72.167 60.167 -118.5 76.5s-97.833 24.5 -154.5 24.5c-43.333 -0.666992 -84.166 -7 -122.499 -19s-73.5 -29.667 -105.5 -53c-20 -14 -39 -30.167 -57 -48.5
s-34.333 -38.5 -49 -60.5zM580 1663l-248 240h-112l-245 -239v-26h152l149 151l150 -151h154v25z" />
    <glyph glyph-name="Hbar" unicode="&#x126;" 
d="M1084 1167v289h-175v-289h-597v289h-174v-289h-114v-143h114v-1024h174v673h597v-673h175v1024h128v143h-128zM312 830v194h597v-194h-597z" />
    <glyph glyph-name="hbar" unicode="&#x127;" 
d="M648 1234l0.00292969 151h-274v151h-185v-151h-178v-151h178v-1234h185v786c13.333 21.333 28.333 40.833 45 58.5s35 33.167 55 46.5c25.333 17.333 53.166 30.666 83.499 39.999s62.166 14 95.499 14c39.333 0.666992 74.5 -4.5 105.5 -15.5s56.833 -27.5 77.5 -49.5
c20 -21.333 35.333 -48.5 46 -81.5s16 -71.5 16 -115.5v-683h185v681c0 72.667 -8.83301 135.5 -26.5 188.5s-42.834 96.833 -75.501 131.5s-72.167 60.167 -118.5 76.5s-97.833 24.5 -154.5 24.5c-37.333 -0.666992 -72.833 -5.5 -106.5 -14.5s-65.167 -22.167 -94.5 -39.5
c-26 -15.333 -50.167 -33.666 -72.5 -54.999s-42.5 -45.333 -60.5 -72v313h274z" />
    <glyph glyph-name="Itilde" unicode="&#x128;" 
d="M174 1456v-161h341v-1135h-341v-160h880v160h-349v1135h349v161h-880zM911 1844l-103.001 30c0 -15.333 -2.83301 -29.833 -8.5 -43.5s-12.834 -25.5 -21.501 -35.5c-9.33301 -10 -20.333 -18 -33 -24s-26 -9 -40 -9c-26 0 -49.833 5 -71.5 15s-42.834 21 -63.501 33
c-21.333 11.333 -43.166 22 -65.499 32s-47.5 15 -75.5 15c-30.667 0 -58.5 -6.33301 -83.5 -19s-46.5 -29.334 -64.5 -50.001c-18 -21.333 -32.167 -45.833 -42.5 -73.5s-15.5 -56.5 -15.5 -86.5l104 -24c0.666992 30.667 10.5 56.834 29.5 78.501s43.167 32.5 72.5 32.5
c18 0 34.333 -2.33301 49 -7s28.667 -10.334 42 -17.001c12.667 -7.33301 25.334 -15.166 38.001 -23.499s26.334 -15.833 41.001 -22.5c14 -7.33301 29.667 -13.333 47 -18s37 -7 59 -7c30 0 57.667 6 83 18s47 28.333 65 49c18 20 32.167 43.667 42.5 71s15.5 56 15.5 86z
" />
    <glyph glyph-name="itilde" unicode="&#x129;" 
d="M203 1082v-161h368v-761h-368v-160h906v160h-353v922h-553zM1010 1501l-103.001 30c0 -15.333 -2.83301 -29.833 -8.5 -43.5s-12.834 -25.5 -21.501 -35.5c-9.33301 -10 -20.333 -18 -33 -24s-26 -9 -40 -9c-26 0 -49.833 5 -71.5 15s-42.834 21 -63.501 33
c-21.333 11.333 -43.166 22 -65.499 32s-47.5 15 -75.5 15c-30.667 0 -58.5 -6.33301 -83.5 -19s-46.5 -29.334 -64.5 -50.001c-18 -21.333 -32.167 -45.833 -42.5 -73.5s-15.5 -56.5 -15.5 -86.5l104 -24c0.666992 30.667 10.5 56.834 29.5 78.501s43.167 32.5 72.5 32.5
c18 0 34.333 -2.33301 49 -7s28.667 -10.334 42 -17.001c12.667 -7.33301 25.334 -15.166 38.001 -23.499s26.334 -15.833 41.001 -22.5c14 -7.33301 29.667 -13.333 47 -18s37 -7 59 -7c30 0 57.667 6 83 18s47 28.333 65 49c18 20 32.167 43.667 42.5 71s15.5 56 15.5 86z
" />
    <glyph glyph-name="Imacron" unicode="&#x12a;" 
d="M174 1456v-161h341v-1135h-341v-160h880v160h-349v1135h349v161h-880zM929 1643v143h-714v-143h714z" />
    <glyph glyph-name="imacron" unicode="&#x12b;" 
d="M203 1082v-161h368v-761h-368v-160h906v160h-353v922h-553zM1027 1301v143h-714v-143h714z" />
    <glyph glyph-name="Ibreve" unicode="&#x12c;" 
d="M174 1456v-161h341v-1135h-341v-160h880v160h-349v1135h349v161h-880zM867 1866h-149.999c0 -20 -3 -39.167 -9 -57.5s-15 -34.166 -27 -47.499s-27.167 -24 -45.5 -32s-40.5 -12 -66.5 -12c-26.667 0 -49.334 4 -68.001 12s-34 18.667 -46 32s-21 29.166 -27 47.499
s-9 37.5 -9 57.5h-150c0 -39.333 7.16699 -75.5 21.5 -108.5s34.5 -61.167 60.5 -84.5s57.333 -41.5 94 -54.5s78 -19.5 124 -19.5c45.333 0 86.333 6.5 123 19.5s68 31.167 94 54.5s46 51.5 60 84.5s21 69.167 21 108.5z" />
    <glyph glyph-name="ibreve" unicode="&#x12d;" 
d="M203 1082v-161h368v-761h-368v-160h906v160h-353v922h-553zM965 1523h-149.999c0 -20 -3 -39.167 -9 -57.5s-15 -34.166 -27 -47.499s-27.167 -24 -45.5 -32s-40.5 -12 -66.5 -12c-26.667 0 -49.334 4 -68.001 12s-34 18.667 -46 32s-21 29.166 -27 47.499
s-9 37.5 -9 57.5h-150c0 -39.333 7.16699 -75.5 21.5 -108.5s34.5 -61.167 60.5 -84.5s57.333 -41.5 94 -54.5s78 -19.5 124 -19.5c45.333 0 86.333 6.5 123 19.5s68 31.167 94 54.5s46 51.5 60 84.5s21 69.167 21 108.5z" />
    <glyph glyph-name="Iogonek" unicode="&#x12e;" 
d="M174 1456l0.00488281 -161.004h341v-1135h-341v-160h407c-16.667 -12 -32 -24.5 -46 -37.5s-26.667 -26.5 -38 -40.5c-22 -26 -38.833 -53.167 -50.5 -81.5s-17.5 -56.166 -17.5 -83.499c0 -31.333 5 -58.833 15 -82.5s23.667 -43.5 41 -59.5s37.666 -28 60.999 -36
s48.666 -12 75.999 -12c43.333 0 79.166 4.66699 107.499 14s51.833 19.333 70.5 30l-31 121c-10.667 -5.33301 -24.834 -11.166 -42.501 -17.499s-37.167 -9.16602 -58.5 -8.49902c-28 0 -48 6.83301 -60 20.5s-18 31.834 -18 54.501c0 24.667 5.16699 48.5 15.5 71.5
s25.166 44.5 44.499 64.5c14 15.333 30.5 30 49.5 44s39.833 27 62.5 39h292v160h-349v1135h349v161h-880z" />
    <glyph glyph-name="iogonek" unicode="&#x12f;" 
d="M203 1082l0.00390625 -161.004h368v-761h-368v-160h372c-15.333 -11.333 -29.833 -23.166 -43.5 -35.499s-25.834 -25.166 -36.501 -38.499c-23.333 -26.667 -41.166 -54.334 -53.499 -83.001s-18.5 -57.334 -18.5 -86.001c0 -31.333 5 -58.833 15 -82.5
s23.667 -43.5 41 -59.5s37.666 -28 60.999 -36s48.666 -12 75.999 -12c43.333 0 79.166 4.66699 107.499 14s51.833 19.333 70.5 30l-31 121c-10.667 -5.33301 -24.834 -11.166 -42.501 -17.499s-37.167 -9.16602 -58.5 -8.49902c-28 0 -48 6.83301 -60 20.5
s-18 31.834 -18 54.501c0 23.333 4.66699 45.833 14 67.5s22.333 41.834 39 60.501c14.667 17.333 32 33.5 52 48.5s42.333 29.167 67 42.5h353v160h-353v922h-553zM547.004 1366c0 -30 9.16699 -55 27.5 -75s46.166 -30 83.499 -30c36.667 0 64.334 10 83.001 30
s28 45 28 75c0 30.667 -9.33301 56.5 -28 77.5s-46.334 31.5 -83.001 31.5c-37.333 0 -65.166 -10.5 -83.499 -31.5s-27.5 -46.833 -27.5 -77.5z" />
    <glyph glyph-name="Idotaccent" unicode="&#x130;" 
d="M174 1456v-161h341v-1135h-341v-160h880v160h-349v1135h349v161h-880zM452 1705c0 -30.667 9.66699 -56.5 29 -77.5s48 -31.5 86 -31.5s66.667 10.5 86 31.5s29 46.833 29 77.5c0 32 -9.66699 58.667 -29 80s-48 32 -86 32s-66.667 -10.667 -86 -32s-29 -48 -29 -80z" />
    <glyph glyph-name="dotlessi" unicode="&#x131;" 
d="M203 1082v-161h368v-761h-368v-160h906v160h-353v922h-553z" />
    <glyph glyph-name="IJ" unicode="&#x132;" 
d="M313 0v1456h-185v-1456h185zM915 1456v-1133c0 -29.333 -2.5 -55.833 -7.5 -79.5s-13.5 -43.5 -25.5 -59.5c-12 -16.667 -28 -29.5 -48 -38.5s-45.333 -13.5 -76 -13.5c-45.333 0 -81.333 15 -108 45s-40 78 -40 144h-186c0 -58 8.33301 -108.333 25 -151
s39.667 -78 69 -106s64.5 -48.833 105.5 -62.5s85.833 -20.5 134.5 -20.5c58 0 108.5 7.66699 151.5 23s78.833 37.666 107.5 66.999c28 29.333 48.833 65.166 62.5 107.499s20.5 90.5 20.5 144.5v1133h-185z" />
    <glyph glyph-name="ij" unicode="&#x133;" 
d="M686 1082l0.000976562 -161.002h222v-926c0 -51.333 -6.5 -94.166 -19.5 -128.499s-30.833 -61.5 -53.5 -81.5c-22.667 -20.667 -49.334 -35.167 -80.001 -43.5s-63.334 -12.5 -98.001 -12.5c-9.33301 0 -22 0.166992 -38 0.5s-33 1.16602 -51 2.49902
c-18 0.666992 -35.667 1.83398 -53 3.50098s-31.666 3.5 -42.999 5.5l-13 -158c15.333 -2.66699 30.333 -5 45 -7s29 -3.66699 43 -5c20 -2 40 -3.33301 60 -4s41 -1 63 -1c66.667 0 126.167 9.33301 178.5 28s96.833 46.334 133.5 83.001c36 36.667 63.5 81.5 82.5 134.5
s28.5 114.167 28.5 183.5v1087h-407zM85.001 1082v-161h234v-761h-239v-160h648v160h-223v922h-420zM303.001 1362c0 -30 9.16699 -55.167 27.5 -75.5s46.166 -30.5 83.499 -30.5c36.667 0 64.334 10.167 83.001 30.5s28 45.5 28 75.5s-9.33301 55.5 -28 76.5
s-46.334 31.5 -83.001 31.5c-37.333 0 -65.166 -10.5 -83.499 -31.5s-27.5 -46.5 -27.5 -76.5zM881.001 1363c0 -30 9 -55.167 27 -75.5s45.667 -30.5 83 -30.5s65.333 10.167 84 30.5s28 45.5 28 75.5s-9.33301 55.5 -28 76.5s-46.667 31.5 -84 31.5s-65 -10.5 -83 -31.5
s-27 -46.5 -27 -76.5z" />
    <glyph glyph-name="Jcircumflex" unicode="&#x134;" 
d="M857 1456l0.000976562 -1013c-1.33301 -41.333 -8.5 -80.5 -21.5 -117.5s-31.5 -69.5 -55.5 -97.5c-24.667 -28 -54.334 -50.167 -89.001 -66.5s-74 -24.5 -118 -24.5c-42.667 0 -81.167 7 -115.5 21s-63.833 34 -88.5 60c-24.667 25.333 -44.167 55.333 -58.5 90
s-22.5 72.334 -24.5 113.001h-188c6 -67.333 21.333 -128.166 46 -182.499s57.667 -100.5 99 -138.5c40.667 -38.667 88.834 -68.334 144.501 -89.001s117.5 -31 185.5 -31c67.333 0 129.5 11.5 186.5 34.5s106.5 55.167 148.5 96.5c42 40.667 75.167 89.334 99.5 146.001
s37.166 118.667 38.499 186v1013h-189zM1247 1611l-248 240h-112l-245 -239v-26h152l149 151l150 -151h154v25z" />
    <glyph glyph-name="jcircumflex" unicode="&#x135;" 
d="M260 1082l-0.00195312 -160.999h364v-928c0 -51.333 -6.5 -94.5 -19.5 -129.5s-30.833 -63.167 -53.5 -84.5s-49.167 -36.5 -79.5 -45.5s-62.833 -13.5 -97.5 -13.5c-9.33301 0 -22.166 0.166992 -38.499 0.5s-33.5 1.16602 -51.5 2.49902
c-18 0.666992 -35.5 1.83398 -52.5 3.50098s-31.167 3.5 -42.5 5.5l-13 -152c16 -2.66699 31.333 -5 46 -7s29.334 -3.66699 44.001 -5c19.333 -2 38.833 -3.33301 58.5 -4s40.5 -1 62.5 -1c66.667 0 126.167 9.5 178.5 28.5s96.833 46.833 133.5 83.5
c36 36 63.5 80.667 82.5 134s28.5 114.666 28.5 183.999v1089h-550zM1013 1272l-248 240h-112l-245 -239v-26h152l149 151l150 -151h154v25z" />
    <glyph glyph-name="Kcommaaccent" unicode="&#x136;" 
d="M523 676l440 -676h225l-543 819l509 637h-225l-427 -535l-141 -176v711h-189v-1456h189v492zM734 -111v69.999h-176v-73c0 -50 -6.16699 -96.167 -18.5 -138.5s-30.833 -84.166 -55.5 -125.499l105 -72c47.333 41.333 83.333 92.5 108 153.5s37 122.833 37 185.5z" />
    <glyph glyph-name="kcommaaccent" unicode="&#x137;" 
d="M498 505l397 -505h235l-505 631l438 451h-225l-355 -356l-121 -130v940h-186v-1536h186v374zM650 -109v69.999h-176v-73c0 -50 -6.16699 -96.167 -18.5 -138.5s-30.833 -84.166 -55.5 -125.499l105 -72c47.333 41.333 83.333 92.5 108 153.5s37 122.833 37 185.5z" />
    <glyph glyph-name="kgreenlandic" unicode="&#x138;" 
d="M521 477l383 -477h234l-492 603l456 479h-223l-398 -411l-110 -120v531h-185v-1082h185v344z" />
    <glyph glyph-name="Lacute" unicode="&#x139;" 
d="M383 157v1299h-185v-1456h897v157h-712zM392 1792l-184 -266h140l268 266h-224z" />
    <glyph glyph-name="lacute" unicode="&#x13a;" 
d="M203 1536v-161h368v-1215h-368v-160h906v160h-353v1376h-553zM756 1894l-184 -266h140l268 266h-224z" />
    <glyph glyph-name="Lcommaaccent" unicode="&#x13b;" 
d="M383 157v1299h-185v-1456h897v157h-712zM735 -117v69.999h-176v-73c0 -50 -6.16699 -96.167 -18.5 -138.5s-30.833 -84.166 -55.5 -125.499l105 -72c47.333 41.333 83.333 92.5 108 153.5s37 122.833 37 185.5z" />
    <glyph glyph-name="lcommaaccent" unicode="&#x13c;" 
d="M203 1536v-161h368v-1215h-368v-160h906v160h-353v1376h-553zM762 -116v69.999h-176v-73c0 -50 -6.16699 -96.167 -18.5 -138.5s-30.833 -84.166 -55.5 -125.499l105 -72c47.333 41.333 83.333 92.5 108 153.5s37 122.833 37 185.5z" />
    <glyph glyph-name="Lcaron" unicode="&#x13d;" 
d="M383 157v1299h-185v-1456h897v157h-712zM978 1309v146.998h-181v-150c0 -57.333 -7.83301 -110.666 -23.5 -159.999s-39.167 -97.666 -70.5 -144.999l101 -72c28 24 52.667 51.333 74 82s39.666 63 54.999 97c14.667 33.333 25.834 67.333 33.501 102
s11.5 67.667 11.5 99z" />
    <glyph glyph-name="lcaron" unicode="&#x13e;" 
d="M153 1536v-161h368v-1215h-368v-160h906v160h-353v1376h-553zM1199 1393v146.998h-181v-150c0 -57.333 -7.83301 -110.666 -23.5 -159.999s-39.167 -97.666 -70.5 -144.999l101 -72c28 24 52.667 51.333 74 82s39.666 63 54.999 97
c14.667 33.333 25.834 67.333 33.501 102s11.5 67.667 11.5 99z" />
    <glyph glyph-name="Ldot" unicode="&#x13f;" 
d="M383 157v1299h-185v-1456h897v157h-712zM614 787c0 -30.667 9.66699 -56.5 29 -77.5s48 -31.5 86 -31.5s66.667 10.5 86 31.5s29 46.833 29 77.5c0 32 -9.66699 58.667 -29 80s-48 32 -86 32s-66.667 -10.667 -86 -32s-29 -48 -29 -80z" />
    <glyph glyph-name="ldot" unicode="&#x140;" 
d="M133 1537v-161h368v-1215h-368v-160h906v160h-353v1376h-553zM812 821c0 -30.667 9.66699 -56.5 29 -77.5s48 -31.5 86 -31.5s66.667 10.5 86 31.5s29 46.833 29 77.5c0 32 -9.66699 58.667 -29 80s-48 32 -86 32s-66.667 -10.667 -86 -32s-29 -48 -29 -80z" />
    <glyph glyph-name="Lslash" unicode="&#x141;" 
d="M387 845v611h-185v-670l-144 -45v-162l144 45v-624h897v157h-712v526l262 83v162z" />
    <glyph glyph-name="lslash" unicode="&#x142;" 
d="M756 973v563h-553v-161h368v-487l-339 -154v-162l339 154v-566h-368v-160h906v160h-353v651l289 132l1 162z" />
    <glyph glyph-name="Nacute" unicode="&#x143;" 
d="M1086 0v1456h-187l-3 -1086l-565 1086h-188v-1456h187l3 1088l565 -1088h188zM688 1824l-184 -266h140l268 266h-224z" />
    <glyph glyph-name="nacute" unicode="&#x144;" 
d="M174 0l185.002 0.000976562v776c12.667 23.333 27.5 44.666 44.5 63.999s35.5 36.333 55.5 51c24.667 16.667 51.667 29.834 81 39.501s61 14.5 95 14.5c39.333 0 74.166 -4.66699 104.499 -14s56.166 -24.333 77.499 -45c20.667 -20.667 36.334 -47.667 47.001 -81
s16 -74 16 -122v-683h185v687c0 72 -8.83301 134.167 -26.5 186.5s-42.834 95.5 -75.501 129.5s-72.167 59 -118.5 75s-97.833 24 -154.5 24c-42 -0.666992 -81.833 -6.83398 -119.5 -18.501s-72.5 -28.167 -104.5 -49.5c-21.333 -14 -41.5 -30.5 -60.5 -49.5
s-36.5 -39.833 -52.5 -62.5l-13 160h-166v-1082zM703.002 1502l-184 -266h140l268 266h-224z" />
    <glyph glyph-name="Ncommaaccent" unicode="&#x145;" 
d="M1086 0v1456h-187l-3 -1086l-565 1086h-188v-1456h187l3 1088l565 -1088h188zM684 -117v69.999h-176v-73c0 -50 -6.16699 -96.167 -18.5 -138.5s-30.833 -84.166 -55.5 -125.499l105 -72c47.333 41.333 83.333 92.5 108 153.5s37 122.833 37 185.5z" />
    <glyph glyph-name="ncommaaccent" unicode="&#x146;" 
d="M174 0l185.002 0.000976562v776c12.667 23.333 27.5 44.666 44.5 63.999s35.5 36.333 55.5 51c24.667 16.667 51.667 29.834 81 39.501s61 14.5 95 14.5c39.333 0 74.166 -4.66699 104.499 -14s56.166 -24.333 77.499 -45c20.667 -20.667 36.334 -47.667 47.001 -81
s16 -74 16 -122v-683h185v687c0 72 -8.83301 134.167 -26.5 186.5s-42.834 95.5 -75.501 129.5s-72.167 59 -118.5 75s-97.833 24 -154.5 24c-42 -0.666992 -81.833 -6.83398 -119.5 -18.501s-72.5 -28.167 -104.5 -49.5c-21.333 -14 -41.5 -30.5 -60.5 -49.5
s-36.5 -39.833 -52.5 -62.5l-13 160h-166v-1082zM699.002 -116.999v69.999h-176v-73c0 -50 -6.16699 -96.167 -18.5 -138.5s-30.833 -84.166 -55.5 -125.499l105 -72c47.333 41.333 83.333 92.5 108 153.5s37 122.833 37 185.5z" />
    <glyph glyph-name="Ncaron" unicode="&#x147;" 
d="M1086 0v1456h-187l-3 -1086l-565 1086h-188v-1456h187l3 1088l565 -1088h188zM590 1713l-151 152h-157v-21l251 -245h114l254 248v18h-160z" />
    <glyph glyph-name="ncaron" unicode="&#x148;" 
d="M174 0l185.002 0.000976562v776c12.667 23.333 27.5 44.666 44.5 63.999s35.5 36.333 55.5 51c24.667 16.667 51.667 29.834 81 39.501s61 14.5 95 14.5c39.333 0 74.166 -4.66699 104.499 -14s56.166 -24.333 77.499 -45c20.667 -20.667 36.334 -47.667 47.001 -81
s16 -74 16 -122v-683h185v687c0 72 -8.83301 134.167 -26.5 186.5s-42.834 95.5 -75.501 129.5s-72.167 59 -118.5 75s-97.833 24 -154.5 24c-42 -0.666992 -81.833 -6.83398 -119.5 -18.501s-72.5 -28.167 -104.5 -49.5c-21.333 -14 -41.5 -30.5 -60.5 -49.5
s-36.5 -39.833 -52.5 -62.5l-13 160h-166v-1082zM605.002 1391l-151 152h-157v-21l251 -245h114l254 248v18h-160z" />
    <glyph glyph-name="napostrophe" unicode="&#x149;" 
d="M174 0l185.002 0.000976562v776c12.667 23.333 27.5 44.666 44.5 63.999s35.5 36.333 55.5 51c24.667 16.667 51.667 29.834 81 39.501s61 14.5 95 14.5c39.333 0 74.166 -4.66699 104.499 -14s56.166 -24.333 77.499 -45c20.667 -20.667 36.334 -47.667 47.001 -81
s16 -74 16 -122v-683h185v687c0 72 -8.83301 134.167 -26.5 186.5s-42.834 95.5 -75.501 129.5s-72.167 59 -118.5 75s-97.833 24 -154.5 24c-42 -0.666992 -81.833 -6.83398 -119.5 -18.501s-72.5 -28.167 -104.5 -49.5c-21.333 -14 -41.5 -30.5 -60.5 -49.5
s-36.5 -39.833 -52.5 -62.5l-13 160h-166v-1082zM205.002 1411v146.998h-181v-150c0 -57.333 -7.83301 -110.666 -23.5 -159.999s-39.167 -97.666 -70.5 -144.999l101 -72c28 24 52.667 51.333 74 82s39.666 63 54.999 97c14.667 33.333 25.834 67.333 33.501 102
s11.5 67.667 11.5 99z" />
    <glyph glyph-name="Eng" unicode="&#x14a;" 
d="M1052 1456l-184.999 0.000976562v-1067l-504 1061l-3 6h-185v-1456h185v1069l507 -1067v-91c0 -35.333 -4.16699 -66.833 -12.5 -94.5s-20.5 -50.167 -36.5 -67.5c-10.667 -10.667 -22.834 -19 -36.501 -25s-29.167 -9 -46.5 -9c-12 0 -27.667 1.16699 -47 3.5
s-35.666 5.5 -48.999 9.5l-14 -147c19.333 -6.66699 37.5 -11.334 54.5 -14.001s35.5 -4 55.5 -4c50.667 0 95.667 7.83301 135 23.5s72.666 38.5 99.999 68.5c26.667 30 47.167 66.5 61.5 109.5s21.5 91.833 21.5 146.5z" />
    <glyph glyph-name="eng" unicode="&#x14b;" 
d="M184 0l184.996 -0.000976562v810c10.667 17.333 22.834 33.5 36.501 48.5s28.834 28.167 45.501 39.5c22 15.333 47.667 27 77 35s62 12 98 12c41.333 0 77.166 -5.33301 107.499 -16s55.166 -27.667 74.499 -51c18 -21.333 31.5 -48.666 40.5 -81.999
s13.5 -72.666 13.5 -117.999v-767c0 -35.333 -4.16699 -66 -12.5 -92s-20.833 -46.667 -37.5 -62c-10.667 -10.667 -23.5 -18.667 -38.5 -24s-31.5 -8 -49.5 -8c-12.667 0 -29 1.16699 -49 3.5s-37 5.5 -51 9.5l-14 -157c20 -6.66699 39 -11.334 57 -14.001s37 -4 57 -4
c48.667 0 92.334 7 131.001 21s71.334 34 98.001 60c30.667 29.333 54 66.5 70 111.5s24 96.833 24 155.5v771c0 72 -8.33301 134.5 -25 187.5s-40.667 96.833 -72 131.5c-31.333 34 -69.666 59.333 -114.999 76s-96.666 25 -153.999 25c-45.333 0 -87 -6.5 -125 -19.5
s-72.333 -31.167 -103 -54.5c-17.333 -13.333 -33.5 -28.5 -48.5 -45.5s-29.167 -35.167 -42.5 -54.5l-1 10l-11 144h-166v-1082z" />
    <glyph glyph-name="Omacron" unicode="&#x14c;" 
d="M1121 644l0.00195312 166.001c-0.666992 52 -5.16699 104.667 -13.5 158s-21.166 104.666 -38.499 153.999c-18 49.333 -40.5 95.5 -67.5 138.5s-59.167 80.5 -96.5 112.5s-80.333 57.167 -129 75.5s-103 27.5 -163 27.5s-114.167 -9.16699 -162.5 -27.5
s-91.166 -43.5 -128.499 -75.5c-37.333 -32.667 -69.5 -70.5 -96.5 -113.5s-49.167 -89.167 -66.5 -138.5c-18 -49.333 -31.167 -100.5 -39.5 -153.5s-12.833 -105.5 -13.5 -157.5v-166c0.666992 -52 5.33398 -104.333 14.001 -157s22 -103.667 40 -153
c17.333 -49.333 39.666 -95.5 66.999 -138.5s59.666 -80.5 96.999 -112.5s80.166 -57.167 128.499 -75.5s102.5 -27.5 162.5 -27.5s114.167 9.16699 162.5 27.5s91.166 43.5 128.499 75.5s69.5 69.333 96.5 112s49.167 88.667 66.5 138s30.166 100.5 38.499 153.5
s12.833 105.5 13.5 157.5zM938.002 812.001v-167.998c-0.666992 -34.667 -2.83398 -71 -6.50098 -109s-10.167 -75.333 -19.5 -112c-10 -37.333 -22.833 -72.833 -38.5 -106.5s-35.167 -63.167 -58.5 -88.5c-24 -26 -52.5 -46.667 -85.5 -62s-71.167 -23 -114.5 -23
s-81.333 7.66699 -114 23s-61 36 -85 62c-24 25.333 -44 55 -60 89s-29 69.667 -39 107c-10 36.667 -17.167 74 -21.5 112s-6.83301 74 -7.5 108v168c0.666992 34 3.16699 69.833 7.5 107.5s11.5 75.167 21.5 112.5c9.33301 36.667 22 71.834 38 105.501s36 63.5 60 89.5
c24 25.333 52.333 45.666 85 60.999s70.334 23 113.001 23c43.333 0 81.333 -7.5 114 -22.5s61 -35.167 85 -60.5c24 -26 44 -55.833 60 -89.5s29 -68.834 39 -105.501c9.33301 -37.333 16 -74.833 20 -112.5s6.33301 -73.834 7 -108.501zM994.002 1664v143h-714v-143h714z
" />
    </font>
</defs>
</svg>
